<?xml version="1.0" encoding="utf-8"?>
<!-- Generator: Adobe Illustrator 18.1.1, SVG Export Plug-In . SVG Version: 6.00 Build 0)  -->
<svg version="1.1" id="Layer_1" xmlns="http://www.w3.org/2000/svg" xmlns:xlink="http://www.w3.org/1999/xlink" x="0px" y="0px"
	 viewBox="0 0 2328 1309" enable-background="new 0 0 2328 1309" xml:space="preserve">
<g>
	<defs>
		<rect id="SVGID_1_" width="2328" height="1309"/>
	</defs>
	<clipPath id="SVGID_2_">
		<use xlink:href="#SVGID_1_"  overflow="visible"/>
	</clipPath>
	<g clip-path="url(#SVGID_2_)">
		<defs>
			<rect id="SVGID_3_" y="-5.1" width="776" height="1314.1"/>
		</defs>
		<clipPath id="SVGID_4_">
			<use xlink:href="#SVGID_3_"  overflow="visible"/>
		</clipPath>
		<linearGradient id="SVGID_5_" gradientUnits="userSpaceOnUse" x1="327.6123" y1="29.0939" x2="440.2122" y2="1182.3893">
			<stop  offset="0" style="stop-color:#DDBF6B"/>
			<stop  offset="1" style="stop-color:#BC878E"/>
		</linearGradient>
		<rect y="-3.7" clip-path="url(#SVGID_4_)" fill="url(#SVGID_5_)" width="777" height="1312.7"/>
		<path clip-path="url(#SVGID_4_)" fill="#85C87F" stroke="#336667" stroke-width="14" stroke-miterlimit="10" d="M-677.7,643.2
			c-4.5,30,16.3,57.4,23.2,86.9c12.5,54-22.4,106.8-31.4,161.5c-7.6,46.8,4.1,94.7,21.8,138.7c29.3,72.9,75.4,139,133.7,191.7
			c78.6,71.2,176.8,116.6,274,159c25.7,11.2,52.3,22.5,80.3,23.5c66.5,2.5,120-50.9,180.1-79.6c26.5-12.6,55.3-20.8,79.4-37.6
			c49-34.1,68.5-96.1,84.9-153.5c-12,2.3-13.5-16.8-9.8-28.4c16.1-49.8,20.5-102.5,24.9-154.7c1.9-23.2,3.9-46.4,5.8-69.7
			c2.4-29,4.9-58,2.8-87c-2.4-33.9-10.6-69.2,1.7-100.8c15.7-40.6,63.7-73.6,51.8-115.5c-9.5-33.3-54.9-44.3-86.5-30
			c-31.6,14.3-52,44.9-70.8,74.1c-19.8-12.1-36.5-29.6-46.8-50.5c-33.5-68,6.1-147.8,7.6-223.6C51.4,237.1-43,133.1-153.5,124.5
			c-26.7-2.1-55.5,0.2-78.1-14.1c-19.3-12.3-29.8-34.1-42.7-53c-58.6-86.5-180.5-117.3-279.4-83.6S-726.7,95.9-759.7,195
			s-28.7,207.5-6,309.5c5.5,24.6,12.6,50.1,29.9,68.3c17.4,18.3,48,26.2,68.1,11.1C-660.2,603-674.7,623-677.7,643.2z"/>
		<path clip-path="url(#SVGID_4_)" fill="#85C87F" stroke="#336667" stroke-width="8" stroke-miterlimit="10" d="M231.2-373.2
			c-10.2-53.7-70.3-92.2-123.3-79.1c-17.4,4.3-33.4,13.2-50.7,17.9c-57.7,15.7-128.4-14.2-174.4,24c-25.4-15.3-57.7-18.6-85.6-8.7
			c-20.7-65.1-115.6-91-166.5-45.5c-22.7-16.4-55.2-17.8-79.2-3.3c-30.2-39.1-85.9-62-131-41.7c-45.1,20.3-61.2,91.4-21.7,121.1
			c-13.3-24.2-28.2-50-53.3-61.7c-25.1-11.7-62.4,0-65.5,27.5c-37.5-22.4-85.6,11-105.1,50.1c-12,24.1-18.1,54.1-4.6,77.4
			c13.5,23.3,52.6,30.3,66.8,7.4c-35.1,32-27.6,98.1,13.8,121.4c-16.4,27.6-32.7,55.1-49.1,82.7c-23.3,18.4-46.6,36.9-70,55.3
			c-24.6,19.4-50,39.9-63,68.5s-8.7,67.4,17.7,84.3c28,17.8,71.6-3,75.4-36c-9,24.8-3.2,54.3,14.5,73.8
			c-60.4,29.3-75.4,123-27,169.6c-13.8-10.7-34.5-2.5-46.9,9.8c-12.4,12.3-21.1,28.6-35.8,38c-7.8,5-16.9,7.7-24.8,12.6
			c-25.2,15.5-32.4,53.8-14.5,77.4c10.6,14.1,27.4,21.9,43.4,29.2c18.3,8.3,37.3,16.8,57.3,16.8c20.1,0,41.6-11,47.3-30.3
			c35.8,34.8,53.3,91.7,100.6,107.7c32.8,11.1,72.6-5.3,88.1-36.4c-0.6,21.8,14.5,43,35.2,49.7s45.4-1.7,57.6-19.7
			c7.1,18.9,21.9,34.8,40.2,43.2c51.8-11.1,95.8-52.6,110-103.6c0.3,25.5,25.5,45.1,50.8,48.3c25.3,3.2,50.4-5.8,74.3-14.7
			c39.5-14.6,87.2-42.9,78.8-84.2c17.2,40,77.8,52,108.9,21.6c28.3,32.4,82.2,21.7,117.7-2.7c35.4-24.4,64.3-59.8,104.8-74.3
			c-7.3,32.2,36.8,56.6,67.2,43.7s46.1-46.3,55.6-77.9c30.7,5.6,63.9,6.2,91.3-8.5c27.5-14.7,46.4-48.6,35.8-77.9
			c13.5-0.4,26.9-4.5,38.3-11.8c23,35.8,80.6,42,110.8,12c-16.5,39.4,7.5,90.5,48.4,102.9s89.3-16.8,97.4-58.7
			c6-31.1-7.5-62.4-22.5-90.4c34.5-12.4,69.6-35.5,77.4-71.4s-31-77.9-63.4-60.7c9.9-45-16-95.3-58.3-113.4
			c-16.8-7.2-37.3-11.1-46.3-27c-4.3-7.5-5.1-16.3-6.8-24.7c-10.5-51.1-61-90.9-113.2-89.2c5.6-48.5-26.9-98.8-73.5-113.6
			C377.3-319.5,304-381.6,231.2-373.2z"/>
		<path clip-path="url(#SVGID_4_)" fill="#85C87F" stroke="#336667" stroke-width="8" stroke-miterlimit="10" d="M-879.1,1049.1
			c4.7,31.6,9.7,64.3,26.7,91.4s49.3,47.3,80.4,40.1c-7.8,29.9,1.9,63.8,24.3,85.1c22.5,21.3,56.8,29.1,86.3,19.6
			c-19.7,58.8,35.3,128.7,97,123.6c-0.6,50.5,63.9,88.6,107.8,63.6c-1.8,61.1,52.1,118.3,113.1,120.1c7.8,18.8,24,34,43.3,40.5
			c-30,44.8,1.1,112.7,52.2,129.7c51.2,17,109.6-9.3,142.1-52.3c3.5,22.5,21,42.2,43,48.3c21.9,6.1,47.1-1.7,61.7-19.2
			c9.7,25.9,37.9,43.6,65.5,41s52-25.3,56.5-52.6c40.5,2.9,82-12.3,111.1-40.7c15-14.6,28.2-33.4,48.5-38.4
			c17.8-4.4,36,3.2,53.9,6.8c68.5,13.9,142.9-40.3,150.7-109.7c31.1,9.3,67.3-17.5,67.5-49.9c0.2-32.4-35.8-59.6-67-50.6
			c34,2.9,68.9-16.2,84.7-46.4c32.6,18.8,81-6.6,83.8-44.2c2.9-37.6-41-70.1-76.1-56.4c41.3-28,47.9-95.1,12.8-130.6
			c-35.1-35.5-102.3-29.6-130.7,11.4c14.6-49.9,6.4-106.1-21.8-149.7c-4.1-6.4-8.7-12.6-11.5-19.7c-4-10.1-4.1-21.3-5.8-32.1
			c-5.9-39.2-34.1-74.3-71-88.6c-37-14.4-81.4-7.4-112.2,17.5c-4.3-31.1-38.7-54.5-69.2-47c5.4-37-40.2-58.2-76.6-66.8
			c-26.3-6.2-52.7-12.5-79.7-13.5c-30.1-1.1-59.9,4.4-89.9,6.6c23.1-13.4,16.7-52.2-6.1-66.2s-52.3-9.1-77.2,0.4
			c-24.9,9.6-48.6,23.5-75,27c-40.9-41.8-112-49.5-160.9-17.5c-30.9-31.3-76.8-46.9-120.4-40.9s-83.6,33.4-104.8,71.9
			c-65.4-36.1-156.8-13.4-197.7,49.1c-5.4,8.2-10.2,17.2-18.1,23c-9.4,6.8-21.6,8-32.9,10.8c-44.6,11.1-79.3,53.8-81.2,99.7
			C-953.8,989.1-922.7,1034.4-879.1,1049.1z"/>
		<g clip-path="url(#SVGID_4_)">
			<path fill="#336667" d="M354.2,1008.8c-1.3,1-3.5,1.2-4.9,0.3l-124.4-75.9c-1.4-0.9-2.3-2.9-2.1-4.5l6.6-39.8
				c0.3-1.6,1-1.7,1.5-0.2l5.6,14.9c0.6,1.5,2,1.8,3.1,0.7l99.2-16.8c1.6-0.3,4.3-0.4,5.9-0.1l71,70.4c1.1,1.2,1,3-0.3,4
				L354.2,1008.8z"/>
		</g>
		<g clip-path="url(#SVGID_4_)">
			<path fill="#D1D3D4" d="M252.5,920.1c-1.4-0.9-2.2-2.9-1.9-4.5l26-109.4c0.4-1.6,2-3,3.7-3.2l112-9.1c1.6-0.1,3.5,1,4.1,2.5
				l43.3,103.8c0.6,1.5,0.1,3.6-1.1,4.7l-85.3,73.2c-1.3,1.1-3.4,1.3-4.8,0.4L252.5,920.1z"/>
			<path fill="none" stroke="#939598" stroke-width="14" stroke-miterlimit="10" d="M252.5,920.1c-1.4-0.9-2.2-2.9-1.9-4.5l26-109.4
				c0.4-1.6,2-3,3.7-3.2l112-9.1c1.6-0.1,3.5,1,4.1,2.5l43.3,103.8c0.6,1.5,0.1,3.6-1.1,4.7l-85.3,73.2c-1.3,1.1-3.4,1.3-4.8,0.4
				L252.5,920.1z"/>
		</g>
		<g clip-path="url(#SVGID_4_)">
			<path fill="#336667" d="M225.7,455.7c-0.2-2.1-0.5-4.3-0.9-6.5c-2.3-13.1-8.8-27.6-19.5-35.7c-9.8-7.4-19.2-11.3-25.3-22.7
				c-8.4-15.4-2.2-36.6-8.5-53.1c-7.3-19.3-33.6-24.3-43.5-42.6c-16.5-30.5-0.6-71.9,35.5-92.4c35.8-20.3,79.1-11.8,95.5,18.1
				c0.3,0.6,0.7,1.3,1,1.9c7.9,15.9,7,35.6,14.7,51.3c8.2,16.8,27.6,26.4,36.3,42.5c9.2,16.9,4.7,39.4,14.7,55.6
				c3.3,5.4,7.9,10,12.7,14.3"/>
			<path fill="#EA6767" stroke="#B5474D" stroke-width="14" stroke-miterlimit="10" d="M243.1,246.4c0.3,0.5,0.5,1,0.8,1.5
				c6.3,12.3,6.9,26.8,13.1,39c6.6,12.9,20.5,21.2,27.4,33.6c7.3,13.1,5.5,29.6,13.3,42.1c7.4,12,20.9,19.5,27.7,31.6
				c13.1,23.6,4.6,53.5-19,66.6c-23.6,13.1-53.5,4.6-66.6-19c-5.1-9.2-4.5-18.1-6.9-27.8c-2.4-9.8-7.6-21-15.5-27.7
				c-7.1-6-13.8-9.5-18.7-18.3c-6.7-12-3.6-27.3-8.9-39.9c-6.2-14.8-24.4-20-32.4-34.2c-13.1-23.6-4.6-53.5,19-66.6
				C199.9,214.4,230.1,223.2,243.1,246.4z"/>
			<path fill="#D8C7DB" stroke="#AB82AF" stroke-width="14" stroke-miterlimit="10" d="M279.9,508.4c-0.1,0.5-0.2,1-0.2,1.4
				c-1.4,7.4-4.1,14.6-4.3,22.2c-0.3,7.7,1.3,15.3,5.3,22c11.2,18.8,35.6,24.9,54.3,13.7c11.3-6.7,19.7-16.4,31.9-22.1
				c6.2-2.9,13.1-4.7,18.9-8.2c18.8-11.2,24.9-35.6,13.7-54.3c-10.2-17.1-29.6-16.4-45.6-24.4c-8.4-4.2-14.6-9.7-24.4-11
				c-9.8-1.4-19.8,0.7-28.3,5.7c-12.4,7.4-21.1,21.5-21.2,36.1C280,496,280.8,502,279.9,508.4z"/>
		</g>
		<path opacity="0.52" clip-path="url(#SVGID_4_)" fill="#85C87F" stroke="#336667" stroke-width="14" stroke-miterlimit="10" d="
			M231.2-373.2c-10.2-53.7-70.3-92.2-123.3-79.1c-17.4,4.3-33.4,13.2-50.7,17.9c-57.7,15.7-128.4-14.2-174.4,24
			c-25.4-15.3-57.7-18.6-85.6-8.7c-20.7-65.1-115.6-91-166.5-45.5c-22.7-16.4-55.2-17.8-79.2-3.3c-30.2-39.1-85.9-62-131-41.7
			c-45.1,20.3-61.2,91.4-21.7,121.1c-13.3-24.2-28.2-50-53.3-61.7c-25.1-11.7-62.4,0-65.5,27.5c-37.5-22.4-85.6,11-105.1,50.1
			c-12,24.1-18.1,54.1-4.6,77.4c13.5,23.3,52.6,30.3,66.8,7.4c-35.1,32-27.6,98.1,13.8,121.4c-16.4,27.6-32.7,55.1-49.1,82.7
			c-23.3,18.4-46.6,36.9-70,55.3c-24.6,19.4-50,39.9-63,68.5s-8.7,67.4,17.7,84.3c28,17.8,71.6-3,75.4-36
			c-9,24.8-3.2,54.3,14.5,73.8c-60.4,29.3-75.4,123-27,169.6c-13.8-10.7-34.5-2.5-46.9,9.8c-12.4,12.3-21.1,28.6-35.8,38
			c-7.8,5-16.9,7.7-24.8,12.6c-25.2,15.5-32.4,53.8-14.5,77.4c10.6,14.1,27.4,21.9,43.4,29.2c18.3,8.3,37.3,16.8,57.3,16.8
			c20.1,0,41.6-11,47.3-30.3c35.8,34.8,53.3,91.7,100.6,107.7c32.8,11.1,72.6-5.3,88.1-36.4c-0.6,21.8,14.5,43,35.2,49.7
			s45.4-1.7,57.6-19.7c7.1,18.9,21.9,34.8,40.2,43.2c51.8-11.1,95.8-52.6,110-103.6c0.3,25.5,25.5,45.1,50.8,48.3
			c25.3,3.2,50.4-5.8,74.3-14.7c39.5-14.6,87.2-42.9,78.8-84.2c17.2,40,77.8,52,108.9,21.6c28.3,32.4,82.2,21.7,117.7-2.7
			c35.4-24.4,64.3-59.8,104.8-74.3c-7.3,32.2,36.8,56.6,67.2,43.7s46.1-46.3,55.6-77.9c30.7,5.6,63.9,6.2,91.3-8.5
			c27.5-14.7,46.4-48.6,35.8-77.9c13.5-0.4,26.9-4.5,38.3-11.8c23,35.8,80.6,42,110.8,12c-16.5,39.4,7.5,90.5,48.4,102.9
			s89.3-16.8,97.4-58.7c6-31.1-7.5-62.4-22.5-90.4c34.5-12.4,69.6-35.5,77.4-71.4s-31-77.9-63.4-60.7c9.9-45-16-95.3-58.3-113.4
			c-16.8-7.2-37.3-11.1-46.3-27c-4.3-7.5-5.1-16.3-6.8-24.7c-10.5-51.1-61-90.9-113.2-89.2c5.6-48.5-26.9-98.8-73.5-113.6
			C377.3-319.5,304-381.6,231.2-373.2z"/>
		<g clip-path="url(#SVGID_4_)">
			<path fill="#EA6767" stroke="#B5474D" stroke-width="7" stroke-miterlimit="10" d="M538.4,180.9c5.6,0,10.5-0.5,11.7-1.2
				l69.7-63.9c21.7-13.5,21.7-27.5,0-41l-69.7-60c-1.2-0.7-6-1.2-11.7-1.2c0,0-368.6-3.8-365.6,0l-11.7,1.2l-69.7,60
				c-21.7,13.5-21.7,27.5,0,41l69.7,63.9c1.2,0.7,6,1.2,11.7,1.2c0,0,141.1,0,171.8,0c29.3,79.9-7.6,153.1-7.6,153.1
				s74.6-57.6,74.6-153.1C445,180.9,538.4,180.9,538.4,180.9z"/>
			<g>
				<g>
					<path fill="#E8E8E8" d="M166.7,71.5c0,3.6-1.1,6.4-3.4,8.3c-2.3,1.9-5.5,2.9-9.7,2.9h-3.1v12h-7.1V61h10.8
						c4.1,0,7.2,0.9,9.3,2.6S166.7,68,166.7,71.5z M150.5,76.9h2.4c2.2,0,3.8-0.4,4.9-1.3c1.1-0.9,1.6-2.1,1.6-3.8
						c0-1.7-0.5-2.9-1.4-3.7c-0.9-0.8-2.3-1.2-4.3-1.2h-3.3V76.9z"/>
					<path fill="#E8E8E8" d="M200.6,94.7h-7.1V80.2h-13.3v14.5H173V61h7.1v13.2h13.3V61h7.1V94.7z"/>
					<path fill="#E8E8E8" d="M239.7,77.8c0,5.6-1.4,9.9-4.2,12.9s-6.7,4.5-11.9,4.5s-9.1-1.5-11.9-4.5c-2.8-3-4.2-7.3-4.2-12.9
						c0-5.6,1.4-9.9,4.2-12.9c2.8-3,6.8-4.4,11.9-4.4c5.2,0,9.1,1.5,11.9,4.5C238.4,67.9,239.7,72.2,239.7,77.8z M215.1,77.8
						c0,3.8,0.7,6.6,2.1,8.5c1.4,1.9,3.6,2.9,6.4,2.9c5.7,0,8.6-3.8,8.6-11.4c0-7.6-2.8-11.4-8.5-11.4c-2.8,0-5,1-6.4,2.9
						C215.9,71.2,215.1,74,215.1,77.8z"/>
					<path fill="#E8E8E8" d="M266.6,85.3c0,3-1.1,5.4-3.3,7.2s-5.2,2.6-9.1,2.6c-3.6,0-6.8-0.7-9.5-2v-6.6c2.3,1,4.2,1.7,5.8,2.1
						c1.6,0.4,3,0.6,4.3,0.6c1.6,0,2.8-0.3,3.6-0.9s1.3-1.5,1.3-2.7c0-0.7-0.2-1.2-0.6-1.8s-0.9-1-1.6-1.5c-0.7-0.5-2.2-1.2-4.4-2.3
						c-2.1-1-3.6-1.9-4.6-2.8c-1-0.9-1.9-1.9-2.5-3.1c-0.6-1.2-0.9-2.6-0.9-4.2c0-3,1-5.3,3-7c2-1.7,4.8-2.6,8.4-2.6
						c1.8,0,3.4,0.2,5,0.6c1.6,0.4,3.3,1,5,1.8l-2.3,5.6c-1.8-0.7-3.3-1.3-4.5-1.5c-1.2-0.3-2.3-0.4-3.5-0.4c-1.4,0-2.4,0.3-3.1,0.9
						c-0.7,0.6-1.1,1.5-1.1,2.5c0,0.6,0.1,1.2,0.4,1.6c0.3,0.5,0.8,0.9,1.4,1.4c0.6,0.4,2.1,1.2,4.5,2.4c3.2,1.5,5.3,3,6.5,4.5
						C266,81.3,266.6,83.1,266.6,85.3z"/>
					<path fill="#E8E8E8" d="M296,71.5c0,3.6-1.1,6.4-3.4,8.3c-2.3,1.9-5.5,2.9-9.7,2.9h-3.1v12h-7.1V61h10.8c4.1,0,7.2,0.9,9.3,2.6
						S296,68,296,71.5z M279.9,76.9h2.4c2.2,0,3.8-0.4,4.9-1.3c1.1-0.9,1.6-2.1,1.6-3.8c0-1.7-0.5-2.9-1.4-3.7
						c-0.9-0.8-2.3-1.2-4.3-1.2h-3.3V76.9z"/>
					<path fill="#E8E8E8" d="M330,94.7h-7.1V80.2h-13.3v14.5h-7.1V61h7.1v13.2h13.3V61h7.1V94.7z"/>
					<path fill="#E8E8E8" d="M369.1,77.8c0,5.6-1.4,9.9-4.2,12.9s-6.7,4.5-11.9,4.5s-9.1-1.5-11.9-4.5c-2.8-3-4.2-7.3-4.2-12.9
						c0-5.6,1.4-9.9,4.2-12.9c2.8-3,6.8-4.4,11.9-4.4c5.2,0,9.1,1.5,11.9,4.5C367.8,67.9,369.1,72.2,369.1,77.8z M344.5,77.8
						c0,3.8,0.7,6.6,2.1,8.5c1.4,1.9,3.6,2.9,6.4,2.9c5.7,0,8.6-3.8,8.6-11.4c0-7.6-2.8-11.4-8.5-11.4c-2.8,0-5,1-6.4,2.9
						C345.2,71.2,344.5,74,344.5,77.8z"/>
					<path fill="#E8E8E8" d="M383.3,81.8v12.9h-7.1V61h9.8c4.6,0,8,0.8,10.2,2.5c2.2,1.7,3.3,4.2,3.3,7.6c0,2-0.5,3.7-1.6,5.3
						c-1.1,1.5-2.6,2.8-4.6,3.6c5.1,7.6,8.4,12.5,9.9,14.7h-7.9l-8-12.9H383.3z M383.3,76h2.3c2.3,0,3.9-0.4,5-1.1
						c1.1-0.8,1.6-1.9,1.6-3.6c0-1.6-0.5-2.7-1.6-3.4c-1.1-0.7-2.8-1-5.1-1h-2.2V76z"/>
					<path fill="#E8E8E8" d="M417.8,74.9l7-13.9h7.7l-11.2,20.6v13.1h-7.1V81.8L403,61h7.7L417.8,74.9z"/>
					<path fill="#E8E8E8" d="M436.8,94.7V61h7.1v27.8h13.7v5.9H436.8z"/>
					<path fill="#E8E8E8" d="M484.1,94.7l-2.4-8h-12.3l-2.4,8h-7.7l11.9-33.8h8.7l11.9,33.8H484.1z M479.9,80.7
						c-2.3-7.3-3.5-11.4-3.8-12.3c-0.3-1-0.5-1.7-0.6-2.3c-0.5,2-2,6.8-4.4,14.6H479.9z"/>
					<path fill="#E8E8E8" d="M509,94.7h-7.1V66.9h-9.2V61h25.5v5.9H509V94.7z"/>
					<path fill="#E8E8E8" d="M542.8,94.7h-19.4V61h19.4v5.9h-12.3v7.4h11.4v5.9h-11.4v8.7h12.3V94.7z"/>
					<path fill="#E8E8E8" d="M577.8,77.5c0,5.5-1.6,9.8-4.7,12.8c-3.2,3-7.7,4.4-13.7,4.4h-9.5V61h10.6c5.5,0,9.8,1.5,12.8,4.4
						C576.2,68.3,577.8,72.3,577.8,77.5z M570.3,77.7c0-7.2-3.2-10.9-9.6-10.9h-3.8v22h3.1C566.9,88.8,570.3,85.1,570.3,77.7z"/>
					<path fill="#E8E8E8" d="M251.8,129.1c0,3-1.1,5.4-3.3,7.2s-5.2,2.6-9.1,2.6c-3.6,0-6.8-0.7-9.5-2v-6.6c2.3,1,4.2,1.7,5.8,2.1
						c1.6,0.4,3,0.6,4.3,0.6c1.6,0,2.8-0.3,3.6-0.9s1.3-1.5,1.3-2.7c0-0.7-0.2-1.2-0.6-1.8s-0.9-1-1.6-1.5c-0.7-0.5-2.2-1.2-4.4-2.3
						c-2.1-1-3.6-1.9-4.6-2.8c-1-0.9-1.9-1.9-2.5-3.1c-0.6-1.2-0.9-2.6-0.9-4.2c0-3,1-5.3,3-7c2-1.7,4.8-2.6,8.4-2.6
						c1.8,0,3.4,0.2,5,0.6c1.6,0.4,3.3,1,5,1.8l-2.3,5.6c-1.8-0.7-3.3-1.3-4.5-1.5c-1.2-0.3-2.3-0.4-3.5-0.4c-1.4,0-2.4,0.3-3.1,0.9
						c-0.7,0.6-1.1,1.5-1.1,2.5c0,0.6,0.1,1.2,0.4,1.6c0.3,0.5,0.8,0.9,1.4,1.4c0.6,0.4,2.1,1.2,4.5,2.4c3.2,1.5,5.3,3,6.5,4.5
						C251.2,125.1,251.8,126.9,251.8,129.1z"/>
					<path fill="#E8E8E8" d="M285.3,104.8v21.8c0,2.5-0.6,4.7-1.7,6.5c-1.1,1.9-2.7,3.3-4.8,4.3c-2.1,1-4.6,1.5-7.5,1.5
						c-4.3,0-7.7-1.1-10.1-3.3c-2.4-2.2-3.6-5.3-3.6-9.1v-21.7h7.1v20.6c0,2.6,0.5,4.5,1.6,5.7c1,1.2,2.8,1.8,5.2,1.8
						c2.3,0,4-0.6,5.1-1.8c1.1-1.2,1.6-3.1,1.6-5.8v-20.6H285.3z"/>
					<path fill="#E8E8E8" d="M293.6,104.8h10.5c4.8,0,8.3,0.7,10.4,2c2.2,1.4,3.2,3.5,3.2,6.5c0,2-0.5,3.7-1.4,5
						c-0.9,1.3-2.2,2.1-3.8,2.3v0.2c2.1,0.5,3.7,1.4,4.6,2.7c0.9,1.3,1.4,3,1.4,5.2c0,3.1-1.1,5.5-3.3,7.2c-2.2,1.7-5.2,2.6-9,2.6
						h-12.6V104.8z M300.7,118.1h4.2c1.9,0,3.3-0.3,4.2-0.9c0.9-0.6,1.3-1.6,1.3-3c0-1.3-0.5-2.2-1.4-2.8s-2.4-0.8-4.5-0.8h-3.8
						V118.1z M300.7,123.8v8.8h4.7c2,0,3.4-0.4,4.4-1.1c0.9-0.8,1.4-1.9,1.4-3.5c0-2.8-2-4.2-6-4.2H300.7z"/>
					<path fill="#E8E8E8" d="M345.2,129.1c0,3-1.1,5.4-3.3,7.2s-5.2,2.6-9.1,2.6c-3.6,0-6.8-0.7-9.5-2v-6.6c2.3,1,4.2,1.7,5.8,2.1
						c1.6,0.4,3,0.6,4.3,0.6c1.6,0,2.8-0.3,3.6-0.9s1.3-1.5,1.3-2.7c0-0.7-0.2-1.2-0.6-1.8s-0.9-1-1.6-1.5c-0.7-0.5-2.2-1.2-4.4-2.3
						c-2.1-1-3.6-1.9-4.6-2.8c-1-0.9-1.9-1.9-2.5-3.1c-0.6-1.2-0.9-2.6-0.9-4.2c0-3,1-5.3,3-7c2-1.7,4.8-2.6,8.4-2.6
						c1.8,0,3.4,0.2,5,0.6c1.6,0.4,3.3,1,5,1.8l-2.3,5.6c-1.8-0.7-3.3-1.3-4.5-1.5c-1.2-0.3-2.3-0.4-3.5-0.4c-1.4,0-2.4,0.3-3.1,0.9
						c-0.7,0.6-1.1,1.5-1.1,2.5c0,0.6,0.1,1.2,0.4,1.6c0.3,0.5,0.8,0.9,1.4,1.4c0.6,0.4,2.1,1.2,4.5,2.4c3.2,1.5,5.3,3,6.5,4.5
						C344.6,125.1,345.2,126.9,345.2,129.1z"/>
					<path fill="#E8E8E8" d="M364.3,138.5h-7.1v-27.8H348v-5.9h25.5v5.9h-9.2V138.5z"/>
					<path fill="#E8E8E8" d="M385.8,125.6v12.9h-7.1v-33.7h9.8c4.6,0,8,0.8,10.2,2.5c2.2,1.7,3.3,4.2,3.3,7.6c0,2-0.5,3.7-1.6,5.3
						c-1.1,1.5-2.6,2.8-4.6,3.6c5.1,7.6,8.4,12.5,9.9,14.7h-7.9l-8-12.9H385.8z M385.8,119.7h2.3c2.3,0,3.9-0.4,5-1.1
						c1.1-0.8,1.6-1.9,1.6-3.6c0-1.6-0.5-2.7-1.6-3.4c-1.1-0.7-2.8-1-5.1-1h-2.2V119.7z"/>
					<path fill="#E8E8E8" d="M430.5,138.5l-2.4-8h-12.3l-2.4,8h-7.7l11.9-33.8h8.7l11.9,33.8H430.5z M426.3,124.5
						c-2.3-7.3-3.5-11.4-3.8-12.3c-0.3-1-0.5-1.7-0.6-2.3c-0.5,2-2,6.8-4.4,14.6H426.3z"/>
					<path fill="#E8E8E8" d="M455.4,138.5h-7.1v-27.8h-9.2v-5.9h25.5v5.9h-9.2V138.5z"/>
					<path fill="#E8E8E8" d="M489.2,138.5h-19.4v-33.7h19.4v5.9h-12.3v7.4h11.4v5.9h-11.4v8.7h12.3V138.5z"/>
				</g>
			</g>
		</g>
		<path opacity="0.52" clip-path="url(#SVGID_4_)" fill="#85C87F" stroke="#336667" stroke-width="14" stroke-miterlimit="10" d="
			M-879.1,1049.1c4.7,31.6,9.7,64.3,26.7,91.4s49.3,47.3,80.4,40.1c-7.8,29.9,1.9,63.8,24.3,85.1c22.5,21.3,56.8,29.1,86.3,19.6
			c-19.7,58.8,35.3,128.7,97,123.6c-0.6,50.5,63.9,88.6,107.8,63.6c-1.8,61.1,52.1,118.3,113.1,120.1c7.8,18.8,24,34,43.3,40.5
			c-30,44.8,1.1,112.7,52.2,129.7c51.2,17,109.6-9.3,142.1-52.3c3.5,22.5,21,42.2,43,48.3c21.9,6.1,47.1-1.7,61.7-19.2
			c9.7,25.9,37.9,43.6,65.5,41s52-25.3,56.5-52.6c40.5,2.9,82-12.3,111.1-40.7c15-14.6,28.2-33.4,48.5-38.4
			c17.8-4.4,36,3.2,53.9,6.8c68.5,13.9,142.9-40.3,150.7-109.7c31.1,9.3,67.3-17.5,67.5-49.9c0.2-32.4-35.8-59.6-67-50.6
			c34,2.9,68.9-16.2,84.7-46.4c32.6,18.8,81-6.6,83.8-44.2c2.9-37.6-41-70.1-76.1-56.4c41.3-28,47.9-95.1,12.8-130.6
			c-35.1-35.5-102.3-29.6-130.7,11.4c14.6-49.9,6.4-106.1-21.8-149.7c-4.1-6.4-8.7-12.6-11.5-19.7c-4-10.1-4.1-21.3-5.8-32.1
			c-5.9-39.2-34.1-74.3-71-88.6c-37-14.4-81.4-7.4-112.2,17.5c-4.3-31.1-38.7-54.5-69.2-47c5.4-37-40.2-58.2-76.6-66.8
			c-26.3-6.2-52.7-12.5-79.7-13.5c-30.1-1.1-59.9,4.4-89.9,6.6c23.1-13.4,16.7-52.2-6.1-66.2s-52.3-9.1-77.2,0.4
			c-24.9,9.6-48.6,23.5-75,27c-40.9-41.8-112-49.5-160.9-17.5c-30.9-31.3-76.8-46.9-120.4-40.9s-83.6,33.4-104.8,71.9
			c-65.4-36.1-156.8-13.4-197.7,49.1c-5.4,8.2-10.2,17.2-18.1,23c-9.4,6.8-21.6,8-32.9,10.8c-44.6,11.1-79.3,53.8-81.2,99.7
			C-953.8,989.1-922.7,1034.4-879.1,1049.1z"/>
		<g opacity="0.75" clip-path="url(#SVGID_4_)">
			<g>
				<path fill="none" stroke="#FFFFFF" stroke-width="20" stroke-miterlimit="10" d="M515.9,751.3c32-19.9,78.7-38.1,141.1-35.3"/>
				<g>
					<polygon fill="#FFFFFF" points="463,798 565.2,764.6 520.9,748.9 512.5,702.6 					"/>
				</g>
			</g>
		</g>
		<g opacity="0.75" clip-path="url(#SVGID_4_)">
			<g>
				<path fill="none" stroke="#FFFFFF" stroke-width="20" stroke-miterlimit="10" d="M511.9,580.4c32,19.9,78.7,38.1,141.1,35.3"/>
				<g>
					<polygon fill="#FFFFFF" points="459,533.7 508.5,629.1 516.9,582.8 561.2,567.1 					"/>
				</g>
			</g>
		</g>
		<g clip-path="url(#SVGID_4_)">
			<g>
				<path fill="#71BF4D" stroke="#336667" stroke-width="6" stroke-miterlimit="10" d="M236.2,1169.8c5.3-1.6,1.6-0.5,6.1-1.1
					l118.8-16.2v-75.4L242.3,1061c-19.3-2.6-39.3-2.6-58.6,0l-118.8,16.2v75.4l118.8,16.2c5.6,0.8,6.6,0.7,12.3,1.1
					C196,1169.8,222.9,1171.7,236.2,1169.8z"/>
			</g>
			<g>
				<g>
					<path fill="#E8E8E8" d="M141,1131h-19.4v-33.7H141v5.9h-12.3v7.4h11.4v5.9h-11.4v8.7H141V1131z"/>
					<path fill="#E8E8E8" d="M177.9,1131h-9.1l-14.7-25.5H154c0.3,4.5,0.4,7.7,0.4,9.6v15.9H148v-33.7h9l14.6,25.2h0.2
						c-0.2-4.4-0.3-7.5-0.3-9.3v-16h6.4V1131z"/>
					<path fill="#E8E8E8" d="M208.4,1131h-25.1v-4.6l16.2-23.2h-15.7v-5.9h24.2v4.6l-16.1,23.2h16.6V1131z"/>
					<path fill="#E8E8E8" d="M224.2,1111.1l7-13.9h7.7l-11.2,20.6v13.1h-7.1v-12.9l-11.2-20.8h7.7L224.2,1111.1z"/>
					<path fill="#E8E8E8" d="M257.5,1131l-8.1-26.4h-0.2c0.3,5.4,0.4,9,0.4,10.8v15.7h-6.4v-33.7h9.7l8,25.8h0.1l8.5-25.8h9.7v33.7
						h-6.7v-16c0-0.8,0-1.6,0-2.6s0.1-3.6,0.3-7.8h-0.2L264,1131H257.5z"/>
					<path fill="#E8E8E8" d="M307.2,1131h-19.4v-33.7h19.4v5.9h-12.3v7.4h11.4v5.9h-11.4v8.7h12.3V1131z"/>
				</g>
			</g>
		</g>
		<g clip-path="url(#SVGID_4_)">
			<path fill="#B163A8" stroke="#CF96C3" stroke-width="6" stroke-miterlimit="10" d="M679.1,1015.7c1.3,0,2.3-1.5,2.3-3.4v-71.5
				c0-1.6-0.8-3-1.8-3.3l-63.9-20c-19.9-6.2-40.4-6.2-60.3,0c0,0-25.7-67.2-101.7-55.2c72.7,30,63.3,67.3,63.3,67.3l-25.5,7.8
				c-1.1,0.3-1.8,1.7-1.8,3.3v71.5c0,1.9,1,3.4,2.3,3.4H679.1z"/>
			<g>
				<g>
					<path fill="#E8E8E8" d="M564.3,985l-2.4-8h-12.3l-2.4,8h-7.7l11.9-33.8h8.7L572,985H564.3z M560.1,971
						c-2.3-7.3-3.5-11.4-3.8-12.3c-0.3-1-0.5-1.7-0.6-2.3c-0.5,2-2,6.8-4.4,14.6H560.1z"/>
					<path fill="#E8E8E8" d="M604.2,967.9c0,5.5-1.6,9.8-4.7,12.8c-3.2,3-7.7,4.4-13.7,4.4h-9.5v-33.7h10.6c5.5,0,9.8,1.5,12.8,4.4
						C602.7,958.6,604.2,962.7,604.2,967.9z M596.8,968c0-7.2-3.2-10.9-9.6-10.9h-3.8v22h3.1C593.3,979.1,596.8,975.4,596.8,968z"/>
					<path fill="#E8E8E8" d="M634.5,961.8c0,3.6-1.1,6.4-3.4,8.3c-2.3,1.9-5.5,2.9-9.7,2.9h-3.1v12h-7.1v-33.7H622
						c4.1,0,7.2,0.9,9.3,2.6S634.5,958.4,634.5,961.8z M618.3,967.2h2.4c2.2,0,3.8-0.4,4.9-1.3c1.1-0.9,1.6-2.1,1.6-3.8
						c0-1.7-0.5-2.9-1.4-3.7c-0.9-0.8-2.3-1.2-4.3-1.2h-3.3V967.2z"/>
				</g>
			</g>
		</g>
	</g>
	<g clip-path="url(#SVGID_2_)">
		<defs>
			<rect id="SVGID_6_" x="1552" y="-5.1" width="776" height="1314.1"/>
		</defs>
		<clipPath id="SVGID_7_">
			<use xlink:href="#SVGID_6_"  overflow="visible"/>
		</clipPath>
		<linearGradient id="SVGID_8_" gradientUnits="userSpaceOnUse" x1="1878.6279" y1="29.0939" x2="1991.2278" y2="1182.3893">
			<stop  offset="0" style="stop-color:#DDBF6B"/>
			<stop  offset="1" style="stop-color:#BC878E"/>
		</linearGradient>
		<rect x="1551" y="-3.7" clip-path="url(#SVGID_7_)" fill="url(#SVGID_8_)" width="777" height="1312.7"/>
		<path clip-path="url(#SVGID_7_)" fill="#85C87F" stroke="#336667" stroke-width="14" stroke-miterlimit="10" d="M874.3,643.2
			c-4.5,30,16.3,57.4,23.2,86.9c12.5,54-22.4,106.8-31.4,161.5c-7.6,46.8,4.1,94.7,21.8,138.7c29.3,72.9,75.4,139,133.7,191.7
			c78.6,71.2,176.8,116.6,274,159c25.7,11.2,52.3,22.5,80.3,23.5c66.5,2.5,120-50.9,180.1-79.6c26.5-12.6,55.3-20.8,79.4-37.6
			c49-34.1,68.5-96.1,84.9-153.5c-12,2.3-13.5-16.8-9.8-28.4c16.1-49.8,20.5-102.5,24.9-154.7c1.9-23.2,3.9-46.4,5.8-69.7
			c2.4-29,4.9-58,2.8-87c-2.4-33.9-10.6-69.2,1.7-100.8c15.7-40.6,63.7-73.6,51.8-115.5c-9.5-33.3-54.9-44.3-86.5-30
			c-31.6,14.3-52,44.9-70.8,74.1c-19.8-12.1-36.5-29.6-46.8-50.5c-33.5-68,6.1-147.8,7.6-223.6c2.2-110.8-92.2-214.8-202.7-223.4
			c-26.7-2.1-55.5,0.2-78.1-14.1c-19.3-12.3-29.8-34.1-42.7-53c-58.6-86.5-180.5-117.3-279.4-83.6S825.3,95.9,792.3,195
			s-28.7,207.5-6,309.5c5.5,24.6,12.6,50.1,29.9,68.3c17.4,18.3,48,26.2,68.1,11.1C891.8,603,877.3,623,874.3,643.2z"/>
		<path clip-path="url(#SVGID_7_)" fill="#85C87F" stroke="#336667" stroke-width="8" stroke-miterlimit="10" d="M1783.2-373.2
			c-10.2-53.7-70.3-92.2-123.3-79.1c-17.4,4.3-33.4,13.2-50.7,17.9c-57.7,15.7-128.4-14.2-174.4,24c-25.4-15.3-57.7-18.6-85.6-8.7
			c-20.7-65.1-115.6-91-166.5-45.5c-22.7-16.4-55.2-17.8-79.2-3.3c-30.2-39.1-85.9-62-131-41.7c-45.1,20.3-61.2,91.4-21.7,121.1
			c-13.3-24.2-28.2-50-53.3-61.7c-25.1-11.7-62.4,0-65.5,27.5c-37.5-22.4-85.6,11-105.1,50.1c-12,24.1-18.1,54.1-4.6,77.4
			c13.5,23.3,52.6,30.3,66.8,7.4c-35.1,32-27.6,98.1,13.8,121.4c-16.4,27.6-32.7,55.1-49.1,82.7c-23.3,18.4-46.6,36.9-70,55.3
			c-24.6,19.4-50,39.9-63,68.5s-8.7,67.4,17.7,84.3c28,17.8,71.6-3,75.4-36c-9,24.8-3.2,54.3,14.5,73.8
			c-60.4,29.3-75.4,123-27,169.6c-13.8-10.7-34.5-2.5-46.9,9.8c-12.4,12.3-21.1,28.6-35.8,38c-7.8,5-16.9,7.7-24.8,12.6
			c-25.2,15.5-32.4,53.8-14.5,77.4c10.6,14.1,27.4,21.9,43.4,29.2c18.3,8.3,37.3,16.8,57.3,16.8c20.1,0,41.6-11,47.3-30.3
			c35.8,34.8,53.3,91.7,100.6,107.7c32.8,11.1,72.6-5.3,88.1-36.4c-0.6,21.8,14.5,43,35.2,49.7s45.4-1.7,57.6-19.7
			c7.1,18.9,21.9,34.8,40.2,43.2c51.8-11.1,95.8-52.6,110-103.6c0.3,25.5,25.5,45.1,50.8,48.3c25.3,3.2,50.4-5.8,74.3-14.7
			c39.5-14.6,87.2-42.9,78.8-84.2c17.2,40,77.8,52,108.9,21.6c28.3,32.4,82.2,21.7,117.7-2.7c35.4-24.4,64.3-59.8,104.8-74.3
			c-7.3,32.2,36.8,56.6,67.2,43.7c30.4-12.8,46.1-46.3,55.6-77.9c30.7,5.6,63.9,6.2,91.3-8.5s46.4-48.6,35.8-77.9
			c13.5-0.4,26.9-4.5,38.3-11.8c23,35.8,80.6,42,110.8,12c-16.5,39.4,7.5,90.5,48.4,102.9c40.9,12.4,89.3-16.8,97.4-58.7
			c6-31.1-7.5-62.4-22.5-90.4c34.5-12.4,69.6-35.5,77.4-71.4s-31-77.9-63.4-60.7c9.9-45-16-95.3-58.3-113.4
			c-16.8-7.2-37.3-11.1-46.3-27c-4.3-7.5-5.1-16.3-6.8-24.7c-10.5-51.1-61-90.9-113.2-89.2c5.6-48.5-26.9-98.8-73.5-113.6
			C1929.3-319.5,1856-381.6,1783.2-373.2z"/>
		<path clip-path="url(#SVGID_7_)" fill="#85C87F" stroke="#336667" stroke-width="8" stroke-miterlimit="10" d="M672.9,1049.1
			c4.7,31.6,9.7,64.3,26.7,91.4s49.3,47.3,80.4,40.1c-7.8,29.9,1.9,63.8,24.3,85.1c22.5,21.3,56.8,29.1,86.3,19.6
			c-19.7,58.8,35.3,128.7,97,123.6c-0.6,50.5,63.9,88.6,107.8,63.6c-1.8,61.1,52.1,118.3,113.1,120.1c7.8,18.8,24,34,43.3,40.5
			c-30,44.8,1.1,112.7,52.2,129.7c51.2,17,109.6-9.3,142.1-52.3c3.5,22.5,21,42.2,43,48.3c21.9,6.1,47.1-1.7,61.7-19.2
			c9.7,25.9,37.9,43.6,65.5,41s52-25.3,56.5-52.6c40.5,2.9,82-12.3,111.1-40.7c15-14.6,28.2-33.4,48.5-38.4
			c17.8-4.4,36,3.2,53.9,6.8c68.5,13.9,142.9-40.3,150.7-109.7c31.1,9.3,67.3-17.5,67.5-49.9c0.2-32.4-35.8-59.6-67-50.6
			c34,2.9,68.9-16.2,84.7-46.4c32.6,18.8,81-6.6,83.8-44.2c2.9-37.6-41-70.1-76.1-56.4c41.3-28,47.9-95.1,12.8-130.6
			c-35.1-35.5-102.3-29.6-130.7,11.4c14.6-49.9,6.4-106.1-21.8-149.7c-4.1-6.4-8.7-12.6-11.5-19.7c-4-10.1-4.1-21.3-5.8-32.1
			c-5.9-39.2-34.1-74.3-71-88.6c-37-14.4-81.4-7.4-112.2,17.5c-4.3-31.1-38.7-54.5-69.2-47c5.4-37-40.2-58.2-76.6-66.8
			c-26.3-6.2-52.7-12.5-79.7-13.5c-30.1-1.1-59.9,4.4-89.9,6.6c23.1-13.4,16.7-52.2-6.1-66.2s-52.3-9.1-77.2,0.4
			c-24.9,9.6-48.6,23.5-75,27c-40.9-41.8-112-49.5-160.9-17.5c-30.9-31.3-76.8-46.9-120.4-40.9c-43.5,6-83.6,33.4-104.8,71.9
			c-65.4-36.1-156.8-13.4-197.7,49.1c-5.4,8.2-10.2,17.2-18.1,23c-9.4,6.8-21.6,8-32.9,10.8c-44.6,11.1-79.3,53.8-81.2,99.7
			C598.2,989.1,629.3,1034.4,672.9,1049.1z"/>
		<g clip-path="url(#SVGID_7_)">
			<g>
				<path fill="#D1D3D4" d="M2033.9,845.7c-0.6-1.5-0.1-3.6,1.1-4.7l85-73.6c1.2-1.1,3.4-1.3,4.8-0.4l96.2,58.1
					c1.4,0.9,2.3,2.9,1.9,4.5l-25.5,109.5c-0.4,1.6-2,3-3.7,3.2l-112,9.6c-1.6,0.1-3.5-1-4.2-2.5L2033.9,845.7z"/>
				<path fill="none" stroke="#939598" stroke-width="14" stroke-miterlimit="10" d="M2033.9,845.7c-0.6-1.5-0.1-3.6,1.1-4.7
					l85-73.6c1.2-1.1,3.4-1.3,4.8-0.4l96.2,58.1c1.4,0.9,2.3,2.9,1.9,4.5l-25.5,109.5c-0.4,1.6-2,3-3.7,3.2l-112,9.6
					c-1.6,0.1-3.5-1-4.2-2.5L2033.9,845.7z"/>
			</g>
			<path fill="#D8C7DB" stroke="#AB82AF" stroke-width="14" stroke-miterlimit="10" d="M2226,795.9c0.5-0.2,0.9-0.3,1.4-0.5
				c7.1-2.5,14.7-3.7,21.4-7.2c6.8-3.6,12.7-8.7,16.5-15.5c10.8-19,4-43.2-15-54c-11.4-6.5-24-9.1-35-16.8
				c-5.6-3.9-10.5-9-16.5-12.4c-19-10.8-43.2-4-54,15c-9.8,17.3,0.4,33.8,1.4,51.7c0.5,9.4-1.2,17.5,2.5,26.7
				c3.6,9.1,10.4,16.9,19,21.7c12.5,7.1,29.2,7.7,41.8,0.5C2215.1,802,2219.9,798.3,2226,795.9z"/>
		</g>
		<g clip-path="url(#SVGID_7_)">
			<path fill="#EA6767" stroke="#B5474D" stroke-width="14" stroke-miterlimit="10" d="M2071.1,417.9c0.5,0.3,0.9,0.7,1.3,1
				c10.7,8.7,17.1,21.8,27.7,30.4c11.3,9.2,27.3,11.2,38.6,19.7c12,9.1,17,24.8,29.2,33.2c11.6,8,27,9.4,38.1,17.8
				c21.5,16.3,25.8,47.1,9.5,68.6c-16.3,21.5-47.1,25.8-68.6,9.5c-8.4-6.4-11.4-14.7-17.5-22.7c-6.1-8.1-15.4-16.2-25.3-19.1
				c-9-2.7-16.5-3.1-24.5-9.2c-10.9-8.3-14.3-23.5-24.2-33c-11.6-11-30.4-8.4-43.4-18.2c-21.5-16.3-25.8-47.1-9.5-68.6
				C2018.7,406,2049.9,401.9,2071.1,417.9z"/>
		</g>
		<path clip-path="url(#SVGID_7_)" fill="#336667" d="M1889.8,379.3c4.5-4.7-9.3-8.9-12.7-14.3c-10-16.2-5.5-38.6-14.7-55.6
			c-8.7-16-28-25.7-36.3-42.5c-7.7-15.8-6.9-35.4-14.7-51.3c-0.3-0.7-0.7-1.3-1-1.9c-16.4-29.9-59.7-38.4-95.5-18.1
			c-36.1,20.5-52,62-35.5,92.4c10,18.4,36.2,23.3,43.5,42.6c6.3,16.6,0.1,37.7,8.5,53.1c6.2,11.3,15.6,15.3,25.3,22.7
			c10.8,8.1,17.2,22.7,19.5,35.7c0.4,2.2,0.7,4.3,0.9,6.5c0,0,20-9.7,40.2-62.6C1828.6,387.1,1870,400,1889.8,379.3z"/>
		<path opacity="0.52" clip-path="url(#SVGID_7_)" fill="#85C87F" stroke="#336667" stroke-width="14" stroke-miterlimit="10" d="
			M1783.2-373.2c-10.2-53.7-70.3-92.2-123.3-79.1c-17.4,4.3-33.4,13.2-50.7,17.9c-57.7,15.7-128.4-14.2-174.4,24
			c-25.4-15.3-57.7-18.6-85.6-8.7c-20.7-65.1-115.6-91-166.5-45.5c-22.7-16.4-55.2-17.8-79.2-3.3c-30.2-39.1-85.9-62-131-41.7
			c-45.1,20.3-61.2,91.4-21.7,121.1c-13.3-24.2-28.2-50-53.3-61.7c-25.1-11.7-62.4,0-65.5,27.5c-37.5-22.4-85.6,11-105.1,50.1
			c-12,24.1-18.1,54.1-4.6,77.4c13.5,23.3,52.6,30.3,66.8,7.4c-35.1,32-27.6,98.1,13.8,121.4c-16.4,27.6-32.7,55.1-49.1,82.7
			c-23.3,18.4-46.6,36.9-70,55.3c-24.6,19.4-50,39.9-63,68.5s-8.7,67.4,17.7,84.3c28,17.8,71.6-3,75.4-36
			c-9,24.8-3.2,54.3,14.5,73.8c-60.4,29.3-75.4,123-27,169.6c-13.8-10.7-34.5-2.5-46.9,9.8c-12.4,12.3-21.1,28.6-35.8,38
			c-7.8,5-16.9,7.7-24.8,12.6c-25.2,15.5-32.4,53.8-14.5,77.4c10.6,14.1,27.4,21.9,43.4,29.2c18.3,8.3,37.3,16.8,57.3,16.8
			c20.1,0,41.6-11,47.3-30.3c35.8,34.8,53.3,91.7,100.6,107.7c32.8,11.1,72.6-5.3,88.1-36.4c-0.6,21.8,14.5,43,35.2,49.7
			s45.4-1.7,57.6-19.7c7.1,18.9,21.9,34.8,40.2,43.2c51.8-11.1,95.8-52.6,110-103.6c0.3,25.5,25.5,45.1,50.8,48.3
			c25.3,3.2,50.4-5.8,74.3-14.7c39.5-14.6,87.2-42.9,78.8-84.2c17.2,40,77.8,52,108.9,21.6c28.3,32.4,82.2,21.7,117.7-2.7
			c35.4-24.4,64.3-59.8,104.8-74.3c-7.3,32.2,36.8,56.6,67.2,43.7c30.4-12.8,46.1-46.3,55.6-77.9c30.7,5.6,63.9,6.2,91.3-8.5
			s46.4-48.6,35.8-77.9c13.5-0.4,26.9-4.5,38.3-11.8c23,35.8,80.6,42,110.8,12c-16.5,39.4,7.5,90.5,48.4,102.9
			c40.9,12.4,89.3-16.8,97.4-58.7c6-31.1-7.5-62.4-22.5-90.4c34.5-12.4,69.6-35.5,77.4-71.4s-31-77.9-63.4-60.7
			c9.9-45-16-95.3-58.3-113.4c-16.8-7.2-37.3-11.1-46.3-27c-4.3-7.5-5.1-16.3-6.8-24.7c-10.5-51.1-61-90.9-113.2-89.2
			c5.6-48.5-26.9-98.8-73.5-113.6C1929.3-319.5,1856-381.6,1783.2-373.2z"/>
		<path clip-path="url(#SVGID_7_)" fill="#336667" d="M1778,882l-9,55.5l136.5,72.5l60.5-56c0,0-15.6-47.4-64-65
			c-8.5-3-61.5-21.9-112.2,17.5C1786.5,898.5,1778,882,1778,882z"/>
		<path opacity="0.52" clip-path="url(#SVGID_7_)" fill="#85C87F" stroke="#336667" stroke-width="14" stroke-miterlimit="10" d="
			M672.9,1049.1c4.7,31.6,9.7,64.3,26.7,91.4s49.3,47.3,80.4,40.1c-7.8,29.9,1.9,63.8,24.3,85.1c22.5,21.3,56.8,29.1,86.3,19.6
			c-19.7,58.8,35.3,128.7,97,123.6c-0.6,50.5,63.9,88.6,107.8,63.6c-1.8,61.1,52.1,118.3,113.1,120.1c7.8,18.8,24,34,43.3,40.5
			c-30,44.8,1.1,112.7,52.2,129.7c51.2,17,109.6-9.3,142.1-52.3c3.5,22.5,21,42.2,43,48.3c21.9,6.1,47.1-1.7,61.7-19.2
			c9.7,25.9,37.9,43.6,65.5,41s52-25.3,56.5-52.6c40.5,2.9,82-12.3,111.1-40.7c15-14.6,28.2-33.4,48.5-38.4
			c17.8-4.4,36,3.2,53.9,6.8c68.5,13.9,142.9-40.3,150.7-109.7c31.1,9.3,67.3-17.5,67.5-49.9c0.2-32.4-35.8-59.6-67-50.6
			c34,2.9,68.9-16.2,84.7-46.4c32.6,18.8,81-6.6,83.8-44.2c2.9-37.6-41-70.1-76.1-56.4c41.3-28,47.9-95.1,12.8-130.6
			c-35.1-35.5-102.3-29.6-130.7,11.4c14.6-49.9,6.4-106.1-21.8-149.7c-4.1-6.4-8.7-12.6-11.5-19.7c-4-10.1-4.1-21.3-5.8-32.1
			c-5.9-39.2-34.1-74.3-71-88.6c-37-14.4-81.4-7.4-112.2,17.5c-4.3-31.1-38.7-54.5-69.2-47c5.4-37-40.2-58.2-76.6-66.8
			c-26.3-6.2-52.7-12.5-79.7-13.5c-30.1-1.1-59.9,4.4-89.9,6.6c23.1-13.4,16.7-52.2-6.1-66.2s-52.3-9.1-77.2,0.4
			c-24.9,9.6-48.6,23.5-75,27c-40.9-41.8-112-49.5-160.9-17.5c-30.9-31.3-76.8-46.9-120.4-40.9c-43.5,6-83.6,33.4-104.8,71.9
			c-65.4-36.1-156.8-13.4-197.7,49.1c-5.4,8.2-10.2,17.2-18.1,23c-9.4,6.8-21.6,8-32.9,10.8c-44.6,11.1-79.3,53.8-81.2,99.7
			C598.2,989.1,629.3,1034.4,672.9,1049.1z"/>
		<g opacity="0.75" clip-path="url(#SVGID_7_)">
			<g>
				<path fill="none" stroke="#FFFFFF" stroke-width="20" stroke-miterlimit="10" d="M2006.9,757.9c-34.1,16-74.8,45.4-106.3,99.3"
					/>
				<g>
					<polygon fill="#FFFFFF" points="2074.9,738.9 1967.9,728.7 2002.2,760.8 1991.3,806.5 					"/>
				</g>
			</g>
		</g>
		<g opacity="0.75" clip-path="url(#SVGID_7_)">
			<g>
				<path fill="none" stroke="#FFFFFF" stroke-width="20" stroke-miterlimit="10" d="M1952.1,551.9c-36.2-10.4-80.9-33.1-120.5-81.4
					"/>
				<g>
					<polygon fill="#FFFFFF" points="2022.2,560 1929.1,506.3 1947,549.8 1918.1,586.9 					"/>
				</g>
			</g>
		</g>
		<g clip-path="url(#SVGID_7_)">
			<path fill="#CF96C3" stroke="#B163A8" stroke-width="6" stroke-miterlimit="10" d="M2226,1057.9c6.6,0,59.6,0,59.6,0
				c1.2,0,2.1,1.4,2.1,3.2v66c0,1.5-0.7,2.8-1.7,3.1l-59,18.4c-18.4,5.7-37.3,5.7-55.7,0l-59-18.4c-1-0.3-1.7-1.6-1.7-3.1v-66
				c0-1.7,1-3.2,2.1-3.2c0,0,44.3,0,55.6,0C2181,1015,2157,969,2157,969S2205,974.7,2226,1057.9z"/>
			<g>
				<g>
					<path fill="#E8E8E8" d="M2177.4,1113.6l-2.4-8h-12.3l-2.4,8h-7.7l11.9-33.8h8.7l11.9,33.8H2177.4z M2173.3,1099.6
						c-2.3-7.3-3.5-11.4-3.8-12.3c-0.3-1-0.5-1.7-0.6-2.3c-0.5,2-2,6.8-4.4,14.6H2173.3z"/>
					<path fill="#E8E8E8" d="M2202.4,1113.6h-7.1v-27.8h-9.2v-5.9h25.5v5.9h-9.2V1113.6z"/>
					<path fill="#E8E8E8" d="M2240,1090.4c0,3.6-1.1,6.4-3.4,8.3c-2.3,1.9-5.5,2.9-9.7,2.9h-3.1v12h-7.1v-33.7h10.8
						c4.1,0,7.2,0.9,9.3,2.6C2238.9,1084.3,2240,1086.9,2240,1090.4z M2223.9,1095.8h2.4c2.2,0,3.8-0.4,4.9-1.3
						c1.1-0.9,1.6-2.1,1.6-3.8c0-1.7-0.5-2.9-1.4-3.7c-0.9-0.8-2.3-1.2-4.3-1.2h-3.3V1095.8z"/>
				</g>
			</g>
		</g>
	</g>
	<g clip-path="url(#SVGID_2_)">
		<defs>
			<rect id="SVGID_9_" x="772" y="-5.1" width="776" height="1314.1"/>
		</defs>
		<clipPath id="SVGID_10_">
			<use xlink:href="#SVGID_9_"  overflow="visible"/>
		</clipPath>
		<linearGradient id="SVGID_11_" gradientUnits="userSpaceOnUse" x1="1100.6123" y1="32.7909" x2="1213.2122" y2="1186.0863">
			<stop  offset="0" style="stop-color:#DDBF6B"/>
			<stop  offset="1" style="stop-color:#BC878E"/>
		</linearGradient>
		<rect x="773" clip-path="url(#SVGID_10_)" fill="url(#SVGID_11_)" width="777" height="1312.7"/>
		<path clip-path="url(#SVGID_10_)" fill="#85C87F" stroke="#336667" stroke-width="14" stroke-miterlimit="10" d="M94.3,643.2
			c-4.5,30,16.3,57.4,23.2,86.9c12.5,54-22.4,106.8-31.4,161.5c-7.6,46.8,4.1,94.7,21.8,138.7c29.3,72.9,75.4,139,133.7,191.7
			c78.6,71.2,176.8,116.6,274,159c25.7,11.2,52.3,22.5,80.3,23.5c66.5,2.5,120-50.9,180.1-79.6c26.5-12.6,55.3-20.8,79.4-37.6
			c49-34.1,68.5-96.1,84.9-153.5c-12,2.3-13.5-16.8-9.8-28.4c16.1-49.8,20.5-102.5,24.9-154.7c1.9-23.2,3.9-46.4,5.8-69.7
			c2.4-29,4.9-58,2.8-87c-2.4-33.9-10.6-69.2,1.7-100.8c15.7-40.6,63.7-73.6,51.8-115.5c-9.5-33.3-54.9-44.3-86.5-30
			c-31.6,14.3-52,44.9-70.8,74.1c-19.8-12.1-36.5-29.6-46.8-50.5c-33.5-68,6.1-147.8,7.6-223.6c2.2-110.8-92.2-214.8-202.7-223.4
			c-26.7-2.1-55.5,0.2-78.1-14.1c-19.3-12.3-29.8-34.1-42.7-53C439.2-29.1,317.3-59.9,218.4-26.3S45.3,95.9,12.3,195
			s-28.7,207.5-6,309.5c5.5,24.6,12.6,50.1,29.9,68.3s48,26.2,68.1,11.1C111.8,603,97.3,623,94.3,643.2z"/>
		<path clip-path="url(#SVGID_10_)" fill="#85C87F" stroke="#336667" stroke-width="8" stroke-miterlimit="10" d="M1133.2-263.7
			c-2.8-54.6-57.1-100.9-111.4-95.1c-17.8,1.9-34.9,8.5-52.7,10.8c-59.3,7.7-125.3-31.6-176.1,0c-23.1-18.6-54.6-26.3-83.7-20.4
			c-11.6-67.3-102.1-106-158.7-67.8c-20.2-19.4-52.3-25.2-78-14.1c-24.6-42.9-76.6-73.2-124-59.2s-73.1,82.2-38,117
			c-9.9-25.8-21.1-53.4-44.4-68.4s-61.8-8.5-68.7,18.3c-34.1-27.3-86.3-0.8-111,35.3c-15.2,22.2-25.3,51.1-15.1,76
			s48,37.2,65.1,16.4c-39.1,26.9-40.7,93.4-2.9,122.1c-20,25.1-39.9,50.2-59.9,75.3C48.3-102.4,22.7-87.3-3-72.2
			c-27,15.9-55,32.7-71.7,59.2s-17.8,65.6,6,85.9C-43.3,94.4,2.7,79.7,11,47.5c-12.2,23.3-10.5,53.3,4.3,75.1
			C-48.6,143.4-76.2,234.2-34.6,287c-12.2-12.5-33.9-7.2-47.8,3.3s-24.8,25.4-40.7,32.8c-8.4,3.9-17.8,5.4-26.3,9.1
			c-27,11.9-39.4,48.9-25,74.7c8.6,15.4,24.1,25.4,39,34.9c17,10.7,34.6,21.7,54.5,24.5c19.9,2.7,42.7-5.2,51-23.5
			c30.7,39.3,40.3,98.2,85,120.4c31,15.5,72.7,4.6,92.2-24c-3.5,21.5,8.5,44.6,28.1,54.1s45.2,4.5,59.8-11.7
			c4.4,19.7,16.9,37.5,34,48.3c52.8-3.9,102.1-39,123.1-87.6c-3.2,25.3,19.1,48.2,43.8,54.7c24.6,6.6,50.7,1.1,75.6-4.4
			c41.1-9.1,92.3-30.6,89.6-72.6c11.5,42,70,62.1,105,36.2c23.6,36,78.5,32.7,116.9,13.4S895,519,937,510.1
			c-11.6,30.9,28.8,61.1,60.6,52.5c31.9-8.6,52-39.5,65.7-69.5c29.6,9.7,62.4,14.9,91.6,4c29.2-10.8,52.6-41.8,46.1-72.3
			c13.4,1.5,27.3-0.8,39.5-6.4c17.9,38.6,74.1,52.6,108.1,27c-21.7,36.8-4.9,90.7,33.9,108.6c38.8,17.9,90.7-4.4,104.5-44.9
			c10.2-30,1.1-62.9-9.9-92.6c35.9-7.6,73.8-25.7,86.4-60.2s-20.1-81.4-54.5-68.8c15.9-43.3-2.8-96.6-42.3-120.3
			c-15.6-9.4-35.4-16.1-42.2-33.1c-3.2-8-2.8-16.8-3.4-25.4c-3.4-52.1-48-98.4-99.9-103.8c12.2-47.3-13.1-101.6-57.3-122.5
			C1270.5-190.5,1206.5-262.1,1133.2-263.7z"/>
		<path clip-path="url(#SVGID_10_)" fill="#85C87F" stroke="#336667" stroke-width="8" stroke-miterlimit="10" d="M-55.7,1094.2
			c8.9,30.7,18.2,62.4,38.6,87c20.4,24.6,55.1,40.3,85,29c-3.8,30.7,10.4,63,35.5,81s60.2,21.2,88.1,7.9
			c-11.6,60.9,52.2,122.9,112.7,109.5c6.1,50.1,75.2,79.3,115.4,48.6c6.3,60.8,67.4,110.3,128.2,104c10.2,17.6,28.3,30.5,48.3,34.3
			c-23.7,48.4,16.1,111.5,69.1,121.5c53,10,107.4-23.9,133.8-70.9c6.5,21.8,26.5,39,49,42.1s46.5-8,58.6-27.3
			c13,24.4,43.4,38.2,70.4,31.9c27-6.3,48.1-32.1,49-59.7c40.6-2.5,79.6-23.1,104.7-55.2c12.9-16.5,23.5-36.9,43-44.5
			c17-6.7,36.1-1.6,54.4-0.4c69.7,4.6,136.2-59,134.7-128.9c32,5.1,64.4-26.3,60.2-58.5c-4.2-32.2-43.4-54.3-73.1-41.2
			c34.1-1.6,66.1-25.2,77.7-57.3c34.8,14.3,79.3-17.4,77.2-55c-2.2-37.6-50-64-83-45.7c37.2-33.3,34.7-100.7-4.8-131.1
			c-39.5-30.5-105.3-15.7-128,28.8c7.8-51.4-7.8-106-41.6-145.5c-5-5.8-10.3-11.3-14.1-18c-5.3-9.5-6.9-20.5-10-31
			c-11.1-38.1-43.7-69.1-82.2-78.4c-38.6-9.3-81.7,3.5-108.9,32.4c-8.4-30.3-45.6-48.8-74.9-37.4c0.4-37.4-47.6-52.3-84.8-56
			c-26.9-2.7-53.9-5.3-80.8-2.7c-29.9,2.9-58.8,12.4-88.2,18.6c21.1-16.3,9.6-54-14.8-64.8c-24.4-10.8-53-2.1-76.4,10.7
			s-45,29.8-70.7,36.8c-46.1-36-117.6-34.1-161.8,4.2c-34.8-26.9-82.4-36.2-124.7-24.5s-78.4,44.3-94.3,85.2
			c-69.6-27-157.2,7.7-189.4,75c-4.2,8.9-7.8,18.4-14.9,25.2c-8.4,8-20.3,10.8-31.1,15.1c-42.7,17-71.4,63.9-67.1,109.6
			C-137.8,1044.8-100.8,1085.5-55.7,1094.2z"/>
		<g clip-path="url(#SVGID_10_)">
			<path fill="#336667" d="M1165.1,890.3c-1.1,1.2-3.2,1.7-4.8,1.1l-135.1-54.6c-1.5-0.6-2.8-2.5-2.8-4.1l0.1-40.3
				c0-1.7,0.7-1.8,1.5-0.4l8,13.8c0.8,1.4,2.3,1.5,3.2,0.1l95.2-32.8c1.6-0.6,4.2-1.1,5.8-1.1l81.5,57.9c1.3,1,1.5,2.8,0.3,4
				L1165.1,890.3z"/>
		</g>
		<polygon clip-path="url(#SVGID_10_)" fill="#FFFFFF" points="1145.3,428.4 1135.3,566.3 1231.8,474.7 1174.5,594.8 1331,567 
			1189.5,641 1306.5,704.5 1174.5,687.2 1283,849 1135.3,715.7 1111,846.6 1086.7,715.7 973,829 1047.5,687.2 879,723 1032.5,641 
			915.5,577.5 1047.5,594.8 954.9,476.4 1086.7,566.3 		"/>
		<g clip-path="url(#SVGID_10_)">
			<path fill="#D1D3D4" d="M1048.5,815.1c-1.5-0.7-2.6-2.5-2.4-4.2l11.2-111.9c0.2-1.6,1.6-3.3,3.2-3.6l109.8-24
				c1.6-0.4,3.6,0.5,4.4,2l56.7,97.1c0.8,1.4,0.6,3.6-0.5,4.8l-74.8,83.9c-1.1,1.2-3.2,1.7-4.7,1L1048.5,815.1z"/>
			<path fill="none" stroke="#939598" stroke-width="14" stroke-miterlimit="10" d="M1048.5,815.1c-1.5-0.7-2.6-2.5-2.4-4.2
				l11.2-111.9c0.2-1.6,1.6-3.3,3.2-3.6l109.8-24c1.6-0.4,3.6,0.5,4.4,2l56.7,97.1c0.8,1.4,0.6,3.6-0.5,4.8l-74.8,83.9
				c-1.1,1.2-3.2,1.7-4.7,1L1048.5,815.1z"/>
		</g>
		<g clip-path="url(#SVGID_10_)">
			<path fill="#336667" d="M1008.5,555.1c0.1-2.1,0.2-4.3,0.1-6.5c-0.4-13.3-4.6-28.6-14-38.2c-8.6-8.7-17.3-14.1-21.7-26.2
				c-6-16.5,3.3-36.5-0.5-53.8c-4.4-20.2-29.6-29-36.7-48.6c-11.9-32.6,10-71.2,48.8-86.2c38.4-14.8,80,0,91.8,32
				c0.3,0.7,0.5,1.4,0.7,2.1c5.4,16.9,1.6,36.2,6.9,53c5.7,17.8,23.4,30.2,29.6,47.4c6.6,18.1-1.2,39.7,6.3,57.2
				c2.5,5.8,6.3,11,10.4,16"/>
			<path fill="#EA6767" stroke="#B5474D" stroke-width="14" stroke-miterlimit="10" d="M1059.7,353.3c0.2,0.5,0.4,1.1,0.6,1.6
				c4.3,13.1,2.4,27.6,6.6,40.6c4.5,13.8,16.8,24.3,21.6,37.6c5.1,14.1,0.7,30.1,6.4,43.7c5.4,13,17.5,22.6,22.3,35.7
				c9.2,25.4-4.1,53.5-29.4,62.7c-25.4,9.2-53.5-4-62.7-29.4c-3.6-9.9-1.6-18.6-2.3-28.5c-0.7-10.1-4.1-22-10.8-29.8
				c-6.1-7.1-12.1-11.6-15.5-21.1c-4.6-12.9,0.8-27.5-2.4-40.8c-3.7-15.6-20.9-23.6-26.4-39c-9.2-25.4,4-53.5,29.4-62.7
				C1022.2,314.8,1050.6,328.3,1059.7,353.3z"/>
			<path fill="#D8C7DB" stroke="#AB82AF" stroke-width="14" stroke-miterlimit="10" d="M1054.4,612.8c-0.2,0.4-0.4,0.9-0.6,1.3
				c-3.3,6.8-7.7,13-9.9,20.3c-2.2,7.4-2.7,15.2-0.6,22.6c6,21,28,33.2,49,27.3c12.6-3.6,23.3-10.7,36.5-13.2
				c6.8-1.2,13.8-1.2,20.4-3c21-6,33.2-28,27.3-49c-5.5-19.1-24.4-23.5-37.8-35.3c-7.1-6.2-11.6-13.1-20.8-17
				c-9.1-3.8-19.3-4.5-28.8-1.8c-13.9,3.9-25.9,15.4-29.8,29.4C1057.7,600.9,1057,606.9,1054.4,612.8z"/>
		</g>
		<path opacity="0.52" clip-path="url(#SVGID_10_)" fill="#85C87F" stroke="#336667" stroke-width="14" stroke-miterlimit="10" d="
			M1133.2-263.7c-2.8-54.6-57.1-100.9-111.4-95.1c-17.8,1.9-34.9,8.5-52.7,10.8c-59.3,7.7-125.3-31.6-176.1,0
			c-23.1-18.6-54.6-26.3-83.7-20.4c-11.6-67.3-102.1-106-158.7-67.8c-20.2-19.4-52.3-25.2-78-14.1c-24.6-42.9-76.6-73.2-124-59.2
			s-73.1,82.2-38,117c-9.9-25.8-21.1-53.4-44.4-68.4s-61.8-8.5-68.7,18.3c-34.1-27.3-86.3-0.8-111,35.3
			c-15.2,22.2-25.3,51.1-15.1,76s48,37.2,65.1,16.4c-39.1,26.9-40.7,93.4-2.9,122.1c-20,25.1-39.9,50.2-59.9,75.3
			C48.3-102.4,22.7-87.3-3-72.2c-27,15.9-55,32.7-71.7,59.2s-17.8,65.6,6,85.9C-43.3,94.4,2.7,79.7,11,47.5
			c-12.2,23.3-10.5,53.3,4.3,75.1C-48.6,143.4-76.2,234.2-34.6,287c-12.2-12.5-33.9-7.2-47.8,3.3s-24.8,25.4-40.7,32.8
			c-8.4,3.9-17.8,5.4-26.3,9.1c-27,11.9-39.4,48.9-25,74.7c8.6,15.4,24.1,25.4,39,34.9c17,10.7,34.6,21.7,54.5,24.5
			c19.9,2.7,42.7-5.2,51-23.5c30.7,39.3,40.3,98.2,85,120.4c31,15.5,72.7,4.6,92.2-24c-3.5,21.5,8.5,44.6,28.1,54.1
			s45.2,4.5,59.8-11.7c4.4,19.7,16.9,37.5,34,48.3c52.8-3.9,102.1-39,123.1-87.6c-3.2,25.3,19.1,48.2,43.8,54.7
			c24.6,6.6,50.7,1.1,75.6-4.4c41.1-9.1,92.3-30.6,89.6-72.6c11.5,42,70,62.1,105,36.2c23.6,36,78.5,32.7,116.9,13.4
			S895,519,937,510.1c-11.6,30.9,28.8,61.1,60.6,52.5c31.9-8.6,52-39.5,65.7-69.5c29.6,9.7,62.4,14.9,91.6,4
			c29.2-10.8,52.6-41.8,46.1-72.3c13.4,1.5,27.3-0.8,39.5-6.4c17.9,38.6,74.1,52.6,108.1,27c-21.7,36.8-4.9,90.7,33.9,108.6
			c38.8,17.9,90.7-4.4,104.5-44.9c10.2-30,1.1-62.9-9.9-92.6c35.9-7.6,73.8-25.7,86.4-60.2s-20.1-81.4-54.5-68.8
			c15.9-43.3-2.8-96.6-42.3-120.3c-15.6-9.4-35.4-16.1-42.2-33.1c-3.2-8-2.8-16.8-3.4-25.4c-3.4-52.1-48-98.4-99.9-103.8
			c12.2-47.3-13.1-101.6-57.3-122.5C1270.5-190.5,1206.5-262.1,1133.2-263.7z"/>
		<path opacity="0.52" clip-path="url(#SVGID_10_)" fill="#85C87F" stroke="#336667" stroke-width="14" stroke-miterlimit="10" d="
			M-55.7,1094.2c8.9,30.7,18.2,62.4,38.6,87c20.4,24.6,55.1,40.3,85,29c-3.8,30.7,10.4,63,35.5,81s60.2,21.2,88.1,7.9
			c-11.6,60.9,52.2,122.9,112.7,109.5c6.1,50.1,75.2,79.3,115.4,48.6c6.3,60.8,67.4,110.3,128.2,104c10.2,17.6,28.3,30.5,48.3,34.3
			c-23.7,48.4,16.1,111.5,69.1,121.5c53,10,107.4-23.9,133.8-70.9c6.5,21.8,26.5,39,49,42.1s46.5-8,58.6-27.3
			c13,24.4,43.4,38.2,70.4,31.9c27-6.3,48.1-32.1,49-59.7c40.6-2.5,79.6-23.1,104.7-55.2c12.9-16.5,23.5-36.9,43-44.5
			c17-6.7,36.1-1.6,54.4-0.4c69.7,4.6,136.2-59,134.7-128.9c32,5.1,64.4-26.3,60.2-58.5c-4.2-32.2-43.4-54.3-73.1-41.2
			c34.1-1.6,66.1-25.2,77.7-57.3c34.8,14.3,79.3-17.4,77.2-55c-2.2-37.6-50-64-83-45.7c37.2-33.3,34.7-100.7-4.8-131.1
			c-39.5-30.5-105.3-15.7-128,28.8c7.8-51.4-7.8-106-41.6-145.5c-5-5.8-10.3-11.3-14.1-18c-5.3-9.5-6.9-20.5-10-31
			c-11.1-38.1-43.7-69.1-82.2-78.4c-38.6-9.3-81.7,3.5-108.9,32.4c-8.4-30.3-45.6-48.8-74.9-37.4c0.4-37.4-47.6-52.3-84.8-56
			c-26.9-2.7-53.9-5.3-80.8-2.7c-29.9,2.9-58.8,12.4-88.2,18.6c21.1-16.3,9.6-54-14.8-64.8c-24.4-10.8-53-2.1-76.4,10.7
			s-45,29.8-70.7,36.8c-46.1-36-117.6-34.1-161.8,4.2c-34.8-26.9-82.4-36.2-124.7-24.5s-78.4,44.3-94.3,85.2
			c-69.6-27-157.2,7.7-189.4,75c-4.2,8.9-7.8,18.4-14.9,25.2c-8.4,8-20.3,10.8-31.1,15.1c-42.7,17-71.4,63.9-67.1,109.6
			C-137.8,1044.8-100.8,1085.5-55.7,1094.2z"/>
		<g opacity="0.75" clip-path="url(#SVGID_10_)">
			<g>
				<path fill="none" stroke="#FFFFFF" stroke-width="20" stroke-miterlimit="10" d="M1427.7,684.9c-0.7-27.3-4.4-62.5-14.7-105.9"
					/>
				<g>
					<polygon fill="#FFFFFF" points="1420.7,755.1 1469.6,659.4 1427.1,679.5 1388.6,652.6 					"/>
				</g>
			</g>
		</g>
		<g opacity="0.75" clip-path="url(#SVGID_10_)">
			<g>
				<path fill="none" stroke="#FFFFFF" stroke-width="20" stroke-miterlimit="10" d="M1427.7,861.3c-0.7,27.3-4.4,62.5-14.7,105.9"
					/>
				<g>
					<polygon fill="#FFFFFF" points="1420.7,791 1388.6,893.6 1427.1,866.6 1469.6,886.7 					"/>
				</g>
			</g>
		</g>
	</g>
	<g clip-path="url(#SVGID_2_)">
		<g>
			<path fill="#6E6F71" d="M1380.5,1279c-149.1,0-298.3,0-447.4,0c-99.5-61.7-99.5-161.7,0-223.4c149.1,0,298.3,0,447.4,0
				C1479.9,1117.4,1479.9,1217.4,1380.5,1279z"/>
		</g>
		<g>
			<g>
				<path fill="#E8E8E8" d="M1088.8,1111.4h-19.4v-33.7h19.4v5.9h-12.3v7.4h11.4v5.9h-11.4v8.7h12.3V1111.4z"/>
				<path fill="#E8E8E8" d="M1125.8,1111.4h-9.1l-14.7-25.5h-0.2c0.3,4.5,0.4,7.7,0.4,9.6v15.9h-6.4v-33.7h9l14.6,25.2h0.2
					c-0.2-4.4-0.3-7.5-0.3-9.3v-16h6.4V1111.4z"/>
				<path fill="#E8E8E8" d="M1156.2,1111.4h-25.1v-4.6l16.2-23.2h-15.7v-5.9h24.2v4.6l-16.1,23.2h16.6V1111.4z"/>
				<path fill="#E8E8E8" d="M1172.1,1091.5l7-13.9h7.7l-11.2,20.6v13.1h-7.1v-12.9l-11.2-20.8h7.7L1172.1,1091.5z"/>
				<path fill="#E8E8E8" d="M1205.3,1111.4l-8.1-26.4h-0.2c0.3,5.4,0.4,9,0.4,10.8v15.7h-6.4v-33.7h9.7l8,25.8h0.1l8.5-25.8h9.7
					v33.7h-6.7v-16c0-0.8,0-1.6,0-2.6s0.1-3.6,0.3-7.8h-0.2l-8.7,26.4H1205.3z"/>
				<path fill="#E8E8E8" d="M1255,1111.4h-19.4v-33.7h19.4v5.9h-12.3v7.4h11.4v5.9h-11.4v8.7h12.3V1111.4z"/>
				<path fill="#E8E8E8" d="M936.1,1154.2c1.2,0,2.7-0.3,4.4-0.8v5.2c-1.8,0.8-3.9,1.2-6.5,1.2c-2.8,0-4.9-0.7-6.1-2.1
					s-1.9-3.6-1.9-6.4v-12.4h-3.4v-3l3.9-2.4l2-5.4h4.5v5.5h7.2v5.3h-7.2v12.4c0,1,0.3,1.7,0.8,2.2
					C934.5,1154,935.2,1154.2,936.1,1154.2z"/>
				<path fill="#E8E8E8" d="M960.1,1133.1c1,0,1.7,0.1,2.4,0.2l-0.5,6.6c-0.6-0.2-1.3-0.2-2.1-0.2c-2.2,0-4,0.6-5.2,1.7
					c-1.3,1.2-1.9,2.8-1.9,4.8v13.1h-7v-25.8h5.3l1,4.3h0.3c0.8-1.4,1.9-2.6,3.2-3.5C957.1,1133.6,958.5,1133.1,960.1,1133.1z"/>
				<path fill="#E8E8E8" d="M983.6,1159.4l-1.4-3.5H982c-1.2,1.5-2.4,2.5-3.7,3.1s-2.9,0.9-4.9,0.9c-2.5,0-4.4-0.7-5.8-2.1
					c-1.4-1.4-2.1-3.4-2.1-6c0-2.7,1-4.8,2.9-6.1s4.8-2,8.7-2.2l4.5-0.1v-1.1c0-2.6-1.3-3.9-4-3.9c-2.1,0-4.5,0.6-7.3,1.9l-2.3-4.8
					c3-1.6,6.3-2.3,9.9-2.3c3.5,0,6.1,0.8,8,2.3c1.8,1.5,2.8,3.8,2.8,6.9v17.2H983.6z M981.5,1147.4l-2.7,0.1
					c-2,0.1-3.6,0.4-4.6,1.1s-1.5,1.7-1.5,3.1c0,2,1.1,3,3.4,3c1.6,0,2.9-0.5,3.9-1.4s1.5-2.2,1.5-3.7V1147.4z"/>
				<path fill="#E8E8E8" d="M1019.5,1159.4h-7v-15.1c0-1.9-0.3-3.3-1-4.2c-0.7-0.9-1.7-1.4-3.2-1.4c-2,0-3.4,0.7-4.3,2
					s-1.3,3.5-1.3,6.5v12.1h-7v-25.8h5.4l0.9,3.3h0.4c0.8-1.2,1.9-2.2,3.2-2.8c1.4-0.6,2.9-1,4.7-1c3,0,5.3,0.8,6.8,2.4
					c1.6,1.6,2.3,4,2.3,7V1159.4z"/>
				<path fill="#E8E8E8" d="M1044.7,1151.7c0,2.6-0.9,4.7-2.8,6c-1.8,1.4-4.6,2.1-8.2,2.1c-1.9,0-3.5-0.1-4.8-0.4
					c-1.3-0.3-2.6-0.6-3.7-1.1v-5.8c1.3,0.6,2.8,1.1,4.4,1.5s3.1,0.6,4.3,0.6c2.6,0,3.8-0.7,3.8-2.2c0-0.6-0.2-1-0.5-1.3
					c-0.3-0.3-0.9-0.7-1.8-1.2c-0.8-0.4-1.9-0.9-3.3-1.5c-2-0.8-3.4-1.6-4.4-2.3s-1.6-1.5-2-2.4c-0.4-0.9-0.6-2-0.6-3.4
					c0-2.3,0.9-4.1,2.7-5.3s4.3-1.9,7.6-1.9c3.1,0,6.1,0.7,9.1,2l-2.1,5.1c-1.3-0.6-2.5-1-3.6-1.4s-2.3-0.5-3.4-0.5
					c-2.1,0-3.1,0.6-3.1,1.7c0,0.6,0.3,1.2,1,1.6c0.7,0.5,2.1,1.1,4.4,2.1c2,0.8,3.5,1.6,4.4,2.3c0.9,0.7,1.6,1.5,2.1,2.4
					C1044.5,1149.3,1044.7,1150.4,1044.7,1151.7z"/>
				<path fill="#E8E8E8" d="M1064.5,1138.9h-6.1v20.5h-7v-20.5h-3.9v-3.4l3.9-1.9v-1.9c0-2.9,0.7-5.1,2.2-6.4c1.4-1.4,3.8-2,6.9-2
					c2.4,0,4.6,0.4,6.5,1.1l-1.8,5.2c-1.4-0.4-2.7-0.7-3.9-0.7c-1,0-1.7,0.3-2.2,0.9c-0.4,0.6-0.7,1.3-0.7,2.3v1.6h6.1V1138.9z"/>
				<path fill="#E8E8E8" d="M1080.2,1159.8c-4.2,0-7.4-1.1-9.7-3.4c-2.3-2.3-3.5-5.5-3.5-9.7c0-4.3,1.1-7.7,3.2-10
					c2.2-2.4,5.1-3.5,9-3.5c3.6,0,6.5,1,8.5,3.1s3,4.9,3,8.6v3.4h-16.6c0.1,2,0.7,3.6,1.8,4.7c1.1,1.1,2.7,1.7,4.7,1.7
					c1.6,0,3-0.2,4.4-0.5c1.4-0.3,2.8-0.8,4.3-1.5v5.4c-1.2,0.6-2.5,1.1-3.9,1.4C1083.9,1159.7,1082.2,1159.8,1080.2,1159.8z
					 M1079.2,1138.1c-1.5,0-2.7,0.5-3.5,1.4c-0.8,0.9-1.3,2.3-1.5,4h9.9c0-1.7-0.5-3.1-1.4-4
					C1081.9,1138.6,1080.7,1138.1,1079.2,1138.1z"/>
				<path fill="#E8E8E8" d="M1110.8,1133.1c1,0,1.7,0.1,2.4,0.2l-0.5,6.6c-0.6-0.2-1.3-0.2-2.1-0.2c-2.2,0-4,0.6-5.2,1.7
					c-1.3,1.2-1.9,2.8-1.9,4.8v13.1h-7v-25.8h5.3l1,4.3h0.3c0.8-1.4,1.9-2.6,3.2-3.5C1107.7,1133.6,1109.2,1133.1,1110.8,1133.1z"/>
				<path fill="#E8E8E8" d="M1135.8,1151.7c0,2.6-0.9,4.7-2.8,6c-1.8,1.4-4.6,2.1-8.2,2.1c-1.9,0-3.5-0.1-4.8-0.4
					c-1.3-0.3-2.6-0.6-3.7-1.1v-5.8c1.3,0.6,2.8,1.1,4.4,1.5s3.1,0.6,4.3,0.6c2.6,0,3.8-0.7,3.8-2.2c0-0.6-0.2-1-0.5-1.3
					c-0.3-0.3-0.9-0.7-1.8-1.2c-0.8-0.4-1.9-0.9-3.3-1.5c-2-0.8-3.4-1.6-4.4-2.3s-1.6-1.5-2-2.4c-0.4-0.9-0.6-2-0.6-3.4
					c0-2.3,0.9-4.1,2.7-5.3s4.3-1.9,7.6-1.9c3.1,0,6.1,0.7,9.1,2l-2.1,5.1c-1.3-0.6-2.5-1-3.6-1.4s-2.3-0.5-3.4-0.5
					c-2.1,0-3.1,0.6-3.1,1.7c0,0.6,0.3,1.2,1,1.6c0.7,0.5,2.1,1.1,4.4,2.1c2,0.8,3.5,1.6,4.4,2.3c0.9,0.7,1.6,1.5,2.1,2.4
					C1135.6,1149.3,1135.8,1150.4,1135.8,1151.7z"/>
				<path fill="#E8E8E8" d="M1167.8,1159.8c-3,0-5.4-1.1-7.1-3.3h-0.4c0.2,2.2,0.4,3.4,0.4,3.7v10.4h-7v-37.1h5.7l1,3.3h0.3
					c1.6-2.6,4.1-3.8,7.3-3.8c3,0,5.4,1.2,7.1,3.5c1.7,2.4,2.6,5.6,2.6,9.8c0,2.8-0.4,5.1-1.2,7.2c-0.8,2-2,3.6-3.4,4.6
					S1169.8,1159.8,1167.8,1159.8z M1165.7,1138.7c-1.7,0-3,0.5-3.8,1.6c-0.8,1.1-1.2,2.8-1.2,5.3v0.8c0,2.8,0.4,4.8,1.2,5.9
					s2.1,1.8,3.9,1.8c3.2,0,4.7-2.6,4.7-7.8c0-2.5-0.4-4.4-1.2-5.7C1168.6,1139.4,1167.3,1138.7,1165.7,1138.7z"/>
				<path fill="#E8E8E8" d="M1207.3,1159.4h-7v-15.1c0-3.7-1.4-5.6-4.2-5.6c-2,0-3.4,0.7-4.3,2s-1.3,3.5-1.3,6.5v12.1h-7v-35.9h7
					v7.3c0,0.6-0.1,1.9-0.2,4l-0.2,2.1h0.4c1.6-2.5,4.1-3.8,7.5-3.8c3,0,5.3,0.8,6.9,2.4c1.6,1.6,2.4,4,2.4,7V1159.4z"/>
				<path fill="#E8E8E8" d="M1237.9,1146.4c0,4.2-1.1,7.5-3.3,9.8c-2.2,2.4-5.3,3.6-9.2,3.6c-2.5,0-4.7-0.5-6.5-1.6
					c-1.9-1.1-3.3-2.6-4.4-4.7c-1-2-1.5-4.4-1.5-7.1c0-4.2,1.1-7.5,3.3-9.8c2.2-2.3,5.3-3.5,9.3-3.5c2.5,0,4.7,0.5,6.5,1.6
					s3.3,2.6,4.4,4.6S1237.9,1143.7,1237.9,1146.4z M1220.1,1146.4c0,2.6,0.4,4.5,1.3,5.8s2.2,2,4.1,2c1.9,0,3.2-0.6,4-1.9
					c0.8-1.3,1.2-3.2,1.2-5.8c0-2.6-0.4-4.5-1.2-5.7c-0.8-1.3-2.2-1.9-4.1-1.9c-1.9,0-3.2,0.6-4.1,1.9S1220.1,1143.9,1220.1,1146.4z
					"/>
				<path fill="#E8E8E8" d="M1261.7,1151.7c0,2.6-0.9,4.7-2.8,6c-1.8,1.4-4.6,2.1-8.2,2.1c-1.9,0-3.5-0.1-4.8-0.4
					c-1.3-0.3-2.6-0.6-3.7-1.1v-5.8c1.3,0.6,2.8,1.1,4.4,1.5s3.1,0.6,4.3,0.6c2.6,0,3.8-0.7,3.8-2.2c0-0.6-0.2-1-0.5-1.3
					c-0.3-0.3-0.9-0.7-1.8-1.2c-0.8-0.4-1.9-0.9-3.3-1.5c-2-0.8-3.4-1.6-4.4-2.3s-1.6-1.5-2-2.4c-0.4-0.9-0.6-2-0.6-3.4
					c0-2.3,0.9-4.1,2.7-5.3s4.3-1.9,7.6-1.9c3.1,0,6.1,0.7,9.1,2l-2.1,5.1c-1.3-0.6-2.5-1-3.6-1.4s-2.3-0.5-3.4-0.5
					c-2.1,0-3.1,0.6-3.1,1.7c0,0.6,0.3,1.2,1,1.6c0.7,0.5,2.1,1.1,4.4,2.1c2,0.8,3.5,1.6,4.4,2.3c0.9,0.7,1.6,1.5,2.1,2.4
					C1261.5,1149.3,1261.7,1150.4,1261.7,1151.7z"/>
				<path fill="#E8E8E8" d="M1281.4,1159.8c-3,0-5.4-1.1-7.1-3.3h-0.4c0.2,2.2,0.4,3.4,0.4,3.7v10.4h-7v-37.1h5.7l1,3.3h0.3
					c1.6-2.6,4.1-3.8,7.3-3.8c3,0,5.4,1.2,7.1,3.5c1.7,2.4,2.6,5.6,2.6,9.8c0,2.8-0.4,5.1-1.2,7.2c-0.8,2-2,3.6-3.4,4.6
					S1283.4,1159.8,1281.4,1159.8z M1279.3,1138.7c-1.7,0-3,0.5-3.8,1.6c-0.8,1.1-1.2,2.8-1.2,5.3v0.8c0,2.8,0.4,4.8,1.2,5.9
					s2.1,1.8,3.9,1.8c3.2,0,4.7-2.6,4.7-7.8c0-2.5-0.4-4.4-1.2-5.7C1282.2,1139.4,1281,1138.7,1279.3,1138.7z"/>
				<path fill="#E8E8E8" d="M1320.9,1159.4h-7v-15.1c0-3.7-1.4-5.6-4.2-5.6c-2,0-3.4,0.7-4.3,2s-1.3,3.5-1.3,6.5v12.1h-7v-35.9h7
					v7.3c0,0.6-0.1,1.9-0.2,4l-0.2,2.1h0.4c1.6-2.5,4.1-3.8,7.5-3.8c3,0,5.3,0.8,6.9,2.4c1.6,1.6,2.4,4,2.4,7V1159.4z"/>
				<path fill="#E8E8E8" d="M1344.5,1159.4l-1.4-3.5h-0.2c-1.2,1.5-2.4,2.5-3.7,3.1s-2.9,0.9-4.9,0.9c-2.5,0-4.4-0.7-5.8-2.1
					c-1.4-1.4-2.1-3.4-2.1-6c0-2.7,1-4.8,2.9-6.1s4.8-2,8.7-2.2l4.5-0.1v-1.1c0-2.6-1.3-3.9-4-3.9c-2.1,0-4.5,0.6-7.3,1.9l-2.3-4.8
					c3-1.6,6.3-2.3,9.9-2.3c3.5,0,6.1,0.8,8,2.3c1.8,1.5,2.8,3.8,2.8,6.9v17.2H1344.5z M1342.4,1147.4l-2.7,0.1
					c-2,0.1-3.6,0.4-4.6,1.1s-1.5,1.7-1.5,3.1c0,2,1.1,3,3.4,3c1.6,0,2.9-0.5,3.9-1.4s1.5-2.2,1.5-3.7V1147.4z"/>
				<path fill="#E8E8E8" d="M1367.5,1154.2c1.2,0,2.7-0.3,4.4-0.8v5.2c-1.8,0.8-3.9,1.2-6.5,1.2c-2.8,0-4.9-0.7-6.1-2.1
					s-1.9-3.6-1.9-6.4v-12.4h-3.4v-3l3.9-2.4l2-5.4h4.5v5.5h7.2v5.3h-7.2v12.4c0,1,0.3,1.7,0.8,2.2
					C1365.9,1154,1366.6,1154.2,1367.5,1154.2z"/>
				<path fill="#E8E8E8" d="M1388.8,1159.8c-4.2,0-7.4-1.1-9.7-3.4c-2.3-2.3-3.5-5.5-3.5-9.7c0-4.3,1.1-7.7,3.2-10
					c2.2-2.4,5.1-3.5,9-3.5c3.6,0,6.5,1,8.5,3.1s3,4.9,3,8.6v3.4h-16.6c0.1,2,0.7,3.6,1.8,4.7c1.1,1.1,2.7,1.7,4.7,1.7
					c1.6,0,3-0.2,4.4-0.5c1.4-0.3,2.8-0.8,4.3-1.5v5.4c-1.2,0.6-2.5,1.1-3.9,1.4C1392.6,1159.7,1390.8,1159.8,1388.8,1159.8z
					 M1387.8,1138.1c-1.5,0-2.7,0.5-3.5,1.4c-0.8,0.9-1.3,2.3-1.5,4h9.9c0-1.7-0.5-3.1-1.4-4
					C1390.5,1138.6,1389.3,1138.1,1387.8,1138.1z"/>
				<path fill="#E8E8E8" d="M935.2,1181.6v3.6l-4,1c0.7,1.2,1.1,2.4,1.1,3.9c0,2.8-1,4.9-2.9,6.5c-1.9,1.5-4.6,2.3-8,2.3l-1.3-0.1
					l-1-0.1c-0.7,0.6-1.1,1.2-1.1,1.8c0,1,1.3,1.5,3.9,1.5h4.4c2.8,0,5,0.6,6.5,1.8c1.5,1.2,2.2,3,2.2,5.3c0,3-1.3,5.3-3.8,7
					c-2.5,1.7-6.1,2.5-10.8,2.5c-3.6,0-6.3-0.6-8.2-1.9c-1.9-1.3-2.8-3-2.8-5.3c0-1.6,0.5-2.9,1.5-3.9s2.4-1.8,4.3-2.2
					c-0.7-0.3-1.4-0.8-1.9-1.5s-0.8-1.4-0.8-2.2c0-1,0.3-1.8,0.9-2.5c0.6-0.7,1.4-1.3,2.5-1.9c-1.4-0.6-2.4-1.5-3.2-2.8
					c-0.8-1.3-1.2-2.8-1.2-4.6c0-2.8,0.9-5,2.7-6.5c1.8-1.5,4.4-2.3,7.8-2.3c0.7,0,1.6,0.1,2.6,0.2s1.6,0.2,1.9,0.3H935.2z
					 M915.3,1211c0,1,0.5,1.7,1.4,2.3c0.9,0.6,2.2,0.8,3.9,0.8c2.5,0,4.5-0.3,5.9-1c1.4-0.7,2.1-1.6,2.1-2.8c0-1-0.4-1.6-1.3-2
					c-0.8-0.4-2.2-0.6-3.9-0.6h-3.6c-1.3,0-2.4,0.3-3.2,0.9C915.7,1209.2,915.3,1210,915.3,1211z M917.8,1190c0,1.4,0.3,2.5,1,3.3
					c0.6,0.8,1.6,1.2,2.9,1.2c1.3,0,2.3-0.4,2.9-1.2c0.6-0.8,0.9-1.9,0.9-3.3c0-3.1-1.3-4.7-3.8-4.7
					C919.1,1185.4,917.8,1186.9,917.8,1190z"/>
				<path fill="#E8E8E8" d="M953.8,1181.1c1,0,1.7,0.1,2.4,0.2l-0.5,6.6c-0.6-0.2-1.3-0.2-2.1-0.2c-2.2,0-4,0.6-5.2,1.7
					c-1.3,1.2-1.9,2.8-1.9,4.8v13.1h-7v-25.8h5.3l1,4.3h0.3c0.8-1.4,1.9-2.6,3.2-3.5C950.7,1181.6,952.2,1181.1,953.8,1181.1z"/>
				<path fill="#E8E8E8" d="M984.3,1194.4c0,4.2-1.1,7.5-3.3,9.8c-2.2,2.4-5.3,3.6-9.2,3.6c-2.5,0-4.7-0.5-6.5-1.6
					c-1.9-1.1-3.3-2.6-4.4-4.7c-1-2-1.5-4.4-1.5-7.1c0-4.2,1.1-7.5,3.3-9.8c2.2-2.3,5.3-3.5,9.3-3.5c2.5,0,4.7,0.5,6.5,1.6
					s3.3,2.6,4.4,4.6S984.3,1191.7,984.3,1194.4z M966.5,1194.4c0,2.6,0.4,4.5,1.3,5.8s2.2,2,4.1,2c1.9,0,3.2-0.6,4-1.9
					c0.8-1.3,1.2-3.2,1.2-5.8c0-2.6-0.4-4.5-1.2-5.7c-0.8-1.3-2.2-1.9-4.1-1.9c-1.9,0-3.2,0.6-4.1,1.9S966.5,1191.9,966.5,1194.4z"
					/>
				<path fill="#E8E8E8" d="M1008.4,1207.4l-0.9-3.3h-0.4c-0.8,1.2-1.8,2.1-3.2,2.8c-1.4,0.7-3,1-4.7,1c-3,0-5.3-0.8-6.8-2.4
					s-2.3-4-2.3-7v-16.8h7v15.1c0,1.9,0.3,3.3,1,4.2c0.7,0.9,1.7,1.4,3.2,1.4c2,0,3.4-0.7,4.3-2c0.9-1.3,1.3-3.5,1.3-6.5v-12.1h7
					v25.8H1008.4z"/>
				<path fill="#E8E8E8" d="M1035.3,1207.8c-3,0-5.4-1.1-7.1-3.3h-0.4c0.2,2.2,0.4,3.4,0.4,3.7v10.4h-7v-37.1h5.7l1,3.3h0.3
					c1.6-2.6,4.1-3.8,7.3-3.8c3,0,5.4,1.2,7.1,3.5c1.7,2.4,2.6,5.6,2.6,9.8c0,2.8-0.4,5.1-1.2,7.2c-0.8,2-2,3.6-3.4,4.6
					S1037.3,1207.8,1035.3,1207.8z M1033.2,1186.7c-1.7,0-3,0.5-3.8,1.6c-0.8,1.1-1.2,2.8-1.2,5.3v0.8c0,2.8,0.4,4.8,1.2,5.9
					s2.1,1.8,3.9,1.8c3.2,0,4.7-2.6,4.7-7.8c0-2.5-0.4-4.4-1.2-5.7C1036.1,1187.4,1034.9,1186.7,1033.2,1186.7z"/>
				<path fill="#E8E8E8" d="M1077.5,1186.9h-6.1v20.5h-7v-20.5h-3.9v-3.4l3.9-1.9v-1.9c0-2.9,0.7-5.1,2.2-6.4c1.4-1.4,3.8-2,6.9-2
					c2.4,0,4.6,0.4,6.5,1.1l-1.8,5.2c-1.4-0.4-2.7-0.7-3.9-0.7c-1,0-1.7,0.3-2.2,0.9c-0.4,0.6-0.7,1.3-0.7,2.3v1.6h6.1V1186.9z"/>
				<path fill="#E8E8E8" d="M1095.9,1181.1c1,0,1.7,0.1,2.4,0.2l-0.5,6.6c-0.6-0.2-1.3-0.2-2.1-0.2c-2.2,0-4,0.6-5.2,1.7
					c-1.3,1.2-1.9,2.8-1.9,4.8v13.1h-7v-25.8h5.3l1,4.3h0.3c0.8-1.4,1.9-2.6,3.2-3.5C1092.9,1181.6,1094.3,1181.1,1095.9,1181.1z"/>
				<path fill="#E8E8E8" d="M1126.4,1194.4c0,4.2-1.1,7.5-3.3,9.8c-2.2,2.4-5.3,3.6-9.2,3.6c-2.5,0-4.7-0.5-6.5-1.6
					c-1.9-1.1-3.3-2.6-4.4-4.7c-1-2-1.5-4.4-1.5-7.1c0-4.2,1.1-7.5,3.3-9.8c2.2-2.3,5.3-3.5,9.3-3.5c2.5,0,4.7,0.5,6.5,1.6
					s3.3,2.6,4.4,4.6S1126.4,1191.7,1126.4,1194.4z M1108.6,1194.4c0,2.6,0.4,4.5,1.3,5.8s2.2,2,4.1,2c1.9,0,3.2-0.6,4-1.9
					c0.8-1.3,1.2-3.2,1.2-5.8c0-2.6-0.4-4.5-1.2-5.7c-0.8-1.3-2.2-1.9-4.1-1.9c-1.9,0-3.2,0.6-4.1,1.9S1108.6,1191.9,1108.6,1194.4z
					"/>
				<path fill="#E8E8E8" d="M1155.3,1207.4h-7v-15.1c0-1.9-0.3-3.3-0.9-4.2c-0.6-0.9-1.6-1.4-2.9-1.4c-1.8,0-3.1,0.7-3.9,2
					c-0.8,1.3-1.2,3.5-1.2,6.5v12.1h-7v-25.8h5.4l0.9,3.3h0.4c0.7-1.2,1.7-2.1,3-2.8c1.3-0.7,2.8-1,4.5-1c3.9,0,6.5,1.3,7.8,3.8h0.6
					c0.7-1.2,1.7-2.1,3.1-2.8c1.3-0.7,2.9-1,4.6-1c2.9,0,5.1,0.8,6.6,2.2s2.2,3.9,2.2,7.2v16.8h-7.1v-15.1c0-1.9-0.3-3.3-0.9-4.2
					c-0.6-0.9-1.6-1.4-2.9-1.4c-1.7,0-3,0.6-3.9,1.8c-0.9,1.2-1.3,3.2-1.3,5.9V1207.4z"/>
				<path fill="#E8E8E8" d="M1208.9,1199.7c0,2.6-0.9,4.7-2.8,6c-1.8,1.4-4.6,2.1-8.2,2.1c-1.9,0-3.5-0.1-4.8-0.4
					c-1.3-0.3-2.6-0.6-3.7-1.1v-5.8c1.3,0.6,2.8,1.1,4.4,1.5s3.1,0.6,4.3,0.6c2.6,0,3.8-0.7,3.8-2.2c0-0.6-0.2-1-0.5-1.3
					c-0.3-0.3-0.9-0.7-1.8-1.2c-0.8-0.4-1.9-0.9-3.3-1.5c-2-0.8-3.4-1.6-4.4-2.3s-1.6-1.5-2-2.4c-0.4-0.9-0.6-2-0.6-3.4
					c0-2.3,0.9-4.1,2.7-5.3s4.3-1.9,7.6-1.9c3.1,0,6.1,0.7,9.1,2l-2.1,5.1c-1.3-0.6-2.5-1-3.6-1.4s-2.3-0.5-3.4-0.5
					c-2.1,0-3.1,0.6-3.1,1.7c0,0.6,0.3,1.2,1,1.6c0.7,0.5,2.1,1.1,4.4,2.1c2,0.8,3.5,1.6,4.4,2.3c0.9,0.7,1.6,1.5,2.1,2.4
					C1208.6,1197.3,1208.9,1198.4,1208.9,1199.7z"/>
				<path fill="#E8E8E8" d="M1232.6,1207.4l-0.9-3.3h-0.4c-0.8,1.2-1.8,2.1-3.2,2.8c-1.4,0.7-3,1-4.7,1c-3,0-5.3-0.8-6.8-2.4
					s-2.3-4-2.3-7v-16.8h7v15.1c0,1.9,0.3,3.3,1,4.2c0.7,0.9,1.7,1.4,3.2,1.4c2,0,3.4-0.7,4.3-2c0.9-1.3,1.3-3.5,1.3-6.5v-12.1h7
					v25.8H1232.6z"/>
				<path fill="#E8E8E8" d="M1259.7,1181.1c3,0,5.4,1.2,7.1,3.6s2.6,5.6,2.6,9.8c0,4.3-0.9,7.6-2.7,9.9s-4.2,3.5-7.3,3.5
					c-3,0-5.4-1.1-7.1-3.3h-0.5l-1.2,2.8h-5.4v-35.9h7v8.3c0,1.1-0.1,2.8-0.3,5.1h0.3C1254.1,1182.4,1256.5,1181.1,1259.7,1181.1z
					 M1257.5,1186.7c-1.7,0-3,0.5-3.8,1.6c-0.8,1.1-1.2,2.8-1.2,5.3v0.8c0,2.8,0.4,4.8,1.2,5.9s2.1,1.8,3.9,1.8c1.4,0,2.6-0.7,3.4-2
					c0.9-1.3,1.3-3.3,1.3-5.8c0-2.5-0.4-4.4-1.3-5.7C1260.1,1187.4,1259,1186.7,1257.5,1186.7z"/>
				<path fill="#E8E8E8" d="M1293.2,1199.7c0,2.6-0.9,4.7-2.8,6c-1.8,1.4-4.6,2.1-8.2,2.1c-1.9,0-3.5-0.1-4.8-0.4
					c-1.3-0.3-2.6-0.6-3.7-1.1v-5.8c1.3,0.6,2.8,1.1,4.4,1.5s3.1,0.6,4.3,0.6c2.6,0,3.8-0.7,3.8-2.2c0-0.6-0.2-1-0.5-1.3
					c-0.3-0.3-0.9-0.7-1.8-1.2c-0.8-0.4-1.9-0.9-3.3-1.5c-2-0.8-3.4-1.6-4.4-2.3s-1.6-1.5-2-2.4c-0.4-0.9-0.6-2-0.6-3.4
					c0-2.3,0.9-4.1,2.7-5.3s4.3-1.9,7.6-1.9c3.1,0,6.1,0.7,9.1,2l-2.1,5.1c-1.3-0.6-2.5-1-3.6-1.4s-2.3-0.5-3.4-0.5
					c-2.1,0-3.1,0.6-3.1,1.7c0,0.6,0.3,1.2,1,1.6c0.7,0.5,2.1,1.1,4.4,2.1c2,0.8,3.5,1.6,4.4,2.3c0.9,0.7,1.6,1.5,2.1,2.4
					C1293,1197.3,1293.2,1198.4,1293.2,1199.7z"/>
				<path fill="#E8E8E8" d="M1309.6,1202.2c1.2,0,2.7-0.3,4.4-0.8v5.2c-1.8,0.8-3.9,1.2-6.5,1.2c-2.8,0-4.9-0.7-6.1-2.1
					s-1.9-3.6-1.9-6.4v-12.4h-3.4v-3l3.9-2.4l2-5.4h4.5v5.5h7.2v5.3h-7.2v12.4c0,1,0.3,1.7,0.8,2.2
					C1307.9,1202,1308.7,1202.2,1309.6,1202.2z"/>
				<path fill="#E8E8E8" d="M1333.6,1181.1c1,0,1.7,0.1,2.4,0.2l-0.5,6.6c-0.6-0.2-1.3-0.2-2.1-0.2c-2.2,0-4,0.6-5.2,1.7
					c-1.3,1.2-1.9,2.8-1.9,4.8v13.1h-7v-25.8h5.3l1,4.3h0.3c0.8-1.4,1.9-2.6,3.2-3.5C1330.5,1181.6,1332,1181.1,1333.6,1181.1z"/>
				<path fill="#E8E8E8" d="M1357,1207.4l-1.4-3.5h-0.2c-1.2,1.5-2.4,2.5-3.7,3.1s-2.9,0.9-4.9,0.9c-2.5,0-4.4-0.7-5.8-2.1
					c-1.4-1.4-2.1-3.4-2.1-6c0-2.7,1-4.8,2.9-6.1s4.8-2,8.7-2.2l4.5-0.1v-1.1c0-2.6-1.3-3.9-4-3.9c-2.1,0-4.5,0.6-7.3,1.9l-2.3-4.8
					c3-1.6,6.3-2.3,9.9-2.3c3.5,0,6.1,0.8,8,2.3c1.8,1.5,2.8,3.8,2.8,6.9v17.2H1357z M1355,1195.4l-2.7,0.1c-2,0.1-3.6,0.4-4.6,1.1
					s-1.5,1.7-1.5,3.1c0,2,1.1,3,3.4,3c1.6,0,2.9-0.5,3.9-1.4s1.5-2.2,1.5-3.7V1195.4z"/>
				<path fill="#E8E8E8" d="M1380.1,1202.2c1.2,0,2.7-0.3,4.4-0.8v5.2c-1.8,0.8-3.9,1.2-6.5,1.2c-2.8,0-4.9-0.7-6.1-2.1
					s-1.9-3.6-1.9-6.4v-12.4h-3.4v-3l3.9-2.4l2-5.4h4.5v5.5h7.2v5.3h-7.2v12.4c0,1,0.3,1.7,0.8,2.2
					C1378.4,1202,1379.1,1202.2,1380.1,1202.2z"/>
				<path fill="#E8E8E8" d="M1401.4,1207.8c-4.2,0-7.4-1.1-9.7-3.4c-2.3-2.3-3.5-5.5-3.5-9.7c0-4.3,1.1-7.7,3.2-10
					c2.2-2.4,5.1-3.5,9-3.5c3.6,0,6.5,1,8.5,3.1s3,4.9,3,8.6v3.4h-16.6c0.1,2,0.7,3.6,1.8,4.7c1.1,1.1,2.7,1.7,4.7,1.7
					c1.6,0,3-0.2,4.4-0.5c1.4-0.3,2.8-0.8,4.3-1.5v5.4c-1.2,0.6-2.5,1.1-3.9,1.4C1405.1,1207.7,1403.4,1207.8,1401.4,1207.8z
					 M1400.4,1186.1c-1.5,0-2.7,0.5-3.5,1.4c-0.8,0.9-1.3,2.3-1.5,4h9.9c0-1.7-0.5-3.1-1.4-4
					C1403,1186.6,1401.9,1186.1,1400.4,1186.1z"/>
				<path fill="#E8E8E8" d="M1096.4,1250.2c1.2,0,2.7-0.3,4.4-0.8v5.2c-1.8,0.8-3.9,1.2-6.5,1.2c-2.8,0-4.9-0.7-6.1-2.1
					s-1.9-3.6-1.9-6.4v-12.4h-3.4v-3l3.9-2.4l2-5.4h4.5v5.5h7.2v5.3h-7.2v12.4c0,1,0.3,1.7,0.8,2.2
					C1094.8,1250,1095.5,1250.2,1096.4,1250.2z"/>
				<path fill="#E8E8E8" d="M1129.5,1242.4c0,4.2-1.1,7.5-3.3,9.8c-2.2,2.4-5.3,3.6-9.2,3.6c-2.5,0-4.7-0.5-6.5-1.6
					c-1.9-1.1-3.3-2.6-4.4-4.7c-1-2-1.5-4.4-1.5-7.1c0-4.2,1.1-7.5,3.3-9.8c2.2-2.3,5.3-3.5,9.3-3.5c2.5,0,4.7,0.5,6.5,1.6
					s3.3,2.6,4.4,4.6S1129.5,1239.7,1129.5,1242.4z M1111.7,1242.4c0,2.6,0.4,4.5,1.3,5.8s2.2,2,4.1,2c1.9,0,3.2-0.6,4-1.9
					c0.8-1.3,1.2-3.2,1.2-5.8c0-2.6-0.4-4.5-1.2-5.7c-0.8-1.3-2.2-1.9-4.1-1.9c-1.9,0-3.2,0.6-4.1,1.9S1111.7,1239.9,1111.7,1242.4z
					"/>
				<path fill="#E8E8E8" d="M1168.8,1255.4l-2.4-8H1154l-2.4,8h-7.7l11.9-33.8h8.7l11.9,33.8H1168.8z M1164.6,1241.4
					c-2.3-7.3-3.5-11.4-3.8-12.3c-0.3-1-0.5-1.7-0.6-2.3c-0.5,2-2,6.8-4.4,14.6H1164.6z"/>
				<path fill="#E8E8E8" d="M1208.7,1238.2c0,5.5-1.6,9.8-4.7,12.8c-3.2,3-7.7,4.4-13.7,4.4h-9.5v-33.7h10.6c5.5,0,9.8,1.5,12.8,4.4
					C1207.2,1228.9,1208.7,1233,1208.7,1238.2z M1201.2,1238.4c0-7.2-3.2-10.9-9.6-10.9h-3.8v22h3.1
					C1197.8,1249.5,1201.2,1245.8,1201.2,1238.4z"/>
				<path fill="#E8E8E8" d="M1238.9,1232.2c0,3.6-1.1,6.4-3.4,8.3c-2.3,1.9-5.5,2.9-9.7,2.9h-3.1v12h-7.1v-33.7h10.8
					c4.1,0,7.2,0.9,9.3,2.6S1238.9,1228.7,1238.9,1232.2z M1222.8,1237.5h2.4c2.2,0,3.8-0.4,4.9-1.3c1.1-0.9,1.6-2.1,1.6-3.8
					c0-1.7-0.5-2.9-1.4-3.7c-0.9-0.8-2.3-1.2-4.3-1.2h-3.3V1237.5z"/>
			</g>
		</g>
	</g>
	
		<line clip-path="url(#SVGID_2_)" fill="none" stroke="#E8E8E7" stroke-width="20" stroke-miterlimit="10" x1="773.1" y1="-8.9" x2="773.1" y2="1326.1"/>
	
		<line clip-path="url(#SVGID_2_)" fill="none" stroke="#E8E8E7" stroke-width="20" stroke-miterlimit="10" x1="1550.1" y1="-8.9" x2="1550.1" y2="1326.1"/>
</g>
</svg>
