<?xml version="1.0" encoding="utf-8"?>
<!-- Generator: Adobe Illustrator 18.1.1, SVG Export Plug-In . SVG Version: 6.00 Build 0)  -->
<svg version="1.1" xmlns="http://www.w3.org/2000/svg" xmlns:xlink="http://www.w3.org/1999/xlink" x="0px" y="0px"
	 viewBox="0 0 2328 1714" enable-background="new 0 0 2328 1714" xml:space="preserve">
<g id="Layer_2">
	<rect x="3.1" y="-1.6" fill="#CCCCCC" width="2328" height="1714"/>
	<linearGradient id="SVGID_1_" gradientUnits="userSpaceOnUse" x1="1078.8859" y1="-14.7733" x2="1236.3076" y2="1597.6068">
		<stop  offset="0" style="stop-color:#B9E0CC"/>
		<stop  offset="1" style="stop-color:#DDBF6B"/>
	</linearGradient>
	<rect x="0" y="0" fill="url(#SVGID_1_)" width="2328" height="1714"/>
	<line fill="none" stroke="#FFFFFF" stroke-width="11" stroke-miterlimit="10" x1="779.1" y1="0" x2="779.1" y2="1714"/>
	<line fill="none" stroke="#FFFFFF" stroke-width="11" stroke-miterlimit="10" x1="1555.1" y1="0" x2="1555.1" y2="1714"/>
</g>
<g id="Layer_1">
	<polygon opacity="0.51" fill="#FFFFFF" points="1052,583.9 1107.7,502.5 1105,601.1 1197.9,568.1 1137.8,646.2 1232.4,674.1 
		1137.8,702 1197.9,780.1 1105,747 1107.7,845.6 1052,764.3 996.2,845.6 999,747 906.1,780.1 966.2,702 871.6,674.1 966.2,646.2 
		906.1,568.1 999,601.1 996.2,502.5 	"/>
	<polygon opacity="0.51" fill="#FFFFFF" points="1882,474.6 1980.6,471.2 1899.6,527.5 1981.4,582.6 1882.8,580.6 1916.5,673.3 
		1837.9,613.7 1810.7,708.5 1782.2,614.1 1704.4,674.8 1736.8,581.6 1638.3,585 1719.3,528.7 1637.5,473.5 1736.1,475.6 
		1702.4,382.9 1781,442.5 1808.2,347.7 1836.7,442.1 1914.5,381.4 	"/>
	<g>
		<g>
			
				<linearGradient id="SVGID_2_" gradientUnits="userSpaceOnUse" x1="7079.0356" y1="-4663.3848" x2="7129.0835" y2="-4663.3848" gradientTransform="matrix(0.316 0.9488 -0.9488 0.316 -4863.4194 -5055.9233)">
				<stop  offset="1.335300e-03" style="stop-color:#FBB040"/>
				<stop  offset="0.5202" style="stop-color:#3399CC"/>
				<stop  offset="1" style="stop-color:#FBB040"/>
			</linearGradient>
			<path fill="url(#SVGID_2_)" d="M1840.1,225.6c0,0,8.7-4.2-3.9-6c0,0-24-2.4-34.6-3.4c-10.6-1.1-36.1-0.8-37-7.8
				c-1-1.4,6.7-10.7,6.9-12.3c0.2-1.6-14.6,6.6,17.1,9.6c31.7,3,59.6,2,59.5,11.5L1840.1,225.6z"/>
		</g>
		<g>
			
				<linearGradient id="SVGID_3_" gradientUnits="userSpaceOnUse" x1="7420.9932" y1="-3697.7695" x2="7476.4351" y2="-3697.7695" gradientTransform="matrix(0.4949 0.8689 -0.8689 0.4949 -5094.3677 -4460.7974)">
				<stop  offset="1.335300e-03" style="stop-color:#FBB040"/>
				<stop  offset="0.5202" style="stop-color:#3399CC"/>
				<stop  offset="1" style="stop-color:#FBB040"/>
			</linearGradient>
			<path fill="url(#SVGID_3_)" d="M1844,191.4c0,0,6.7-4.3-6.2-4.4c0,0-24.2,0.8-34.9,1.1c-10.7,0.3-35.6,3.9-38.6-2.8
				c-1.3-1.2,4-12.4,3.8-14c-0.2-1.6-12.4,8.4,19.6,7.2c32-1.2,57.8-6.1,60.5,3.3L1844,191.4z"/>
		</g>
		<g>
			
				<linearGradient id="SVGID_4_" gradientUnits="userSpaceOnUse" x1="7503.1973" y1="-3652.5557" x2="7555.3789" y2="-3652.5557" gradientTransform="matrix(0.4949 0.8689 -0.8689 0.4949 -5094.3677 -4460.7974)">
				<stop  offset="1.335300e-03" style="stop-color:#FBB040"/>
				<stop  offset="0.5202" style="stop-color:#3399CC"/>
				<stop  offset="1" style="stop-color:#FBB040"/>
			</linearGradient>
			<path fill="url(#SVGID_4_)" d="M1844,282.3c0,0,6.7-4.3-6.2-4.4c0,0-24.2,0.8-34.9,1.1c-10.7,0.3-35.6,3.9-38.6-2.8
				c-1.3-1.2,4-8.3,3.8-9.9c-0.2-1.6-12.4,5.3,19.6,4.1c32-1.2,57.8-6.1,60.5,3.3L1844,282.3z"/>
		</g>
		<g>
			
				<linearGradient id="SVGID_5_" gradientUnits="userSpaceOnUse" x1="7110.1396" y1="-4652.8677" x2="7161.1362" y2="-4652.8677" gradientTransform="matrix(0.316 0.9488 -0.9488 0.316 -4863.4194 -5055.9233)">
				<stop  offset="1.335300e-03" style="stop-color:#FBB040"/>
				<stop  offset="0.5202" style="stop-color:#3399CC"/>
				<stop  offset="1" style="stop-color:#FBB040"/>
			</linearGradient>
			<path fill="url(#SVGID_5_)" d="M1840.1,259.4c0,0,8.7-4.2-3.9-6c0,0-24-2.4-34.6-3.4c-10.6-1.1-36.1-0.8-37-7.8
				c-1-1.4,6.7-11.7,6.9-13.3c0.2-1.6-14.6,6.6,17.1,9.6c31.7,3,59.6,2,59.5,11.5L1840.1,259.4z"/>
		</g>
		<g>
			<linearGradient id="SVGID_6_" gradientUnits="userSpaceOnUse" x1="1763.4429" y1="228.3689" x2="1848.7952" y2="228.3689">
				<stop  offset="1.335300e-03" style="stop-color:#EF4136"/>
				<stop  offset="0.5202" style="stop-color:#47C8F5"/>
				<stop  offset="1" style="stop-color:#EF4136"/>
			</linearGradient>
			<path fill="url(#SVGID_6_)" d="M1846.5,212.5c-1.2-0.1-0.4,3.6-12.5,5.8c0,0-23.2,3.2-33.5,4.7s-38.4,4.9-37,10.6
				c-0.7,1.3,0.6,9.2,2.1,10.6c1.3,1.2-7.1-5.8,23.7-10c30.7-4.2,60.9-6.1,59.4-13.2C1848.7,221,1847.7,212.5,1846.5,212.5z"/>
		</g>
		<g>
			<linearGradient id="SVGID_7_" gradientUnits="userSpaceOnUse" x1="1763.4429" y1="194.6758" x2="1848.7952" y2="194.6758">
				<stop  offset="1.335300e-03" style="stop-color:#EF4136"/>
				<stop  offset="0.5202" style="stop-color:#47C8F5"/>
				<stop  offset="1" style="stop-color:#EF4136"/>
			</linearGradient>
			<path fill="url(#SVGID_7_)" d="M1846.5,178.8c-1.2-0.1-0.4,3.6-12.5,5.8c0,0-23.2,3.2-33.5,4.7s-38.4,4.9-37,10.6
				c-0.7,1.3,0.6,9.2,2.1,10.6c1.3,1.2-7.1-5.8,23.7-10s60.9-6.1,59.4-13.2C1848.7,187.3,1847.7,178.8,1846.5,178.8z"/>
		</g>
		<g>
			<linearGradient id="SVGID_8_" gradientUnits="userSpaceOnUse" x1="1762.5426" y1="169.3069" x2="1847.8949" y2="169.3069">
				<stop  offset="1.335300e-03" style="stop-color:#EF4136"/>
				<stop  offset="0.5202" style="stop-color:#47C8F5"/>
				<stop  offset="1" style="stop-color:#EF4136"/>
			</linearGradient>
			<path fill="url(#SVGID_8_)" d="M1845.6,152.9c-1.2-0.1-0.4,3.6-12.5,5.8c0,0-23.2,3.2-33.5,4.7c-10.3,1.5-38.4,4.9-37,10.6
				c-0.7,1.3,0.6,10.2,2.1,11.6c1.3,1.2-7.1-5.8,23.7-10c30.7-4.2,60.9-6.1,59.4-13.2C1847.8,162.4,1846.8,153,1845.6,152.9z"/>
		</g>
		<g>
			<linearGradient id="SVGID_9_" gradientUnits="userSpaceOnUse" x1="1762.8005" y1="287.1396" x2="1849.4722" y2="287.1396">
				<stop  offset="1.335300e-03" style="stop-color:#EF4136"/>
				<stop  offset="0.5202" style="stop-color:#47C8F5"/>
				<stop  offset="1" style="stop-color:#EF4136"/>
			</linearGradient>
			<path fill="url(#SVGID_9_)" d="M1847.7,272.9c-1.2-0.1-0.8,3.6-13,5.3c0,0-23.4,2.3-33.8,3.3s-38.8,3.3-37.8,9.1
				c-0.8,1.2,0.1,9.2,1.4,10.7c1.2,1.3-6.5-6.1,24.5-9c31-2.9,61.3-3.7,60.4-10.8C1849.5,281.4,1848.9,273,1847.7,272.9z"/>
		</g>
		<g>
			<linearGradient id="SVGID_10_" gradientUnits="userSpaceOnUse" x1="1763.4429" y1="262.0637" x2="1848.7952" y2="262.0637">
				<stop  offset="1.335300e-03" style="stop-color:#EF4136"/>
				<stop  offset="0.5202" style="stop-color:#47C8F5"/>
				<stop  offset="1" style="stop-color:#EF4136"/>
			</linearGradient>
			<path fill="url(#SVGID_10_)" d="M1846.5,246.2c-1.2-0.1-0.4,3.6-12.5,5.8c0,0-23.2,3.2-33.5,4.7c-10.3,1.5-38.4,4.9-37,10.6
				c-0.7,1.3,0.6,9.2,2.1,10.6c1.3,1.2-7.1-5.8,23.7-10s60.9-6.1,59.4-13.2C1848.7,254.7,1847.7,246.2,1846.5,246.2z"/>
		</g>
	</g>
	<g>
		<g>
			<linearGradient id="SVGID_11_" gradientUnits="userSpaceOnUse" x1="1043.2477" y1="485.2069" x2="1043.2477" y2="59.063">
				<stop  offset="0" style="stop-color:#ED1C24"/>
				<stop  offset="0.4095" style="stop-color:#F47746"/>
				<stop  offset="0.8151" style="stop-color:#FBB275"/>
				<stop  offset="1" style="stop-color:#FEC989"/>
			</linearGradient>
			
				<line fill="none" stroke="url(#SVGID_11_)" stroke-width="10" stroke-miterlimit="10" x1="1043.2" y1="449.9" x2="1043.2" y2="59.1"/>
			<g>
				<linearGradient id="SVGID_12_" gradientUnits="userSpaceOnUse" x1="1043.2502" y1="485.2071" x2="1043.2502" y2="59.0632">
					<stop  offset="0" style="stop-color:#ED1C24"/>
					<stop  offset="0.4095" style="stop-color:#F47746"/>
					<stop  offset="0.8151" style="stop-color:#FBB275"/>
					<stop  offset="1" style="stop-color:#FEC989"/>
				</linearGradient>
				<polygon fill="url(#SVGID_12_)" points="1043.2,485.2 1063.6,435.5 1043.2,447.3 1022.9,435.5 				"/>
			</g>
		</g>
	</g>
	<g>
		<g>
			<linearGradient id="SVGID_13_" gradientUnits="userSpaceOnUse" x1="950.5776" y1="482.6579" x2="950.5776" y2="123.7599">
				<stop  offset="0" style="stop-color:#ED1C24"/>
				<stop  offset="0.4095" style="stop-color:#F47746"/>
				<stop  offset="0.8151" style="stop-color:#FBB275"/>
				<stop  offset="1" style="stop-color:#FEC989"/>
			</linearGradient>
			
				<line fill="none" stroke="url(#SVGID_13_)" stroke-width="10" stroke-miterlimit="10" x1="994.3" y1="447.3" x2="906.9" y2="125.1"/>
			<g>
				<linearGradient id="SVGID_14_" gradientUnits="userSpaceOnUse" x1="990.5224" y1="482.6579" x2="990.5224" y2="123.7599">
					<stop  offset="0" style="stop-color:#ED1C24"/>
					<stop  offset="0.4095" style="stop-color:#F47746"/>
					<stop  offset="0.8151" style="stop-color:#FBB275"/>
					<stop  offset="1" style="stop-color:#FEC989"/>
				</linearGradient>
				<polygon fill="url(#SVGID_14_)" points="1003.6,481.3 1010.1,428 993.6,444.7 970.9,438.7 				"/>
			</g>
		</g>
	</g>
	<g>
		<g>
			<linearGradient id="SVGID_15_" gradientUnits="userSpaceOnUse" x1="1137.4124" y1="482.6229" x2="1137.4124" y2="123.7949">
				<stop  offset="0" style="stop-color:#ED1C24"/>
				<stop  offset="0.4095" style="stop-color:#F47746"/>
				<stop  offset="0.8151" style="stop-color:#FBB275"/>
				<stop  offset="1" style="stop-color:#FEC989"/>
			</linearGradient>
			
				<line fill="none" stroke="url(#SVGID_15_)" stroke-width="10" stroke-miterlimit="10" x1="1094.9" y1="447.2" x2="1179.9" y2="125.1"/>
			<g>
				<linearGradient id="SVGID_16_" gradientUnits="userSpaceOnUse" x1="1098.6301" y1="482.6229" x2="1098.6301" y2="123.7949">
					<stop  offset="0" style="stop-color:#ED1C24"/>
					<stop  offset="0.4095" style="stop-color:#F47746"/>
					<stop  offset="0.8151" style="stop-color:#FBB275"/>
					<stop  offset="1" style="stop-color:#FEC989"/>
				</linearGradient>
				<polygon fill="url(#SVGID_16_)" points="1085.9,481.3 1118.3,438.4 1095.6,444.7 1079,428.1 				"/>
			</g>
		</g>
	</g>
	<g>
		<g>
			
				<linearGradient id="SVGID_17_" gradientUnits="userSpaceOnUse" x1="6750.874" y1="-3166.3357" x2="6815.4341" y2="-3166.3357" gradientTransform="matrix(0.316 0.9488 -0.9488 0.316 -4863.4194 -5055.9233)">
				<stop  offset="1.335300e-03" style="stop-color:#333333"/>
				<stop  offset="0.5202" style="stop-color:#3399CC"/>
				<stop  offset="1" style="stop-color:#333333"/>
			</linearGradient>
			<path fill="url(#SVGID_17_)" d="M320.4,401.1c0,0,9.1-6.6-4.1-9.5c0,0-25.3-3.7-36.5-5.4c-11.2-1.7-38.1-1.3-39-12.3
				c-1-2.2,7.1-13.7,7.3-16.3c0.3-2.6-15.4,10.4,18,15.1s62.9,3.1,62.8,18.2L320.4,401.1z"/>
		</g>
		<g>
			
				<linearGradient id="SVGID_18_" gradientUnits="userSpaceOnUse" x1="6796.2075" y1="-2299.835" x2="6859.7715" y2="-2299.835" gradientTransform="matrix(0.4949 0.8689 -0.8689 0.4949 -5094.3677 -4460.7974)">
				<stop  offset="1.335300e-03" style="stop-color:#333333"/>
				<stop  offset="0.5202" style="stop-color:#3399CC"/>
				<stop  offset="1" style="stop-color:#333333"/>
			</linearGradient>
			<path fill="url(#SVGID_18_)" d="M324.6,347.1c0,0,7.1-6.7-6.5-7c0,0-25.5,1.3-36.8,1.8c-11.3,0.5-37.6,6.2-40.7-4.5
				c-1.4-1.9,4.3-14.8,4-17.4c-0.3-2.6-13.1,13.2,20.6,11.3c33.7-1.8,60.9-9.6,63.8,5.3L324.6,347.1z"/>
		</g>
		<g>
			
				<linearGradient id="SVGID_19_" gradientUnits="userSpaceOnUse" x1="6924.9326" y1="-2227.8369" x2="6987.7612" y2="-2227.8369" gradientTransform="matrix(0.4949 0.8689 -0.8689 0.4949 -5094.3677 -4460.7974)">
				<stop  offset="1.335300e-03" style="stop-color:#333333"/>
				<stop  offset="0.5202" style="stop-color:#3399CC"/>
				<stop  offset="1" style="stop-color:#333333"/>
			</linearGradient>
			<path fill="url(#SVGID_19_)" d="M324.6,494.4c0,0,7.1-6.7-6.5-7c0,0-25.5,1.3-36.8,1.8s-37.6,2.3-40.7-8.4
				c-1.4-1.9,4.3-9.9,4-12.5c-0.3-2.6-13.1,11.2,20.6,9.3c33.7-1.8,61.8-5.7,63.8,6.3L324.6,494.4z"/>
		</g>
		<g>
			
				<linearGradient id="SVGID_20_" gradientUnits="userSpaceOnUse" x1="6801.4644" y1="-3149.4873" x2="6866.0244" y2="-3149.4873" gradientTransform="matrix(0.316 0.9488 -0.9488 0.316 -4863.4194 -5055.9233)">
				<stop  offset="1.335300e-03" style="stop-color:#333333"/>
				<stop  offset="0.5202" style="stop-color:#3399CC"/>
				<stop  offset="1" style="stop-color:#333333"/>
			</linearGradient>
			<path fill="url(#SVGID_20_)" d="M320.4,454.4c0,0,9.1-6.6-4.1-9.5c0,0-25.3-3.7-36.5-5.4c-11.2-1.7-38.1-1.3-39-12.3
				c-1-2.2,7.1-13.7,7.3-16.3c0.3-2.6-15.4,10.4,18,15.1c33.4,4.8,62.9,3.1,62.8,18.2L320.4,454.4z"/>
		</g>
		<g>
			<path fill="#47C8F5" d="M327.3,385.1c-1.3-0.1-0.5,5.7-13.2,9.2c0,0-24.5,5.1-35.3,7.4c-10.8,2.3-40.5,7.7-39,16.7
				c-0.7,2,0.7,9.8,2.2,12c1.4,1.9-7.4-9.2,25-15.8c32.4-6.6,64.2-9.6,62.6-20.8C329.6,393.8,328.5,385.2,327.3,385.1z"/>
		</g>
		<g>
			<path fill="#47C8F5" d="M327.3,331.9c-1.3-0.1-0.5,5.7-13.2,9.2c0,0-24.5,5.1-35.3,7.4c-10.8,2.3-40.5,7.7-39,16.7
				c-0.7,2,0.7,9.8,2.2,12c1.4,1.9-7.4-9.2,25-15.8c32.4-6.6,64.2-9.6,62.6-20.8C329.6,340.6,328.5,332,327.3,331.9z"/>
		</g>
		<g>
			<path fill="#47C8F5" d="M326.3,292.7c-1.3-0.1-0.5,5.7-13.2,9.2c0,0-24.5,5.1-35.3,7.4c-10.8,2.3-40.5,7.7-39,16.7
				c-0.7,2,0.7,9.8,2.2,12c1.4,1.9-7.4-9.2,25-15.8c32.4-6.6,64.2-9.6,62.6-20.8C328.6,301.4,327.6,292.8,326.3,292.7z"/>
		</g>
		<g>
			<path fill="#47C8F5" d="M328.5,481.7c-1.3-0.2-0.8,5.7-13.7,8.4c0,0-24.7,3.6-35.7,5.3c-10.9,1.7-40.9,5.2-39.9,14.3
				c-0.8,2,0.1,9.9,1.5,12.1c1.3,2-6.9-9.6,25.9-14.2s64.7-5.8,63.7-17C330.3,490.5,329.8,481.9,328.5,481.7z"/>
		</g>
		<g>
			<path fill="#47C8F5" d="M327.3,438.3c-1.3-0.1-0.5,5.7-13.2,9.2c0,0-24.5,5.1-35.3,7.4c-10.8,2.3-40.5,7.7-39,16.7
				c-0.7,2,0.7,9.8,2.2,12c1.4,1.9-7.4-9.2,25-15.8c32.4-6.6,64.2-9.6,62.6-20.8C329.6,447,328.5,438.4,327.3,438.3z"/>
		</g>
	</g>
	<g>
		<g>
			<linearGradient id="SVGID_21_" gradientUnits="userSpaceOnUse" x1="281.7899" y1="686.3747" x2="281.7899" y2="533.3174">
				<stop  offset="0" style="stop-color:#76B4BE"/>
				<stop  offset="1" style="stop-color:#5D91C2"/>
			</linearGradient>
			
				<line fill="none" stroke="url(#SVGID_21_)" stroke-width="10" stroke-miterlimit="10" x1="281.8" y1="651.1" x2="281.8" y2="533.3"/>
			<g>
				<linearGradient id="SVGID_22_" gradientUnits="userSpaceOnUse" x1="281.7924" y1="686.3748" x2="281.7924" y2="533.3175">
					<stop  offset="0" style="stop-color:#76B4BE"/>
					<stop  offset="1" style="stop-color:#5D91C2"/>
				</linearGradient>
				<polygon fill="url(#SVGID_22_)" points="281.8,686.4 302.1,636.6 281.8,648.4 261.5,636.6 				"/>
			</g>
		</g>
	</g>
	<linearGradient id="SVGID_23_" gradientUnits="userSpaceOnUse" x1="281.7899" y1="290.4071" x2="281.7899" y2="182.2823">
		<stop  offset="0" style="stop-color:#76B4BE"/>
		<stop  offset="1" style="stop-color:#5D91C2"/>
	</linearGradient>
	
		<line fill="none" stroke="url(#SVGID_23_)" stroke-width="10" stroke-miterlimit="10" x1="281.8" y1="290.4" x2="281.8" y2="182.3"/>
	<g>
		<g>
			<linearGradient id="SVGID_24_" gradientUnits="userSpaceOnUse" x1="1679.1147" y1="416.1761" x2="1873.1147" y2="610.1761">
				<stop  offset="1.335300e-03" style="stop-color:#EF4136"/>
				<stop  offset="1" style="stop-color:#47C8F5"/>
			</linearGradient>
			
				<line fill="none" stroke="url(#SVGID_24_)" stroke-width="10" stroke-miterlimit="10" x1="1784.9" y1="350.7" x2="1784.9" y2="693.4"/>
			<g>
				<linearGradient id="SVGID_25_" gradientUnits="userSpaceOnUse" x1="1764.9221" y1="330.3687" x2="1958.9221" y2="524.3687">
					<stop  offset="1.335300e-03" style="stop-color:#EF4136"/>
					<stop  offset="1" style="stop-color:#47C8F5"/>
				</linearGradient>
				<polygon fill="url(#SVGID_25_)" points="1784.9,315.4 1764.6,365.1 1784.9,353.3 1805.3,365.1 				"/>
			</g>
		</g>
	</g>
	<g>
		<g>
			<linearGradient id="SVGID_26_" gradientUnits="userSpaceOnUse" x1="1724.1193" y1="416.1761" x2="1918.1193" y2="610.1761">
				<stop  offset="1.335300e-03" style="stop-color:#EF4136"/>
				<stop  offset="1" style="stop-color:#47C8F5"/>
			</linearGradient>
			
				<line fill="none" stroke="url(#SVGID_26_)" stroke-width="10" stroke-miterlimit="10" x1="1829.9" y1="350.7" x2="1829.9" y2="693.4"/>
			<g>
				<linearGradient id="SVGID_27_" gradientUnits="userSpaceOnUse" x1="1809.9266" y1="330.3687" x2="2003.9266" y2="524.3687">
					<stop  offset="1.335300e-03" style="stop-color:#EF4136"/>
					<stop  offset="1" style="stop-color:#47C8F5"/>
				</linearGradient>
				<polygon fill="url(#SVGID_27_)" points="1829.9,315.4 1809.6,365.1 1829.9,353.3 1850.3,365.1 				"/>
			</g>
		</g>
	</g>
	<g>
		<g>
			<path fill="#6E6F71" d="M751.4,340.7l-156.1,23.6c-25.3,3.8-51.7,3.8-77,0l-156.1-23.6V230.8l156.1-23.6c25.3-3.8,51.7-3.8,77,0
				l156.1,23.6V340.7z"/>
		</g>
		<g>
			<path fill="#FFFFFF" d="M437.7,259.3c0,3.8-1.2,6.6-3.5,8.6c-2.3,2-5.7,3-10,3H421v12.4h-7.4v-34.9h11.2c4.2,0,7.5,0.9,9.7,2.7
				C436.6,253,437.7,255.7,437.7,259.3z M421,264.9h2.4c2.3,0,4-0.4,5.1-1.3c1.1-0.9,1.7-2.2,1.7-3.9c0-1.7-0.5-3-1.4-3.8
				s-2.4-1.2-4.5-1.2H421V264.9z"/>
			<path fill="#FFFFFF" d="M472.9,283.4h-7.4v-15.1h-13.8v15.1h-7.4v-34.9h7.4v13.7h13.8v-13.7h7.4V283.4z"/>
			<path fill="#FFFFFF" d="M513.4,265.8c0,5.8-1.4,10.2-4.3,13.3c-2.9,3.1-7,4.7-12.3,4.7s-9.5-1.6-12.3-4.7
				c-2.9-3.1-4.3-7.6-4.3-13.4c0-5.8,1.4-10.3,4.3-13.3c2.9-3.1,7-4.6,12.4-4.6c5.4,0,9.5,1.5,12.3,4.6
				C512,255.6,513.4,260,513.4,265.8z M488,265.8c0,3.9,0.7,6.8,2.2,8.8c1.5,2,3.7,3,6.6,3c5.9,0,8.9-3.9,8.9-11.8
				c0-7.9-2.9-11.8-8.8-11.8c-2.9,0-5.2,1-6.7,3C488.7,259,488,261.9,488,265.8z"/>
			<path fill="#FFFFFF" d="M541.3,273.7c0,3.2-1.1,5.6-3.4,7.5s-5.4,2.7-9.5,2.7c-3.7,0-7-0.7-9.9-2.1v-6.9c2.4,1.1,4.4,1.8,6,2.2
				c1.6,0.4,3.1,0.6,4.5,0.6c1.6,0,2.9-0.3,3.7-0.9s1.3-1.5,1.3-2.8c0-0.7-0.2-1.3-0.6-1.8c-0.4-0.5-0.9-1-1.7-1.5
				c-0.7-0.5-2.2-1.3-4.5-2.4c-2.1-1-3.7-2-4.8-2.9c-1.1-0.9-1.9-2-2.6-3.2s-1-2.7-1-4.3c0-3.1,1-5.5,3.1-7.3c2.1-1.8,5-2.7,8.7-2.7
				c1.8,0,3.5,0.2,5.2,0.6c1.6,0.4,3.4,1,5.2,1.8l-2.4,5.8c-1.9-0.8-3.4-1.3-4.6-1.6s-2.4-0.5-3.6-0.5c-1.4,0-2.5,0.3-3.2,1
				s-1.1,1.5-1.1,2.6c0,0.7,0.2,1.2,0.5,1.7c0.3,0.5,0.8,1,1.4,1.4s2.2,1.3,4.7,2.4c3.3,1.6,5.5,3.1,6.7,4.7
				C540.7,269.5,541.3,271.4,541.3,273.7z"/>
			<path fill="#FFFFFF" d="M571.8,259.3c0,3.8-1.2,6.6-3.5,8.6c-2.3,2-5.7,3-10,3H555v12.4h-7.4v-34.9h11.2c4.2,0,7.5,0.9,9.7,2.7
				C570.7,253,571.8,255.7,571.8,259.3z M555,264.9h2.4c2.3,0,4-0.4,5.1-1.3c1.1-0.9,1.7-2.2,1.7-3.9c0-1.7-0.5-3-1.4-3.8
				s-2.4-1.2-4.5-1.2H555V264.9z"/>
			<path fill="#FFFFFF" d="M607,283.4h-7.4v-15.1h-13.8v15.1h-7.4v-34.9h7.4v13.7h13.8v-13.7h7.4V283.4z"/>
			<path fill="#FFFFFF" d="M637.2,283.4l-2.5-8.3h-12.7l-2.5,8.3h-8l12.3-35.1h9.1l12.4,35.1H637.2z M632.9,268.8
				c-2.3-7.5-3.7-11.8-4-12.8s-0.5-1.8-0.6-2.3c-0.5,2-2,7.1-4.5,15.1H632.9z"/>
			<path fill="#FFFFFF" d="M663,283.4h-7.4v-28.8h-9.5v-6.2h26.4v6.2H663V283.4z"/>
			<path fill="#FFFFFF" d="M698,283.4h-20.1v-34.9H698v6.1h-12.7v7.7h11.8v6.1h-11.8v9H698V283.4z"/>
			<path fill="#FFFFFF" d="M485.5,313.7h13.9v18.1c-2.2,0.7-4.4,1.2-6.3,1.5c-2,0.3-4,0.4-6.1,0.4c-5.3,0-9.3-1.5-12.1-4.6
				s-4.2-7.5-4.2-13.3c0-5.6,1.6-10,4.8-13.2s7.7-4.7,13.4-4.7c3.6,0,7,0.7,10.4,2.2l-2.5,5.9c-2.5-1.3-5.2-1.9-8-1.9
				c-3.2,0-5.8,1.1-7.7,3.2c-1.9,2.2-2.9,5-2.9,8.7c0,3.8,0.8,6.7,2.3,8.7s3.8,3,6.8,3c1.5,0,3.1-0.2,4.7-0.5v-7.3h-6.6V313.7z"/>
			<path fill="#FFFFFF" d="M515.1,320v13.4h-7.4v-34.9h10.2c4.7,0,8.3,0.9,10.5,2.6c2.3,1.7,3.4,4.4,3.4,7.9c0,2.1-0.6,3.9-1.7,5.5
				s-2.7,2.9-4.8,3.8c5.3,7.9,8.7,12.9,10.3,15.2h-8.2L519,320H515.1z M515.1,313.9h2.4c2.3,0,4.1-0.4,5.2-1.2
				c1.1-0.8,1.7-2,1.7-3.7c0-1.7-0.6-2.8-1.7-3.5c-1.1-0.7-2.9-1.1-5.3-1.1h-2.2V313.9z"/>
			<path fill="#FFFFFF" d="M571.7,315.8c0,5.8-1.4,10.2-4.3,13.3c-2.9,3.1-7,4.7-12.3,4.7s-9.5-1.6-12.3-4.7
				c-2.9-3.1-4.3-7.6-4.3-13.4c0-5.8,1.4-10.3,4.3-13.3c2.9-3.1,7-4.6,12.4-4.6c5.4,0,9.5,1.5,12.3,4.6S571.7,310,571.7,315.8z
				 M546.2,315.8c0,3.9,0.7,6.8,2.2,8.8c1.5,2,3.7,3,6.6,3c5.9,0,8.9-3.9,8.9-11.8c0-7.9-2.9-11.8-8.8-11.8c-2.9,0-5.2,1-6.7,3
				C546.9,309,546.2,311.9,546.2,315.8z"/>
			<path fill="#FFFFFF" d="M607.4,298.4V321c0,2.6-0.6,4.8-1.7,6.8s-2.8,3.4-5,4.5c-2.2,1-4.8,1.6-7.7,1.6c-4.5,0-8-1.2-10.5-3.5
				c-2.5-2.3-3.7-5.5-3.7-9.4v-22.5h7.4v21.4c0,2.7,0.5,4.7,1.6,5.9c1.1,1.3,2.9,1.9,5.4,1.9c2.4,0,4.2-0.6,5.3-1.9
				c1.1-1.3,1.6-3.3,1.6-6v-21.3H607.4z"/>
			<path fill="#FFFFFF" d="M640,309.3c0,3.8-1.2,6.6-3.5,8.6c-2.3,2-5.7,3-10,3h-3.2v12.4h-7.4v-34.9h11.2c4.2,0,7.5,0.9,9.7,2.7
				C638.9,303,640,305.7,640,309.3z M623.3,314.9h2.4c2.3,0,4-0.4,5.1-1.3c1.1-0.9,1.7-2.2,1.7-3.9c0-1.7-0.5-3-1.4-3.8
				s-2.4-1.2-4.5-1.2h-3.4V314.9z"/>
		</g>
	</g>
	<g>
		<g>
			<line fill="none" stroke="#FFFFFF" stroke-width="10" stroke-miterlimit="10" x1="437.9" y1="198" x2="386.5" y2="149.5"/>
			<g>
				<polygon fill="#FFFFFF" points="360.8,125.3 410.9,144.6 388.4,151.3 383.1,174.2 				"/>
			</g>
		</g>
	</g>
	<g>
		<g>
			<line fill="none" stroke="#FFFFFF" stroke-width="10" stroke-miterlimit="10" x1="379.9" y1="1327.7" x2="377.8" y2="1257"/>
			<g>
				<polygon fill="#FFFFFF" points="376.8,1221.8 398.6,1270.9 377.9,1259.7 358,1272.1 				"/>
			</g>
		</g>
	</g>
	<g>
		<g>
			<line fill="none" stroke="#FFFFFF" stroke-width="10" stroke-miterlimit="10" x1="1133" y1="1327.7" x2="1130.9" y2="1257"/>
			<g>
				<polygon fill="#FFFFFF" points="1129.9,1221.8 1151.7,1270.9 1131,1259.7 1111,1272.1 				"/>
			</g>
		</g>
	</g>
	<g>
		<g>
			<line fill="none" stroke="#FFFFFF" stroke-width="10" stroke-miterlimit="10" x1="1907.1" y1="1327.7" x2="1905" y2="1257"/>
			<g>
				<polygon fill="#FFFFFF" points="1903.9,1221.8 1925.7,1270.9 1905.1,1259.7 1885.1,1272.1 				"/>
			</g>
		</g>
	</g>
	<g>
		<path fill="#EF4136" d="M960.9,609.6c0,0-0.3,2-0.8,5.4c-0.2,1.7-0.5,3.8-0.8,6.2c-0.3,2.4-0.7,5.1-1,8c-0.4,2.9-0.7,6.1-1.1,9.5
			c-0.3,3.4-0.7,6.9-1,10.5c-0.1,1.8-0.3,3.7-0.4,5.6c-0.1,1.9-0.2,3.8-0.3,5.7c-0.2,3.8-0.4,7.7-0.4,11.6c-0.1,1.9-0.1,3.9-0.1,5.8
			c0,1.9,0,3.9,0,5.8c0,1,0,1.9,0.1,2.9c0,0.9,0.1,1.9,0.1,2.8c0.1,1.9,0.2,3.7,0.3,5.6c0.1,1.8,0.3,3.6,0.4,5.4
			c0.1,1.8,0.3,3.5,0.5,5.1c0.1,1.7,0.4,3.3,0.5,4.9c0.1,1.6,0.4,3.1,0.6,4.5c0.4,2.9,0.9,5.6,1.2,7.9c0.4,2.4,0.8,4.4,1.1,6.1
			c0.4,1.7,0.6,3,0.8,3.9c0.2,0.9,0.3,1.4,0.3,1.4s-0.2-0.4-0.7-1.3c-0.4-0.8-1-2.1-1.8-3.7c-0.7-1.6-1.5-3.6-2.4-5.8
			c-0.8-2.3-1.8-4.9-2.6-7.8c-0.9-2.9-1.6-6.1-2.4-9.4c-0.3-1.7-0.7-3.4-1-5.2c-0.3-1.8-0.6-3.6-0.8-5.5c-0.5-3.7-0.8-7.6-1-11.6
			c-0.2-4-0.3-8-0.2-12c0.2-8,0.9-16.1,2-23.5c0.5-3.7,1.2-7.3,1.9-10.7c0.7-3.4,1.5-6.5,2.3-9.4c1.6-5.8,3.2-10.5,4.5-13.8
			c0.6-1.6,1.2-2.9,1.5-3.8C960.7,610,960.9,609.6,960.9,609.6z"/>
	</g>
	<g>
		<path fill="#EF4136" d="M940.6,640.4c0,0,0,0.3-0.1,0.9c-0.1,0.6-0.1,1.5-0.2,2.5c-0.2,2.2-0.4,5.3-0.7,9
			c-0.1,1.8-0.3,3.8-0.4,5.9c-0.2,2.1-0.3,4.3-0.4,6.6c-0.1,2.3-0.2,4.6-0.4,7c0,1.2,0,2.4-0.1,3.6c-0.1,1.2-0.1,2.4-0.1,3.6
			c0,2.4-0.1,4.8,0,7.2c0,1.2,0,2.4,0,3.5c0,1.2,0.1,2.3,0.1,3.4c0,1.1,0.1,2.2,0.1,3.3c0,1.1,0.2,2.1,0.2,3.2
			c0.2,2.1,0.2,4.1,0.5,5.9c0.2,1.8,0.4,3.5,0.5,5c0.2,1.5,0.4,2.8,0.5,3.9c0.2,1.1,0.2,2,0.3,2.5c0.1,0.6,0.1,0.9,0.1,0.9
			s-0.2-0.3-0.5-0.8c-0.3-0.5-0.7-1.3-1.2-2.2c-0.5-1-1.2-2.2-1.8-3.6c-0.6-1.4-1.2-3.1-1.8-4.9c-0.7-1.8-1.2-3.8-1.7-5.9
			c-0.3-1.1-0.5-2.2-0.8-3.3c-0.2-1.1-0.4-2.3-0.6-3.5c-0.4-2.4-0.6-4.8-0.8-7.3c-0.2-2.5-0.2-5-0.2-7.6c0-2.5,0.3-5.1,0.4-7.5
			c0.1-1.2,0.3-2.5,0.4-3.7c0.2-1.2,0.3-2.4,0.5-3.6c0.4-2.3,0.8-4.6,1.4-6.7c0.3-1.1,0.5-2.1,0.8-3.1c0.3-1,0.6-1.9,0.9-2.8
			c0.6-1.8,1.2-3.4,1.7-4.9c0.6-1.4,1.1-2.7,1.6-3.7c0.4-1,0.9-1.8,1.1-2.3C940.4,640.6,940.6,640.4,940.6,640.4z"/>
	</g>
	<g>
		<path fill="#EF4136" d="M1126.6,609.6c0,0,0.2,0.4,0.6,1.3c0.4,0.9,0.9,2.1,1.5,3.8c1.3,3.3,2.9,8,4.5,13.8
			c0.8,2.9,1.6,6.1,2.3,9.4c0.7,3.4,1.4,6.9,1.9,10.7c1.1,7.4,1.8,15.4,2,23.5c0.1,4,0,8-0.2,12c-0.2,4-0.6,7.8-1,11.6
			c-0.2,1.9-0.5,3.7-0.8,5.5c-0.3,1.8-0.7,3.5-1,5.2c-0.7,3.4-1.5,6.6-2.4,9.4c-0.8,2.9-1.8,5.5-2.6,7.8c-0.9,2.3-1.7,4.2-2.4,5.8
			c-0.7,1.6-1.4,2.8-1.8,3.7c-0.4,0.8-0.7,1.3-0.7,1.3s0.1-0.5,0.3-1.4c0.2-0.9,0.4-2.3,0.8-3.9c0.3-1.7,0.7-3.8,1.1-6.1
			c0.4-2.4,0.9-5,1.2-7.9c0.2-1.5,0.4-3,0.6-4.5c0.2-1.6,0.4-3.2,0.5-4.9c0.1-1.7,0.3-3.4,0.5-5.1c0.1-1.8,0.3-3.5,0.4-5.4
			c0.1-1.8,0.2-3.7,0.3-5.6c0-0.9,0.1-1.9,0.1-2.8c0-0.9,0.1-1.9,0.1-2.9c0-1.9,0.1-3.8,0-5.8c0-1.9,0-3.9-0.1-5.8
			c0-3.9-0.2-7.8-0.4-11.6c-0.1-1.9-0.2-3.8-0.3-5.7c-0.1-1.9-0.3-3.7-0.4-5.6c-0.3-3.7-0.6-7.2-1-10.5c-0.4-3.4-0.7-6.5-1.1-9.5
			c-0.3-2.9-0.7-5.6-1-8c-0.3-2.4-0.6-4.5-0.8-6.2C1126.9,611.5,1126.6,609.6,1126.6,609.6z"/>
	</g>
	<g>
		<path fill="#EF4136" d="M1146.9,640.4c0,0,0.2,0.3,0.4,0.8c0.3,0.5,0.7,1.3,1.1,2.3c0.5,1,1,2.2,1.6,3.7c0.5,1.4,1.2,3.1,1.7,4.9
			c0.3,0.9,0.6,1.8,0.9,2.8c0.3,1,0.5,2,0.8,3.1c0.5,2.1,1,4.3,1.4,6.7c0.2,1.2,0.4,2.4,0.5,3.6c0.2,1.2,0.3,2.4,0.4,3.7
			c0.2,2.5,0.4,5,0.4,7.5c0,2.5,0.1,5.1-0.2,7.6c-0.1,2.5-0.4,4.9-0.8,7.3c-0.2,1.2-0.4,2.3-0.6,3.5c-0.2,1.1-0.5,2.2-0.8,3.3
			c-0.5,2.1-1,4.1-1.7,5.9c-0.6,1.8-1.3,3.4-1.8,4.9c-0.7,1.4-1.3,2.6-1.8,3.6c-0.5,1-1,1.7-1.2,2.2c-0.3,0.5-0.5,0.8-0.5,0.8
			s0-0.3,0.1-0.9c0.1-0.6,0.1-1.5,0.3-2.5c0.1-1.1,0.3-2.4,0.5-3.9c0.1-1.5,0.3-3.2,0.5-5c0.3-1.8,0.3-3.8,0.5-5.9
			c0.1-1,0.2-2.1,0.2-3.2c0-1.1,0.1-2.2,0.1-3.3c0-1.1,0.1-2.3,0.1-3.4c0-1.2,0-2.3,0-3.5c0.1-2.4,0-4.8,0-7.2c0-1.2,0-2.4-0.1-3.6
			c-0.1-1.2-0.1-2.4-0.1-3.6c-0.1-2.4-0.2-4.7-0.4-7c-0.2-2.3-0.2-4.5-0.4-6.6c-0.1-2.1-0.3-4.1-0.4-5.9c-0.3-3.7-0.5-6.8-0.7-9
			c-0.1-1.1-0.1-2-0.2-2.5C1147,640.7,1146.9,640.4,1146.9,640.4z"/>
	</g>
	<g>
		<path fill="#EF4136" d="M1723.9,156.1c0,0-0.3,2-0.8,5.4c-0.2,1.7-0.5,3.8-0.8,6.2c-0.3,2.4-0.7,5.1-1,8c-0.4,2.9-0.7,6.1-1.1,9.5
			c-0.3,3.4-0.7,6.9-1,10.5c-0.1,1.8-0.3,3.7-0.4,5.6c-0.1,1.9-0.2,3.8-0.3,5.7c-0.2,3.8-0.4,7.7-0.4,11.6c-0.1,1.9-0.1,3.9-0.1,5.8
			c0,1.9,0,3.9,0,5.8c0,1,0,1.9,0.1,2.9c0,0.9,0.1,1.9,0.1,2.8c0.1,1.9,0.2,3.7,0.3,5.6c0.1,1.8,0.3,3.6,0.4,5.4
			c0.1,1.8,0.3,3.5,0.5,5.1c0.1,1.7,0.4,3.3,0.5,4.9c0.1,1.6,0.4,3.1,0.6,4.5c0.4,2.9,0.9,5.6,1.2,7.9c0.4,2.4,0.8,4.4,1.1,6.1
			c0.4,1.7,0.6,3,0.8,3.9c0.2,0.9,0.3,1.4,0.3,1.4s-0.2-0.4-0.7-1.3c-0.4-0.8-1-2.1-1.8-3.7c-0.7-1.6-1.5-3.6-2.4-5.8
			c-0.8-2.3-1.8-4.9-2.6-7.8c-0.9-2.9-1.6-6.1-2.4-9.4c-0.3-1.7-0.7-3.4-1-5.2c-0.3-1.8-0.6-3.6-0.8-5.5c-0.5-3.7-0.8-7.6-1-11.6
			c-0.2-4-0.3-8-0.2-12c0.2-8,0.9-16.1,2-23.5c0.5-3.7,1.2-7.3,1.9-10.7c0.7-3.4,1.5-6.5,2.3-9.4c1.6-5.8,3.2-10.5,4.5-13.8
			c0.6-1.6,1.2-2.9,1.5-3.8C1723.7,156.5,1723.9,156.1,1723.9,156.1z"/>
	</g>
	<g>
		<path fill="#EF4136" d="M1703.6,186.9c0,0,0,0.3-0.1,0.9c-0.1,0.6-0.1,1.5-0.2,2.5c-0.2,2.2-0.4,5.3-0.7,9
			c-0.1,1.8-0.3,3.8-0.4,5.9c-0.2,2.1-0.3,4.3-0.4,6.6c-0.1,2.3-0.2,4.6-0.4,7c0,1.2,0,2.4-0.1,3.6c-0.1,1.2-0.1,2.4-0.1,3.6
			c0,2.4-0.1,4.8,0,7.2c0,1.2,0,2.4,0,3.5c0,1.2,0.1,2.3,0.1,3.4c0,1.1,0.1,2.2,0.1,3.3c0,1.1,0.2,2.1,0.2,3.2
			c0.2,2.1,0.2,4.1,0.5,5.9c0.2,1.8,0.4,3.5,0.5,5c0.2,1.5,0.4,2.8,0.5,3.9c0.2,1.1,0.2,2,0.3,2.5c0.1,0.6,0.1,0.9,0.1,0.9
			s-0.2-0.3-0.5-0.8c-0.3-0.5-0.7-1.3-1.2-2.2c-0.5-1-1.2-2.2-1.8-3.6c-0.6-1.4-1.2-3.1-1.8-4.9c-0.7-1.8-1.2-3.8-1.7-5.9
			c-0.3-1.1-0.5-2.2-0.8-3.3c-0.2-1.1-0.4-2.3-0.6-3.5c-0.4-2.4-0.6-4.8-0.8-7.3c-0.2-2.5-0.2-5-0.2-7.6c0-2.5,0.3-5.1,0.4-7.5
			c0.1-1.2,0.3-2.5,0.4-3.7c0.2-1.2,0.3-2.4,0.5-3.6c0.4-2.3,0.8-4.6,1.4-6.7c0.3-1.1,0.5-2.1,0.8-3.1c0.3-1,0.6-1.9,0.9-2.8
			c0.6-1.8,1.2-3.4,1.7-4.9c0.6-1.4,1.1-2.7,1.6-3.7c0.4-1,0.9-1.8,1.1-2.3C1703.4,187.1,1703.6,186.9,1703.6,186.9z"/>
	</g>
	<g>
		<path fill="#EF4136" d="M1889.6,156.1c0,0,0.2,0.4,0.6,1.3c0.4,0.9,0.9,2.1,1.5,3.8c1.3,3.3,2.9,8,4.5,13.8
			c0.8,2.9,1.6,6.1,2.3,9.4c0.7,3.4,1.4,6.9,1.9,10.7c1.1,7.4,1.8,15.4,2,23.5c0.1,4,0,8-0.2,12c-0.2,4-0.6,7.8-1,11.6
			c-0.2,1.9-0.5,3.7-0.8,5.5c-0.3,1.8-0.7,3.5-1,5.2c-0.7,3.4-1.5,6.6-2.4,9.4c-0.8,2.9-1.8,5.5-2.6,7.8c-0.9,2.3-1.7,4.2-2.4,5.8
			c-0.7,1.6-1.4,2.8-1.8,3.7c-0.4,0.8-0.7,1.3-0.7,1.3s0.1-0.5,0.3-1.4c0.2-0.9,0.4-2.3,0.8-3.9c0.3-1.7,0.7-3.8,1.1-6.1
			c0.4-2.4,0.9-5,1.2-7.9c0.2-1.5,0.4-3,0.6-4.5c0.2-1.6,0.4-3.2,0.5-4.9c0.1-1.7,0.3-3.4,0.5-5.1c0.1-1.8,0.3-3.5,0.4-5.4
			c0.1-1.8,0.2-3.7,0.3-5.6c0-0.9,0.1-1.9,0.1-2.8c0-0.9,0.1-1.9,0.1-2.9c0-1.9,0.1-3.8,0-5.8c0-1.9,0-3.9-0.1-5.8
			c0-3.9-0.2-7.8-0.4-11.6c-0.1-1.9-0.2-3.8-0.3-5.7c-0.1-1.9-0.3-3.7-0.4-5.6c-0.3-3.7-0.6-7.2-1-10.5c-0.4-3.4-0.7-6.5-1.1-9.5
			c-0.3-2.9-0.7-5.6-1-8c-0.3-2.4-0.6-4.5-0.8-6.2C1889.9,158.1,1889.6,156.1,1889.6,156.1z"/>
	</g>
	<g>
		<path fill="#EF4136" d="M1909.9,186.9c0,0,0.2,0.3,0.4,0.8c0.3,0.5,0.7,1.3,1.1,2.3c0.5,1,1,2.2,1.6,3.7c0.5,1.4,1.2,3.1,1.7,4.9
			c0.3,0.9,0.6,1.8,0.9,2.8c0.3,1,0.5,2,0.8,3.1c0.5,2.1,1,4.3,1.4,6.7c0.2,1.2,0.4,2.4,0.5,3.6c0.2,1.2,0.3,2.4,0.4,3.7
			c0.2,2.5,0.4,5,0.4,7.5c0,2.5,0.1,5.1-0.2,7.6c-0.1,2.5-0.4,4.9-0.8,7.3c-0.2,1.2-0.4,2.3-0.6,3.5c-0.2,1.1-0.5,2.2-0.8,3.3
			c-0.5,2.1-1,4.1-1.7,5.9c-0.6,1.8-1.3,3.4-1.8,4.9c-0.7,1.4-1.3,2.6-1.8,3.6c-0.5,1-1,1.7-1.2,2.2c-0.3,0.5-0.5,0.8-0.5,0.8
			s0-0.3,0.1-0.9c0.1-0.6,0.1-1.5,0.3-2.5c0.1-1.1,0.3-2.4,0.5-3.9c0.1-1.5,0.3-3.2,0.5-5c0.3-1.8,0.3-3.8,0.5-5.9
			c0.1-1,0.2-2.1,0.2-3.2c0-1.1,0.1-2.2,0.1-3.3c0-1.1,0.1-2.3,0.1-3.4c0-1.2,0-2.3,0-3.5c0.1-2.4,0-4.8,0-7.2c0-1.2,0-2.4-0.1-3.6
			c-0.1-1.2-0.1-2.4-0.1-3.6c-0.1-2.4-0.2-4.7-0.4-7c-0.2-2.3-0.2-4.5-0.4-6.6c-0.1-2.1-0.3-4.1-0.4-5.9c-0.3-3.7-0.5-6.8-0.7-9
			c-0.1-1.1-0.1-2-0.2-2.5C1909.9,187.2,1909.9,186.9,1909.9,186.9z"/>
	</g>
	<g>
		<g>
			<g>
				<linearGradient id="SVGID_28_" gradientUnits="userSpaceOnUse" x1="1003.4502" y1="661.5919" x2="1090.2889" y2="661.5919">
					<stop  offset="6.437341e-03" style="stop-color:#FFD58B"/>
					<stop  offset="1.256081e-02" style="stop-color:#FFD188"/>
					<stop  offset="8.718221e-02" style="stop-color:#F9A867"/>
					<stop  offset="0.1625" style="stop-color:#F5864D"/>
					<stop  offset="0.237" style="stop-color:#F2693A"/>
					<stop  offset="0.3105" style="stop-color:#F04E2E"/>
					<stop  offset="0.3829" style="stop-color:#EE3728"/>
					<stop  offset="0.4534" style="stop-color:#EE2425"/>
					<stop  offset="0.5202" style="stop-color:#ED1C24"/>
					<stop  offset="0.6156" style="stop-color:#ED2225"/>
					<stop  offset="0.6859" style="stop-color:#EE3127"/>
					<stop  offset="0.7481" style="stop-color:#EF442C"/>
					<stop  offset="0.8057" style="stop-color:#F15A35"/>
					<stop  offset="0.86" style="stop-color:#F37343"/>
					<stop  offset="0.912" style="stop-color:#F68D57"/>
					<stop  offset="0.9611" style="stop-color:#FAAC70"/>
					<stop  offset="1" style="stop-color:#FEC989"/>
				</linearGradient>
				<path fill="url(#SVGID_28_)" d="M1082.3,673.4c0,0,9-2.9-4.1-4.1c0,0-25-1.6-36-2.4c-11.1-0.8-37.6,0.5-38.6-5.4
					c-1-1,7-10.5,7.2-11.6c0.3-1.1-15.2,4.5,17.8,6.6c33.1,2.1,61.6,0.3,61.7,8.4L1082.3,673.4z"/>
			</g>
			<g>
				<linearGradient id="SVGID_29_" gradientUnits="userSpaceOnUse" x1="1002.8066" y1="641.235" x2="1089.83" y2="641.235">
					<stop  offset="6.437341e-03" style="stop-color:#FFD58B"/>
					<stop  offset="1.256081e-02" style="stop-color:#FFD188"/>
					<stop  offset="8.718221e-02" style="stop-color:#F9A867"/>
					<stop  offset="0.1625" style="stop-color:#F5864D"/>
					<stop  offset="0.237" style="stop-color:#F2693A"/>
					<stop  offset="0.3105" style="stop-color:#F04E2E"/>
					<stop  offset="0.3829" style="stop-color:#EE3728"/>
					<stop  offset="0.4534" style="stop-color:#EE2425"/>
					<stop  offset="0.5202" style="stop-color:#ED1C24"/>
					<stop  offset="0.6156" style="stop-color:#ED2225"/>
					<stop  offset="0.6859" style="stop-color:#EE3127"/>
					<stop  offset="0.7481" style="stop-color:#EF442C"/>
					<stop  offset="0.8057" style="stop-color:#F15A35"/>
					<stop  offset="0.86" style="stop-color:#F37343"/>
					<stop  offset="0.912" style="stop-color:#F68D57"/>
					<stop  offset="0.9611" style="stop-color:#FAAC70"/>
					<stop  offset="1" style="stop-color:#FEC989"/>
				</linearGradient>
				<path fill="url(#SVGID_29_)" d="M1086.4,649.8c0,0,5.9-2.9-7.5-3.1c0,0-25.2,0.6-36.4,0.8c-11.2,0.2-36.4,2.7-39.5-2
					c-1.4-0.8,4.5-11.7,4.3-12.8c-0.3-1.1-12.9,5.8,20.4,5c33.3-0.8,59.3-5,62.1,1.5L1086.4,649.8z"/>
			</g>
			<g>
				<linearGradient id="SVGID_30_" gradientUnits="userSpaceOnUse" x1="1004.3541" y1="708.4874" x2="1092.0514" y2="708.4874">
					<stop  offset="6.437341e-03" style="stop-color:#FFD58B"/>
					<stop  offset="1.256081e-02" style="stop-color:#FFD188"/>
					<stop  offset="8.718221e-02" style="stop-color:#F9A867"/>
					<stop  offset="0.1625" style="stop-color:#F5864D"/>
					<stop  offset="0.237" style="stop-color:#F2693A"/>
					<stop  offset="0.3105" style="stop-color:#F04E2E"/>
					<stop  offset="0.3829" style="stop-color:#EE3728"/>
					<stop  offset="0.4534" style="stop-color:#EE2425"/>
					<stop  offset="0.5202" style="stop-color:#ED1C24"/>
					<stop  offset="0.6156" style="stop-color:#ED2225"/>
					<stop  offset="0.6859" style="stop-color:#EE3127"/>
					<stop  offset="0.7481" style="stop-color:#EF442C"/>
					<stop  offset="0.8057" style="stop-color:#F15A35"/>
					<stop  offset="0.86" style="stop-color:#F37343"/>
					<stop  offset="0.912" style="stop-color:#F68D57"/>
					<stop  offset="0.9611" style="stop-color:#FAAC70"/>
					<stop  offset="1" style="stop-color:#FEC989"/>
				</linearGradient>
				<path fill="url(#SVGID_30_)" d="M1087.7,715.7c0,0,7-2.9-6.4-3.1c0,0-25.2,0.6-36.4,0.8c-11.2,0.2-37.2,2.7-40.2-2
					c-1.4-0.8,4.2-8.9,4-10c-0.3-1.1-12.9,3.6,20.4,2.8c33.3-0.8,60.3-4.2,63.1,2.3L1087.7,715.7z"/>
			</g>
			<g>
				<linearGradient id="SVGID_31_" gradientUnits="userSpaceOnUse" x1="1003.4502" y1="684.9563" x2="1090.6824" y2="684.9563">
					<stop  offset="6.437341e-03" style="stop-color:#FFD58B"/>
					<stop  offset="1.256081e-02" style="stop-color:#FFD188"/>
					<stop  offset="8.718221e-02" style="stop-color:#F9A867"/>
					<stop  offset="0.1625" style="stop-color:#F5864D"/>
					<stop  offset="0.237" style="stop-color:#F2693A"/>
					<stop  offset="0.3105" style="stop-color:#F04E2E"/>
					<stop  offset="0.3829" style="stop-color:#EE3728"/>
					<stop  offset="0.4534" style="stop-color:#EE2425"/>
					<stop  offset="0.5202" style="stop-color:#ED1C24"/>
					<stop  offset="0.6156" style="stop-color:#ED2225"/>
					<stop  offset="0.6859" style="stop-color:#EE3127"/>
					<stop  offset="0.7481" style="stop-color:#EF442C"/>
					<stop  offset="0.8057" style="stop-color:#F15A35"/>
					<stop  offset="0.86" style="stop-color:#F37343"/>
					<stop  offset="0.912" style="stop-color:#F68D57"/>
					<stop  offset="0.9611" style="stop-color:#FAAC70"/>
					<stop  offset="1" style="stop-color:#FEC989"/>
				</linearGradient>
				<path fill="url(#SVGID_31_)" d="M1082.3,697c0,0,9-2.9-4.1-4.1c0,0-25-1.6-36-2.4c-11.1-0.8-37.6-0.6-38.6-5.4
					c-1-1,7-10.8,7.2-12s-15.2,4.2,17.8,6.3c33.1,2.1,62.2,1.4,62.1,8L1082.3,697z"/>
			</g>
			<g>
				<linearGradient id="SVGID_32_" gradientUnits="userSpaceOnUse" x1="1002.5608" y1="672.2612" x2="1091.0887" y2="676.9008">
					<stop  offset="1.335300e-03" style="stop-color:#FBB040"/>
					<stop  offset="0.5202" style="stop-color:#BE1E2D"/>
					<stop  offset="1" style="stop-color:#FBB040"/>
				</linearGradient>
				<path fill="url(#SVGID_32_)" d="M1089,662.1c-1.3,0-0.5,2.5-13,4c0,0-24.2,2.2-34.9,3.2c-10.7,1-40.1,3.4-38.5,7.3
					c-0.7,0.9-0.3,8.8,2.8,10.5c1.4,0.8-8-4,24.1-6.9c32-2.9,63.5-4.2,61.9-9.1C1091.3,671.1,1090.3,662.1,1089,662.1z"/>
			</g>
			<g>
				<linearGradient id="SVGID_33_" gradientUnits="userSpaceOnUse" x1="1002.6268" y1="648.6021" x2="1091.0875" y2="653.2381">
					<stop  offset="1.335300e-03" style="stop-color:#FBB040"/>
					<stop  offset="0.5202" style="stop-color:#BE1E2D"/>
					<stop  offset="1" style="stop-color:#FBB040"/>
				</linearGradient>
				<path fill="url(#SVGID_33_)" d="M1089,638.4c-1.3,0-0.5,2.5-13,4c0,0-24.2,2.2-34.9,3.2s-40.1,3.4-38.5,7.3
					c-0.7,0.9,0.6,9.5,2.2,10.5c1.4,0.8-7.4-4,24.7-6.9c32-2.9,63.5-4.2,61.9-9.1C1091.3,647.4,1090.3,638.4,1089,638.4z"/>
			</g>
			<g>
				<linearGradient id="SVGID_34_" gradientUnits="userSpaceOnUse" x1="1001.6718" y1="631.287" x2="1090.1666" y2="635.9248">
					<stop  offset="1.335300e-03" style="stop-color:#FBB040"/>
					<stop  offset="0.5202" style="stop-color:#BE1E2D"/>
					<stop  offset="1" style="stop-color:#FBB040"/>
				</linearGradient>
				<path fill="url(#SVGID_34_)" d="M1088.1,620.7c-1.3,0-0.5,2.5-13,4c0,0-24.2,2.2-34.9,3.2c-10.7,1-40.1,3.4-38.5,7.3
					c-0.7,0.9,0.6,10.2,2.2,11.1c1.4,0.8-7.4-4,24.7-6.9c32-2.9,63.5-4.2,61.9-9.1C1090.4,630.4,1089.3,620.8,1088.1,620.7z"/>
			</g>
			<g>
				<linearGradient id="SVGID_35_" gradientUnits="userSpaceOnUse" x1="1002.6268" y1="694.937" x2="1091.0876" y2="699.573">
					<stop  offset="1.335300e-03" style="stop-color:#FBB040"/>
					<stop  offset="0.5202" style="stop-color:#BE1E2D"/>
					<stop  offset="1" style="stop-color:#FBB040"/>
				</linearGradient>
				<path fill="url(#SVGID_35_)" d="M1089,684.7c-1.2-0.1-0.5,2.5-13,4c0,0-24.2,2.2-34.9,3.2s-40.1,3.4-38.5,7.3
					c-0.7,0.9,0.6,9.5,2.2,10.5c1.4,0.8-7.4-4,24.7-6.9c32-2.9,63.5-4.2,61.9-9.1C1091.3,693.7,1091.8,685,1089,684.7z"/>
			</g>
			<g>
				<linearGradient id="SVGID_36_" gradientUnits="userSpaceOnUse" x1="1001.3949" y1="712.0134" x2="1092.3403" y2="716.7797">
					<stop  offset="1.335300e-03" style="stop-color:#FBB040"/>
					<stop  offset="0.5202" style="stop-color:#BE1E2D"/>
					<stop  offset="1" style="stop-color:#FBB040"/>
				</linearGradient>
				<path fill="url(#SVGID_36_)" d="M1091.6,705.9c-1.2-0.2-1.2,2.4-14.1,2.7c0,0-24.6-0.1-35.4-0.1s-40.6-0.4-40.2,3.6
					c-1,0.8-0.9,9.5,0.3,10.6c1.1,1-6.1-4.6,26.4-4.5c32.5,0.2,64,1.8,63.9-3.2C1092.4,715.1,1092.8,706.1,1091.6,705.9z"/>
			</g>
		</g>
	</g>
	<g>
		<path fill="#6E6F71" d="M632.5,1669c-156.5,0-312.9,0-469.4,0c-104.4-90.3-104.4-236.6,0-326.9c156.5,0,312.9,0,469.4,0
			C736.8,1432.4,736.8,1578.7,632.5,1669z"/>
		<g>
			<g>
				<path fill="#E8E8E8" d="M354.2,1440.7l-4.5-14.7h-22.5l-4.5,14.7h-14.1l21.7-61.8h16l21.8,61.8H354.2z M346.6,1415.1
					c-4.1-13.3-6.5-20.8-7-22.5s-0.9-3.1-1.1-4.1c-0.9,3.6-3.6,12.5-8,26.7H346.6z"/>
				<path fill="#E8E8E8" d="M427.1,1409.3c0,10.1-2.9,17.9-8.7,23.3c-5.8,5.4-14.1,8.1-25,8.1H376v-61.6h19.3
					c10.1,0,17.9,2.7,23.4,8S427.1,1399.8,427.1,1409.3z M413.5,1409.6c0-13.2-5.8-19.8-17.5-19.8h-7v40.1h5.6
					C407.2,1429.9,413.5,1423.1,413.5,1409.6z"/>
				<path fill="#E8E8E8" d="M482.4,1398.3c0,6.6-2.1,11.7-6.2,15.2c-4.1,3.5-10,5.3-17.7,5.3h-5.6v21.9h-13.1v-61.6h19.7
					c7.5,0,13.2,1.6,17,4.8C480.5,1387.1,482.4,1391.9,482.4,1398.3z M452.9,1408.1h4.3c4,0,7-0.8,9-2.4c2-1.6,3-3.9,3-6.9
					c0-3.1-0.8-5.3-2.5-6.8c-1.7-1.5-4.3-2.2-7.9-2.2h-5.9V1408.1z"/>
				<path fill="#E8E8E8" d="M246.8,1520.7l-2-5.2h-0.3c-1.8,2.2-3.6,3.7-5.4,4.6c-1.9,0.9-4.3,1.3-7.3,1.3c-3.7,0-6.6-1-8.7-3.1
					c-2.1-2.1-3.2-5.1-3.2-9c0-4.1,1.4-7,4.3-9c2.8-1.9,7.1-3,12.8-3.2l6.6-0.2v-1.7c0-3.9-2-5.8-5.9-5.8c-3.1,0-6.6,0.9-10.8,2.8
					l-3.5-7c4.4-2.3,9.3-3.5,14.6-3.5c5.1,0,9.1,1.1,11.8,3.3c2.7,2.2,4.1,5.6,4.1,10.2v25.5H246.8z M243.8,1503l-4,0.1
					c-3,0.1-5.3,0.6-6.8,1.6c-1.5,1-2.2,2.5-2.2,4.6c0,2.9,1.7,4.4,5.1,4.4c2.4,0,4.3-0.7,5.8-2.1c1.4-1.4,2.2-3.2,2.2-5.5V1503z"/>
				<path fill="#E8E8E8" d="M276.9,1521.4c-4.5,0-8-1.7-10.6-5.2c-2.6-3.5-3.8-8.3-3.8-14.5c0-6.3,1.3-11.1,3.9-14.6
					c2.6-3.5,6.2-5.2,10.8-5.2c4.8,0,8.5,1.9,11,5.6h0.3c-0.5-2.8-0.8-5.4-0.8-7.6v-12.2h10.5v53.2h-8l-2-5h-0.4
					C285.4,1519.5,281.8,1521.4,276.9,1521.4z M280.6,1513.1c2.7,0,4.6-0.8,5.9-2.3c1.2-1.5,1.9-4.2,2-7.9v-1.1c0-4.1-0.6-7-1.9-8.8
					c-1.3-1.8-3.3-2.7-6.2-2.7c-2.3,0-4.1,1-5.4,3c-1.3,2-1.9,4.8-1.9,8.6s0.6,6.6,1.9,8.5C276.3,1512.1,278.2,1513.1,280.6,1513.1z
					"/>
				<path fill="#E8E8E8" d="M326.4,1521.4c-6.2,0-11-1.7-14.4-5.1c-3.5-3.4-5.2-8.2-5.2-14.4c0-6.4,1.6-11.4,4.8-14.9
					c3.2-3.5,7.6-5.2,13.3-5.2c5.4,0,9.6,1.5,12.6,4.6s4.5,7.3,4.5,12.7v5.1h-24.6c0.1,3,1,5.3,2.6,6.9c1.6,1.7,3.9,2.5,6.9,2.5
					c2.3,0,4.5-0.2,6.5-0.7s4.2-1.2,6.4-2.3v8.1c-1.8,0.9-3.8,1.6-5.8,2C331.9,1521.1,329.4,1521.4,326.4,1521.4z M325,1489.2
					c-2.2,0-3.9,0.7-5.2,2.1c-1.3,1.4-2,3.4-2.2,6h14.6c0-2.6-0.7-4.6-2-6C328.9,1489.9,327.2,1489.2,325,1489.2z"/>
				<path fill="#E8E8E8" d="M385.8,1520.7h-10.4v-22.3c0-2.8-0.5-4.8-1.5-6.2c-1-1.4-2.5-2.1-4.7-2.1c-2.9,0-5,1-6.3,2.9
					c-1.3,1.9-1.9,5.2-1.9,9.7v18h-10.4v-38.2h8l1.4,4.9h0.6c1.2-1.8,2.8-3.2,4.8-4.2s4.4-1.4,7-1.4c4.4,0,7.8,1.2,10.1,3.6
					c2.3,2.4,3.5,5.9,3.5,10.4V1520.7z"/>
				<path fill="#E8E8E8" d="M431.2,1501.5c0,6.2-1.6,11.1-4.9,14.6c-3.3,3.5-7.9,5.3-13.7,5.3c-3.7,0-6.9-0.8-9.7-2.4
					c-2.8-1.6-5-3.9-6.5-6.9s-2.3-6.5-2.3-10.5c0-6.2,1.6-11.1,4.9-14.6c3.3-3.5,7.8-5.2,13.7-5.2c3.7,0,6.9,0.8,9.7,2.4
					c2.8,1.6,5,3.9,6.5,6.9C430.5,1494,431.2,1497.5,431.2,1501.5z M404.8,1501.5c0,3.8,0.6,6.6,1.9,8.6c1.2,1.9,3.3,2.9,6.1,2.9
					c2.8,0,4.8-1,6-2.9c1.2-1.9,1.8-4.8,1.8-8.6c0-3.8-0.6-6.6-1.8-8.5c-1.2-1.9-3.2-2.8-6-2.8c-2.8,0-4.8,0.9-6,2.8
					C405.4,1494.9,404.8,1497.7,404.8,1501.5z"/>
				<path fill="#E8E8E8" d="M466.5,1509.3c0,3.9-1.4,6.9-4.1,9c-2.7,2.1-6.8,3.1-12.2,3.1c-2.8,0-5.2-0.2-7.1-0.6
					c-2-0.4-3.8-0.9-5.5-1.7v-8.6c1.9,0.9,4.1,1.7,6.5,2.3c2.4,0.6,4.6,0.9,6.4,0.9c3.8,0,5.7-1.1,5.7-3.3c0-0.8-0.3-1.5-0.8-2
					c-0.5-0.5-1.4-1.1-2.6-1.7c-1.2-0.6-2.9-1.4-4.9-2.3c-2.9-1.2-5.1-2.4-6.5-3.4c-1.4-1-2.4-2.2-3-3.6c-0.6-1.4-0.9-3-0.9-5
					c0-3.4,1.3-6,3.9-7.9c2.6-1.9,6.4-2.8,11.2-2.8c4.6,0,9.1,1,13.4,3l-3.1,7.5c-1.9-0.8-3.7-1.5-5.4-2c-1.7-0.5-3.4-0.8-5.1-0.8
					c-3.1,0-4.6,0.8-4.6,2.5c0,0.9,0.5,1.7,1.5,2.4c1,0.7,3.2,1.7,6.5,3c3,1.2,5.2,2.3,6.6,3.4c1.4,1,2.4,2.3,3.1,3.6
					C466.2,1505.8,466.5,1507.4,466.5,1509.3z"/>
				<path fill="#E8E8E8" d="M474.2,1472.6c0-3.4,1.9-5.1,5.7-5.1c3.8,0,5.7,1.7,5.7,5.1c0,1.6-0.5,2.9-1.4,3.8
					c-0.9,0.9-2.4,1.4-4.3,1.4C476.1,1477.7,474.2,1476,474.2,1472.6z M485.1,1520.7h-10.4v-38.2h10.4V1520.7z"/>
				<path fill="#E8E8E8" d="M531.3,1520.7h-10.4v-22.3c0-2.8-0.5-4.8-1.5-6.2c-1-1.4-2.5-2.1-4.7-2.1c-2.9,0-5,1-6.3,2.9
					c-1.3,1.9-1.9,5.2-1.9,9.7v18H496v-38.2h8l1.4,4.9h0.6c1.2-1.8,2.8-3.2,4.8-4.2c2-0.9,4.4-1.4,7-1.4c4.4,0,7.8,1.2,10.1,3.6
					c2.3,2.4,3.5,5.9,3.5,10.4V1520.7z"/>
				<path fill="#E8E8E8" d="M559.3,1521.4c-6.2,0-11-1.7-14.4-5.1c-3.5-3.4-5.2-8.2-5.2-14.4c0-6.4,1.6-11.4,4.8-14.9
					c3.2-3.5,7.6-5.2,13.3-5.2c5.4,0,9.6,1.5,12.6,4.6s4.5,7.3,4.5,12.7v5.1h-24.6c0.1,3,1,5.3,2.6,6.9c1.6,1.7,3.9,2.5,6.9,2.5
					c2.3,0,4.5-0.2,6.5-0.7s4.2-1.2,6.4-2.3v8.1c-1.8,0.9-3.8,1.6-5.8,2C564.8,1521.1,562.3,1521.4,559.3,1521.4z M557.8,1489.2
					c-2.2,0-3.9,0.7-5.2,2.1c-1.3,1.4-2,3.4-2.2,6h14.6c0-2.6-0.7-4.6-2-6C561.8,1489.9,560,1489.2,557.8,1489.2z"/>
				<path fill="#E8E8E8" d="M195.9,1601.4c-4.5,0-8-1.7-10.6-5.2c-2.6-3.5-3.8-8.3-3.8-14.5c0-6.3,1.3-11.1,3.9-14.6
					c2.6-3.5,6.2-5.2,10.8-5.2c4.8,0,8.5,1.9,11,5.6h0.3c-0.5-2.8-0.8-5.4-0.8-7.6v-12.2h10.5v53.2h-8l-2-5h-0.4
					C204.3,1599.5,200.7,1601.4,195.9,1601.4z M199.5,1593.1c2.7,0,4.6-0.8,5.9-2.3c1.2-1.5,1.9-4.2,2-7.9v-1.1c0-4.1-0.6-7-1.9-8.8
					c-1.3-1.8-3.3-2.7-6.2-2.7c-2.3,0-4.1,1-5.4,3c-1.3,2-1.9,4.8-1.9,8.6s0.6,6.6,1.9,8.5C195.2,1592.1,197.1,1593.1,199.5,1593.1z
					"/>
				<path fill="#E8E8E8" d="M227.6,1552.6c0-3.4,1.9-5.1,5.7-5.1c3.8,0,5.7,1.7,5.7,5.1c0,1.6-0.5,2.9-1.4,3.8
					c-0.9,0.9-2.4,1.4-4.3,1.4C229.5,1557.7,227.6,1556,227.6,1552.6z M238.5,1600.7H228v-38.2h10.4V1600.7z"/>
				<path fill="#E8E8E8" d="M270.4,1601.4c-4.5,0-8-1.6-10.6-4.9h-0.5c0.4,3.2,0.5,5,0.5,5.5v15.5h-10.4v-55h8.5l1.5,5h0.5
					c2.4-3.8,6-5.7,10.8-5.7c4.5,0,8,1.7,10.6,5.2c2.6,3.5,3.8,8.3,3.8,14.5c0,4.1-0.6,7.6-1.8,10.6c-1.2,3-2.9,5.3-5.1,6.9
					C276,1600.6,273.4,1601.4,270.4,1601.4z M267.3,1570.1c-2.6,0-4.5,0.8-5.6,2.4c-1.2,1.6-1.8,4.2-1.8,7.8v1.1
					c0,4.1,0.6,7,1.8,8.8c1.2,1.8,3.1,2.7,5.8,2.7c4.7,0,7-3.9,7-11.6c0-3.8-0.6-6.6-1.7-8.5C271.6,1571,269.8,1570.1,267.3,1570.1z
					"/>
				<path fill="#E8E8E8" d="M329,1600.7h-10.4v-22.3c0-5.5-2.1-8.3-6.2-8.3c-2.9,0-5,1-6.3,3s-1.9,5.2-1.9,9.6v18h-10.4v-53.2h10.4
					v10.8c0,0.8-0.1,2.8-0.2,5.9l-0.2,3.1h0.5c2.3-3.7,6-5.6,11.1-5.6c4.5,0,7.9,1.2,10.2,3.6c2.3,2.4,3.5,5.9,3.5,10.4V1600.7z"/>
				<path fill="#E8E8E8" d="M374.4,1581.5c0,6.2-1.6,11.1-4.9,14.6c-3.3,3.5-7.9,5.3-13.7,5.3c-3.7,0-6.9-0.8-9.7-2.4
					c-2.8-1.6-5-3.9-6.5-6.9s-2.3-6.5-2.3-10.5c0-6.2,1.6-11.1,4.9-14.6c3.3-3.5,7.8-5.2,13.7-5.2c3.7,0,6.9,0.8,9.7,2.4
					c2.8,1.6,5,3.9,6.5,6.9C373.7,1574,374.4,1577.5,374.4,1581.5z M348,1581.5c0,3.8,0.6,6.6,1.9,8.6c1.2,1.9,3.3,2.9,6.1,2.9
					c2.8,0,4.8-1,6-2.9c1.2-1.9,1.8-4.8,1.8-8.6c0-3.8-0.6-6.6-1.8-8.5c-1.2-1.9-3.2-2.8-6-2.8c-2.8,0-4.8,0.9-6,2.8
					C348.6,1574.9,348,1577.7,348,1581.5z"/>
				<path fill="#E8E8E8" d="M409.7,1589.3c0,3.9-1.4,6.9-4.1,9c-2.7,2.1-6.8,3.1-12.2,3.1c-2.8,0-5.2-0.2-7.1-0.6
					c-2-0.4-3.8-0.9-5.5-1.7v-8.6c1.9,0.9,4.1,1.7,6.5,2.3c2.4,0.6,4.6,0.9,6.4,0.9c3.8,0,5.7-1.1,5.7-3.3c0-0.8-0.3-1.5-0.8-2
					c-0.5-0.5-1.4-1.1-2.6-1.7c-1.2-0.6-2.9-1.4-4.9-2.3c-2.9-1.2-5.1-2.4-6.5-3.4c-1.4-1-2.4-2.2-3-3.6c-0.6-1.4-0.9-3-0.9-5
					c0-3.4,1.3-6,3.9-7.9c2.6-1.9,6.4-2.8,11.2-2.8c4.6,0,9.1,1,13.4,3l-3.1,7.5c-1.9-0.8-3.7-1.5-5.4-2c-1.7-0.5-3.4-0.8-5.1-0.8
					c-3.1,0-4.6,0.8-4.6,2.5c0,0.9,0.5,1.7,1.5,2.4c1,0.7,3.2,1.7,6.5,3c3,1.2,5.2,2.3,6.6,3.4c1.4,1,2.4,2.3,3.1,3.6
					C409.4,1585.8,409.7,1587.4,409.7,1589.3z"/>
				<path fill="#E8E8E8" d="M438.8,1601.4c-4.5,0-8-1.6-10.6-4.9h-0.5c0.4,3.2,0.5,5,0.5,5.5v15.5h-10.4v-55h8.5l1.5,5h0.5
					c2.4-3.8,6-5.7,10.8-5.7c4.5,0,8,1.7,10.6,5.2c2.6,3.5,3.8,8.3,3.8,14.5c0,4.1-0.6,7.6-1.8,10.6c-1.2,3-2.9,5.3-5.1,6.9
					C444.4,1600.6,441.8,1601.4,438.8,1601.4z M435.8,1570.1c-2.6,0-4.5,0.8-5.6,2.4c-1.2,1.6-1.8,4.2-1.8,7.8v1.1
					c0,4.1,0.6,7,1.8,8.8c1.2,1.8,3.1,2.7,5.8,2.7c4.7,0,7-3.9,7-11.6c0-3.8-0.6-6.6-1.7-8.5C440,1571,438.2,1570.1,435.8,1570.1z"
					/>
				<path fill="#E8E8E8" d="M497.4,1600.7H487v-22.3c0-5.5-2.1-8.3-6.2-8.3c-2.9,0-5,1-6.3,3s-1.9,5.2-1.9,9.6v18h-10.4v-53.2h10.4
					v10.8c0,0.8-0.1,2.8-0.2,5.9l-0.2,3.1h0.5c2.3-3.7,6-5.6,11.1-5.6c4.5,0,7.9,1.2,10.2,3.6c2.3,2.4,3.5,5.9,3.5,10.4V1600.7z"/>
				<path fill="#E8E8E8" d="M532.4,1600.7l-2-5.2h-0.3c-1.8,2.2-3.6,3.7-5.4,4.6c-1.9,0.9-4.3,1.3-7.3,1.3c-3.7,0-6.6-1-8.7-3.1
					c-2.1-2.1-3.2-5.1-3.2-9c0-4.1,1.4-7,4.3-9c2.8-1.9,7.1-3,12.8-3.2l6.6-0.2v-1.7c0-3.9-2-5.8-5.9-5.8c-3.1,0-6.6,0.9-10.8,2.8
					l-3.5-7c4.4-2.3,9.3-3.5,14.6-3.5c5.1,0,9.1,1.1,11.8,3.3c2.7,2.2,4.1,5.6,4.1,10.2v25.5H532.4z M529.3,1583l-4,0.1
					c-3,0.1-5.3,0.6-6.8,1.6c-1.5,1-2.2,2.5-2.2,4.6c0,2.9,1.7,4.4,5.1,4.4c2.4,0,4.3-0.7,5.8-2.1c1.4-1.4,2.2-3.2,2.2-5.5V1583z"/>
				<path fill="#E8E8E8" d="M566.5,1593.1c1.8,0,4-0.4,6.6-1.2v7.8c-2.6,1.2-5.8,1.7-9.6,1.7c-4.2,0-7.2-1.1-9.1-3.2
					c-1.9-2.1-2.9-5.3-2.9-9.5v-18.4h-5v-4.4l5.7-3.5l3-8.1h6.7v8.1h10.7v7.8H562v18.4c0,1.5,0.4,2.6,1.2,3.3
					C564.1,1592.7,565.2,1593.1,566.5,1593.1z"/>
				<path fill="#E8E8E8" d="M598.1,1601.4c-6.2,0-11-1.7-14.4-5.1c-3.5-3.4-5.2-8.2-5.2-14.4c0-6.4,1.6-11.4,4.8-14.9
					c3.2-3.5,7.6-5.2,13.3-5.2c5.4,0,9.6,1.5,12.6,4.6s4.5,7.3,4.5,12.7v5.1h-24.6c0.1,3,1,5.3,2.6,6.9c1.6,1.7,3.9,2.5,6.9,2.5
					c2.3,0,4.5-0.2,6.5-0.7s4.2-1.2,6.4-2.3v8.1c-1.8,0.9-3.8,1.6-5.8,2C603.6,1601.1,601.1,1601.4,598.1,1601.4z M596.6,1569.2
					c-2.2,0-3.9,0.7-5.2,2.1c-1.3,1.4-2,3.4-2.2,6h14.6c0-2.6-0.7-4.6-2-6C600.6,1569.9,598.9,1569.2,596.6,1569.2z"/>
			</g>
		</g>
	</g>
	<g>
		<path fill="#6E6F71" d="M2174.6,1669c-156.5,0-312.9,0-469.4,0c-104.4-90.3-104.4-236.6,0-326.9c156.5,0,312.9,0,469.4,0
			C2279,1432.4,2279,1578.7,2174.6,1669z"/>
		<g>
			<g>
				<path fill="#E8E8E8" d="M1896.3,1440.7l-4.5-14.7h-22.5l-4.5,14.7h-14.1l21.7-61.8h16l21.8,61.8H1896.3z M1888.7,1415.1
					c-4.1-13.3-6.5-20.8-7-22.5s-0.9-3.1-1.1-4.1c-0.9,3.6-3.6,12.5-8,26.7H1888.7z"/>
				<path fill="#E8E8E8" d="M1969.2,1409.3c0,10.1-2.9,17.9-8.7,23.3c-5.8,5.4-14.1,8.1-25,8.1h-17.4v-61.6h19.3
					c10.1,0,17.9,2.7,23.4,8C1966.5,1392.4,1969.2,1399.8,1969.2,1409.3z M1955.7,1409.6c0-13.2-5.8-19.8-17.5-19.8h-7v40.1h5.6
					C1949.4,1429.9,1955.7,1423.1,1955.7,1409.6z"/>
				<path fill="#E8E8E8" d="M2024.6,1398.3c0,6.6-2.1,11.7-6.2,15.2c-4.1,3.5-10,5.3-17.7,5.3h-5.6v21.9H1982v-61.6h19.7
					c7.5,0,13.2,1.6,17,4.8C2022.6,1387.1,2024.6,1391.9,2024.6,1398.3z M1995.1,1408.1h4.3c4,0,7-0.8,9-2.4s3-3.9,3-6.9
					c0-3.1-0.8-5.3-2.5-6.8c-1.7-1.5-4.3-2.2-7.9-2.2h-5.9V1408.1z"/>
				<path fill="#E8E8E8" d="M1789,1520.7l-2-5.2h-0.3c-1.8,2.2-3.6,3.7-5.4,4.6c-1.9,0.9-4.3,1.3-7.3,1.3c-3.7,0-6.6-1-8.7-3.1
					c-2.1-2.1-3.2-5.1-3.2-9c0-4.1,1.4-7,4.3-9c2.8-1.9,7.1-3,12.8-3.2l6.6-0.2v-1.7c0-3.9-2-5.8-5.9-5.8c-3.1,0-6.6,0.9-10.8,2.8
					l-3.5-7c4.4-2.3,9.3-3.5,14.6-3.5c5.1,0,9.1,1.1,11.8,3.3c2.7,2.2,4.1,5.6,4.1,10.2v25.5H1789z M1785.9,1503l-4,0.1
					c-3,0.1-5.3,0.6-6.8,1.6c-1.5,1-2.2,2.5-2.2,4.6c0,2.9,1.7,4.4,5.1,4.4c2.4,0,4.3-0.7,5.8-2.1c1.4-1.4,2.2-3.2,2.2-5.5V1503z"/>
				<path fill="#E8E8E8" d="M1819.1,1521.4c-4.5,0-8-1.7-10.6-5.2c-2.6-3.5-3.8-8.3-3.8-14.5c0-6.3,1.3-11.1,3.9-14.6
					c2.6-3.5,6.2-5.2,10.8-5.2c4.8,0,8.5,1.9,11,5.6h0.3c-0.5-2.8-0.8-5.4-0.8-7.6v-12.2h10.5v53.2h-8l-2-5h-0.4
					C1827.6,1519.5,1824,1521.4,1819.1,1521.4z M1822.8,1513.1c2.7,0,4.6-0.8,5.9-2.3c1.2-1.5,1.9-4.2,2-7.9v-1.1
					c0-4.1-0.6-7-1.9-8.8c-1.3-1.8-3.3-2.7-6.2-2.7c-2.3,0-4.1,1-5.4,3c-1.3,2-1.9,4.8-1.9,8.6s0.7,6.6,1.9,8.5
					C1818.5,1512.1,1820.3,1513.1,1822.8,1513.1z"/>
				<path fill="#E8E8E8" d="M1868.6,1521.4c-6.2,0-11-1.7-14.4-5.1c-3.5-3.4-5.2-8.2-5.2-14.4c0-6.4,1.6-11.4,4.8-14.9
					c3.2-3.5,7.6-5.2,13.3-5.2c5.4,0,9.6,1.5,12.6,4.6s4.5,7.3,4.5,12.7v5.1h-24.6c0.1,3,1,5.3,2.6,6.9c1.6,1.7,3.9,2.5,6.9,2.5
					c2.3,0,4.5-0.2,6.5-0.7s4.2-1.2,6.4-2.3v8.1c-1.8,0.9-3.8,1.6-5.8,2C1874.1,1521.1,1871.6,1521.4,1868.6,1521.4z M1867.1,1489.2
					c-2.2,0-3.9,0.7-5.2,2.1c-1.3,1.4-2,3.4-2.2,6h14.6c0-2.6-0.7-4.6-2-6C1871.1,1489.9,1869.3,1489.2,1867.1,1489.2z"/>
				<path fill="#E8E8E8" d="M1927.9,1520.7h-10.4v-22.3c0-2.8-0.5-4.8-1.5-6.2c-1-1.4-2.5-2.1-4.7-2.1c-2.9,0-5,1-6.3,2.9
					c-1.3,1.9-1.9,5.2-1.9,9.7v18h-10.4v-38.2h8l1.4,4.9h0.6c1.2-1.8,2.8-3.2,4.8-4.2s4.4-1.4,7-1.4c4.4,0,7.8,1.2,10.1,3.6
					s3.5,5.9,3.5,10.4V1520.7z"/>
				<path fill="#E8E8E8" d="M1973.4,1501.5c0,6.2-1.6,11.1-4.9,14.6c-3.3,3.5-7.9,5.3-13.7,5.3c-3.7,0-6.9-0.8-9.7-2.4
					c-2.8-1.6-5-3.9-6.5-6.9s-2.3-6.5-2.3-10.5c0-6.2,1.6-11.1,4.9-14.6c3.3-3.5,7.8-5.2,13.7-5.2c3.7,0,6.9,0.8,9.7,2.4
					c2.8,1.6,5,3.9,6.5,6.9C1972.6,1494,1973.4,1497.5,1973.4,1501.5z M1947,1501.5c0,3.8,0.6,6.6,1.9,8.6c1.2,1.9,3.3,2.9,6.1,2.9
					c2.8,0,4.8-1,6-2.9c1.2-1.9,1.8-4.8,1.8-8.6c0-3.8-0.6-6.6-1.8-8.5c-1.2-1.9-3.2-2.8-6.1-2.8c-2.8,0-4.8,0.9-6,2.8
					C1947.6,1494.9,1947,1497.7,1947,1501.5z"/>
				<path fill="#E8E8E8" d="M2008.7,1509.3c0,3.9-1.4,6.9-4.1,9c-2.7,2.1-6.8,3.1-12.2,3.1c-2.8,0-5.2-0.2-7.1-0.6
					c-2-0.4-3.8-0.9-5.5-1.7v-8.6c1.9,0.9,4.1,1.7,6.5,2.3c2.4,0.6,4.6,0.9,6.4,0.9c3.8,0,5.7-1.1,5.7-3.3c0-0.8-0.2-1.5-0.8-2
					c-0.5-0.5-1.4-1.1-2.6-1.7c-1.2-0.6-2.9-1.4-4.9-2.3c-2.9-1.2-5.1-2.4-6.5-3.4c-1.4-1-2.4-2.2-3-3.6c-0.6-1.4-0.9-3-0.9-5
					c0-3.4,1.3-6,3.9-7.9c2.6-1.9,6.4-2.8,11.2-2.8c4.6,0,9.1,1,13.4,3l-3.1,7.5c-1.9-0.8-3.7-1.5-5.4-2c-1.7-0.5-3.4-0.8-5.1-0.8
					c-3.1,0-4.6,0.8-4.6,2.5c0,0.9,0.5,1.7,1.5,2.4c1,0.7,3.2,1.7,6.5,3c3,1.2,5.2,2.3,6.6,3.4c1.4,1,2.4,2.3,3.1,3.6
					S2008.7,1507.4,2008.7,1509.3z"/>
				<path fill="#E8E8E8" d="M2016.3,1472.6c0-3.4,1.9-5.1,5.7-5.1s5.7,1.7,5.7,5.1c0,1.6-0.5,2.9-1.4,3.8c-0.9,0.9-2.4,1.4-4.3,1.4
					C2018.2,1477.7,2016.3,1476,2016.3,1472.6z M2027.2,1520.7h-10.4v-38.2h10.4V1520.7z"/>
				<path fill="#E8E8E8" d="M2073.4,1520.7H2063v-22.3c0-2.8-0.5-4.8-1.5-6.2c-1-1.4-2.5-2.1-4.7-2.1c-2.9,0-5,1-6.3,2.9
					c-1.3,1.9-1.9,5.2-1.9,9.7v18h-10.4v-38.2h8l1.4,4.9h0.6c1.2-1.8,2.8-3.2,4.8-4.2s4.4-1.4,7-1.4c4.4,0,7.8,1.2,10.1,3.6
					c2.3,2.4,3.5,5.9,3.5,10.4V1520.7z"/>
				<path fill="#E8E8E8" d="M2101.5,1521.4c-6.2,0-11-1.7-14.4-5.1c-3.5-3.4-5.2-8.2-5.2-14.4c0-6.4,1.6-11.4,4.8-14.9
					s7.6-5.2,13.3-5.2c5.4,0,9.6,1.5,12.6,4.6s4.5,7.3,4.5,12.7v5.1h-24.6c0.1,3,1,5.3,2.6,6.9c1.6,1.7,3.9,2.5,6.9,2.5
					c2.3,0,4.5-0.2,6.5-0.7s4.2-1.2,6.4-2.3v8.1c-1.8,0.9-3.8,1.6-5.8,2C2107,1521.1,2104.4,1521.4,2101.5,1521.4z M2100,1489.2
					c-2.2,0-3.9,0.7-5.2,2.1c-1.3,1.4-2,3.4-2.2,6h14.6c0-2.6-0.7-4.6-2-6C2104,1489.9,2102.2,1489.2,2100,1489.2z"/>
				<path fill="#E8E8E8" d="M1738,1601.4c-4.5,0-8-1.7-10.6-5.2c-2.6-3.5-3.8-8.3-3.8-14.5c0-6.3,1.3-11.1,3.9-14.6
					c2.6-3.5,6.2-5.2,10.8-5.2c4.8,0,8.5,1.9,11,5.6h0.3c-0.5-2.8-0.8-5.4-0.8-7.6v-12.2h10.5v53.2h-8l-2-5h-0.4
					C1746.5,1599.5,1742.9,1601.4,1738,1601.4z M1741.7,1593.1c2.7,0,4.6-0.8,5.9-2.3c1.2-1.5,1.9-4.2,2-7.9v-1.1
					c0-4.1-0.6-7-1.9-8.8c-1.3-1.8-3.3-2.7-6.2-2.7c-2.3,0-4.1,1-5.4,3c-1.3,2-1.9,4.8-1.9,8.6s0.7,6.6,1.9,8.5
					C1737.4,1592.1,1739.2,1593.1,1741.7,1593.1z"/>
				<path fill="#E8E8E8" d="M1769.8,1552.6c0-3.4,1.9-5.1,5.7-5.1s5.7,1.7,5.7,5.1c0,1.6-0.5,2.9-1.4,3.8c-0.9,0.9-2.4,1.4-4.3,1.4
					C1771.6,1557.7,1769.8,1556,1769.8,1552.6z M1780.6,1600.7h-10.4v-38.2h10.4V1600.7z"/>
				<path fill="#E8E8E8" d="M1812.6,1601.4c-4.5,0-8-1.6-10.6-4.9h-0.5c0.4,3.2,0.5,5,0.5,5.5v15.5h-10.4v-55h8.5l1.5,5h0.5
					c2.4-3.8,6-5.7,10.8-5.7c4.5,0,8,1.7,10.6,5.2s3.8,8.3,3.8,14.5c0,4.1-0.6,7.6-1.8,10.6c-1.2,3-2.9,5.3-5.1,6.9
					S1815.5,1601.4,1812.6,1601.4z M1809.5,1570.1c-2.6,0-4.5,0.8-5.6,2.4c-1.2,1.6-1.8,4.2-1.8,7.8v1.1c0,4.1,0.6,7,1.8,8.8
					s3.2,2.7,5.8,2.7c4.7,0,7-3.9,7-11.6c0-3.8-0.6-6.6-1.7-8.5C1813.7,1571,1811.9,1570.1,1809.5,1570.1z"/>
				<path fill="#E8E8E8" d="M1871.1,1600.7h-10.4v-22.3c0-5.5-2.1-8.3-6.2-8.3c-2.9,0-5,1-6.3,3s-1.9,5.2-1.9,9.6v18h-10.4v-53.2
					h10.4v10.8c0,0.8-0.1,2.8-0.2,5.9l-0.2,3.1h0.5c2.3-3.7,6-5.6,11.1-5.6c4.5,0,7.9,1.2,10.2,3.6c2.3,2.4,3.5,5.9,3.5,10.4V1600.7
					z"/>
				<path fill="#E8E8E8" d="M1916.6,1581.5c0,6.2-1.6,11.1-4.9,14.6c-3.3,3.5-7.8,5.3-13.7,5.3c-3.7,0-6.9-0.8-9.7-2.4
					c-2.8-1.6-5-3.9-6.5-6.9s-2.3-6.5-2.3-10.5c0-6.2,1.6-11.1,4.9-14.6c3.3-3.5,7.8-5.2,13.7-5.2c3.7,0,6.9,0.8,9.7,2.4
					c2.8,1.6,5,3.9,6.5,6.9C1915.8,1574,1916.6,1577.5,1916.6,1581.5z M1890.2,1581.5c0,3.8,0.6,6.6,1.9,8.6
					c1.2,1.9,3.3,2.9,6.1,2.9c2.8,0,4.8-1,6-2.9s1.8-4.8,1.8-8.6c0-3.8-0.6-6.6-1.8-8.5c-1.2-1.9-3.2-2.8-6-2.8
					c-2.8,0-4.8,0.9-6,2.8C1890.8,1574.9,1890.2,1577.7,1890.2,1581.5z"/>
				<path fill="#E8E8E8" d="M1951.9,1589.3c0,3.9-1.4,6.9-4.1,9s-6.8,3.1-12.2,3.1c-2.8,0-5.2-0.2-7.1-0.6c-2-0.4-3.8-0.9-5.5-1.7
					v-8.6c1.9,0.9,4.1,1.7,6.5,2.3c2.4,0.6,4.6,0.9,6.4,0.9c3.8,0,5.7-1.1,5.7-3.3c0-0.8-0.3-1.5-0.8-2c-0.5-0.5-1.4-1.1-2.6-1.7
					c-1.2-0.6-2.9-1.4-4.9-2.3c-2.9-1.2-5.1-2.4-6.5-3.4c-1.4-1-2.4-2.2-3-3.6c-0.6-1.4-0.9-3-0.9-5c0-3.4,1.3-6,3.9-7.9
					c2.6-1.9,6.4-2.8,11.2-2.8c4.6,0,9.1,1,13.4,3l-3.1,7.5c-1.9-0.8-3.7-1.5-5.4-2c-1.7-0.5-3.4-0.8-5.1-0.8
					c-3.1,0-4.6,0.8-4.6,2.5c0,0.9,0.5,1.7,1.5,2.4c1,0.7,3.2,1.7,6.5,3c3,1.2,5.2,2.3,6.6,3.4c1.4,1,2.4,2.3,3.1,3.6
					C1951.5,1585.8,1951.9,1587.4,1951.9,1589.3z"/>
				<path fill="#E8E8E8" d="M1981,1601.4c-4.5,0-8-1.6-10.6-4.9h-0.5c0.4,3.2,0.5,5,0.5,5.5v15.5H1960v-55h8.5l1.5,5h0.5
					c2.4-3.8,6-5.7,10.8-5.7c4.5,0,8,1.7,10.6,5.2s3.8,8.3,3.8,14.5c0,4.1-0.6,7.6-1.8,10.6c-1.2,3-2.9,5.3-5.1,6.9
					S1984,1601.4,1981,1601.4z M1977.9,1570.1c-2.6,0-4.5,0.8-5.6,2.4c-1.2,1.6-1.8,4.2-1.8,7.8v1.1c0,4.1,0.6,7,1.8,8.8
					s3.2,2.7,5.8,2.7c4.7,0,7-3.9,7-11.6c0-3.8-0.6-6.6-1.7-8.5C1982.2,1571,1980.4,1570.1,1977.9,1570.1z"/>
				<path fill="#E8E8E8" d="M2039.6,1600.7h-10.4v-22.3c0-5.5-2.1-8.3-6.2-8.3c-2.9,0-5,1-6.3,3s-1.9,5.2-1.9,9.6v18h-10.4v-53.2
					h10.4v10.8c0,0.8-0.1,2.8-0.2,5.9l-0.2,3.1h0.5c2.3-3.7,6-5.6,11.1-5.6c4.5,0,7.9,1.2,10.2,3.6c2.3,2.4,3.5,5.9,3.5,10.4V1600.7
					z"/>
				<path fill="#E8E8E8" d="M2074.6,1600.7l-2-5.2h-0.3c-1.8,2.2-3.6,3.7-5.4,4.6c-1.9,0.9-4.3,1.3-7.3,1.3c-3.7,0-6.6-1-8.7-3.1
					c-2.1-2.1-3.2-5.1-3.2-9c0-4.1,1.4-7,4.3-9c2.8-1.9,7.1-3,12.8-3.2l6.6-0.2v-1.7c0-3.9-2-5.8-5.9-5.8c-3.1,0-6.6,0.9-10.8,2.8
					l-3.5-7c4.4-2.3,9.3-3.5,14.6-3.5c5.1,0,9.1,1.1,11.8,3.3c2.7,2.2,4.1,5.6,4.1,10.2v25.5H2074.6z M2071.5,1583l-4,0.1
					c-3,0.1-5.3,0.6-6.8,1.6c-1.5,1-2.2,2.5-2.2,4.6c0,2.9,1.7,4.4,5.1,4.4c2.4,0,4.3-0.7,5.8-2.1c1.4-1.4,2.2-3.2,2.2-5.5V1583z"/>
				<path fill="#E8E8E8" d="M2108.7,1593.1c1.8,0,4-0.4,6.6-1.2v7.8c-2.6,1.2-5.8,1.7-9.6,1.7c-4.2,0-7.2-1.1-9.1-3.2
					c-1.9-2.1-2.9-5.3-2.9-9.5v-18.4h-5v-4.4l5.7-3.5l3-8.1h6.7v8.1h10.7v7.8h-10.7v18.4c0,1.5,0.4,2.6,1.2,3.3
					C2106.2,1592.7,2107.3,1593.1,2108.7,1593.1z"/>
				<path fill="#E8E8E8" d="M2140.3,1601.4c-6.2,0-11-1.7-14.4-5.1c-3.5-3.4-5.2-8.2-5.2-14.4c0-6.4,1.6-11.4,4.8-14.9
					s7.6-5.2,13.3-5.2c5.4,0,9.6,1.5,12.6,4.6s4.5,7.3,4.5,12.7v5.1h-24.6c0.1,3,1,5.3,2.6,6.9c1.6,1.7,3.9,2.5,6.9,2.5
					c2.3,0,4.5-0.2,6.5-0.7s4.2-1.2,6.4-2.3v8.1c-1.8,0.9-3.8,1.6-5.8,2C2145.8,1601.1,2143.2,1601.4,2140.3,1601.4z M2138.8,1569.2
					c-2.2,0-3.9,0.7-5.2,2.1c-1.3,1.4-2,3.4-2.2,6h14.6c0-2.6-0.7-4.6-2-6C2142.8,1569.9,2141,1569.2,2138.8,1569.2z"/>
			</g>
		</g>
	</g>
	<g>
		<path fill="#6E6F71" d="M1394.5,1669c-156.5,0-312.9,0-469.4,0c-104.4-90.3-104.4-236.6,0-326.9c156.5,0,312.9,0,469.4,0
			C1498.9,1432.4,1498.9,1578.7,1394.5,1669z"/>
		<g>
			<g>
				<path fill="#E8E8E8" d="M1123.2,1440.7l-4.5-14.7h-22.5l-4.5,14.7h-14.1l21.7-61.8h16l21.8,61.8H1123.2z M1115.6,1415.1
					c-4.1-13.3-6.5-20.8-7-22.5s-0.9-3.1-1.1-4.1c-0.9,3.6-3.6,12.5-8,26.7H1115.6z"/>
				<path fill="#E8E8E8" d="M1168.8,1440.7h-13.1V1390H1139v-10.9h46.5v10.9h-16.7V1440.7z"/>
				<path fill="#E8E8E8" d="M1237.5,1398.3c0,6.6-2.1,11.7-6.2,15.2c-4.1,3.5-10,5.3-17.7,5.3h-5.6v21.9H1195v-61.6h19.7
					c7.5,0,13.2,1.6,17,4.8C1235.6,1387.1,1237.5,1391.9,1237.5,1398.3z M1208,1408.1h4.3c4,0,7-0.8,9-2.4c2-1.6,3-3.9,3-6.9
					c0-3.1-0.8-5.3-2.5-6.8c-1.7-1.5-4.3-2.2-7.9-2.2h-5.9V1408.1z"/>
				<path fill="#E8E8E8" d="M1008.9,1520.7l-2-5.2h-0.3c-1.8,2.2-3.6,3.7-5.4,4.6c-1.9,0.9-4.3,1.3-7.3,1.3c-3.7,0-6.6-1-8.7-3.1
					c-2.1-2.1-3.2-5.1-3.2-9c0-4.1,1.4-7,4.3-9c2.8-1.9,7.1-3,12.8-3.2l6.6-0.2v-1.7c0-3.9-2-5.8-5.9-5.8c-3.1,0-6.6,0.9-10.8,2.8
					l-3.5-7c4.4-2.3,9.3-3.5,14.6-3.5c5.1,0,9.1,1.1,11.8,3.3c2.7,2.2,4.1,5.6,4.1,10.2v25.5H1008.9z M1005.8,1503l-4,0.1
					c-3,0.1-5.3,0.6-6.8,1.6c-1.5,1-2.2,2.5-2.2,4.6c0,2.9,1.7,4.4,5.1,4.4c2.4,0,4.3-0.7,5.8-2.1c1.4-1.4,2.2-3.2,2.2-5.5V1503z"/>
				<path fill="#E8E8E8" d="M1039,1521.4c-4.5,0-8-1.7-10.6-5.2c-2.6-3.5-3.8-8.3-3.8-14.5c0-6.3,1.3-11.1,3.9-14.6
					c2.6-3.5,6.2-5.2,10.8-5.2c4.8,0,8.5,1.9,11,5.6h0.3c-0.5-2.8-0.8-5.4-0.8-7.6v-12.2h10.5v53.2h-8l-2-5h-0.4
					C1047.5,1519.5,1043.9,1521.4,1039,1521.4z M1042.7,1513.1c2.7,0,4.6-0.8,5.9-2.3c1.2-1.5,1.9-4.2,2-7.9v-1.1
					c0-4.1-0.6-7-1.9-8.8c-1.3-1.8-3.3-2.7-6.2-2.7c-2.3,0-4.1,1-5.4,3c-1.3,2-1.9,4.8-1.9,8.6s0.7,6.6,1.9,8.5
					C1038.4,1512.1,1040.3,1513.1,1042.7,1513.1z"/>
				<path fill="#E8E8E8" d="M1088.5,1521.4c-6.2,0-11-1.7-14.4-5.1c-3.5-3.4-5.2-8.2-5.2-14.4c0-6.4,1.6-11.4,4.8-14.9
					c3.2-3.5,7.6-5.2,13.3-5.2c5.4,0,9.6,1.5,12.6,4.6s4.5,7.3,4.5,12.7v5.1h-24.6c0.1,3,1,5.3,2.6,6.9c1.6,1.7,3.9,2.5,6.9,2.5
					c2.3,0,4.5-0.2,6.5-0.7s4.2-1.2,6.4-2.3v8.1c-1.8,0.9-3.8,1.6-5.8,2C1094,1521.1,1091.5,1521.4,1088.5,1521.4z M1087,1489.2
					c-2.2,0-3.9,0.7-5.2,2.1c-1.3,1.4-2,3.4-2.2,6h14.6c0-2.6-0.7-4.6-2-6C1091,1489.9,1089.3,1489.2,1087,1489.2z"/>
				<path fill="#E8E8E8" d="M1147.8,1520.7h-10.4v-22.3c0-2.8-0.5-4.8-1.5-6.2c-1-1.4-2.5-2.1-4.7-2.1c-2.9,0-5,1-6.3,2.9
					c-1.3,1.9-1.9,5.2-1.9,9.7v18h-10.4v-38.2h8l1.4,4.9h0.6c1.2-1.8,2.8-3.2,4.8-4.2s4.4-1.4,7-1.4c4.4,0,7.8,1.2,10.1,3.6
					s3.5,5.9,3.5,10.4V1520.7z"/>
				<path fill="#E8E8E8" d="M1193.3,1501.5c0,6.2-1.6,11.1-4.9,14.6c-3.3,3.5-7.9,5.3-13.7,5.3c-3.7,0-6.9-0.8-9.7-2.4
					c-2.8-1.6-5-3.9-6.5-6.9s-2.3-6.5-2.3-10.5c0-6.2,1.6-11.1,4.9-14.6c3.3-3.5,7.8-5.2,13.7-5.2c3.7,0,6.9,0.8,9.7,2.4
					c2.8,1.6,5,3.9,6.5,6.9C1192.6,1494,1193.3,1497.5,1193.3,1501.5z M1166.9,1501.5c0,3.8,0.6,6.6,1.9,8.6
					c1.2,1.9,3.3,2.9,6.1,2.9c2.8,0,4.8-1,6-2.9c1.2-1.9,1.8-4.8,1.8-8.6c0-3.8-0.6-6.6-1.8-8.5c-1.2-1.9-3.2-2.8-6.1-2.8
					c-2.8,0-4.8,0.9-6,2.8C1167.5,1494.9,1166.9,1497.7,1166.9,1501.5z"/>
				<path fill="#E8E8E8" d="M1228.6,1509.3c0,3.9-1.4,6.9-4.1,9c-2.7,2.1-6.8,3.1-12.2,3.1c-2.8,0-5.2-0.2-7.1-0.6
					c-2-0.4-3.8-0.9-5.5-1.7v-8.6c1.9,0.9,4.1,1.7,6.5,2.3c2.4,0.6,4.6,0.9,6.4,0.9c3.8,0,5.7-1.1,5.7-3.3c0-0.8-0.2-1.5-0.8-2
					c-0.5-0.5-1.4-1.1-2.6-1.7c-1.2-0.6-2.9-1.4-4.9-2.3c-2.9-1.2-5.1-2.4-6.5-3.4c-1.4-1-2.4-2.2-3-3.6c-0.6-1.4-0.9-3-0.9-5
					c0-3.4,1.3-6,3.9-7.9c2.6-1.9,6.4-2.8,11.2-2.8c4.6,0,9.1,1,13.4,3l-3.1,7.5c-1.9-0.8-3.7-1.5-5.4-2c-1.7-0.5-3.4-0.8-5.1-0.8
					c-3.1,0-4.6,0.8-4.6,2.5c0,0.9,0.5,1.7,1.5,2.4c1,0.7,3.2,1.7,6.5,3c3,1.2,5.2,2.3,6.6,3.4c1.4,1,2.4,2.3,3.1,3.6
					S1228.6,1507.4,1228.6,1509.3z"/>
				<path fill="#E8E8E8" d="M1236.3,1472.6c0-3.4,1.9-5.1,5.7-5.1s5.7,1.7,5.7,5.1c0,1.6-0.5,2.9-1.4,3.8c-0.9,0.9-2.4,1.4-4.3,1.4
					C1238.2,1477.7,1236.3,1476,1236.3,1472.6z M1247.1,1520.7h-10.4v-38.2h10.4V1520.7z"/>
				<path fill="#E8E8E8" d="M1293.3,1520.7h-10.4v-22.3c0-2.8-0.5-4.8-1.5-6.2c-1-1.4-2.5-2.1-4.7-2.1c-2.9,0-5,1-6.3,2.9
					c-1.3,1.9-1.9,5.2-1.9,9.7v18h-10.4v-38.2h8l1.4,4.9h0.6c1.2-1.8,2.8-3.2,4.8-4.2s4.4-1.4,7-1.4c4.4,0,7.8,1.2,10.1,3.6
					c2.3,2.4,3.5,5.9,3.5,10.4V1520.7z"/>
				<path fill="#E8E8E8" d="M1321.4,1521.4c-6.2,0-11-1.7-14.4-5.1c-3.5-3.4-5.2-8.2-5.2-14.4c0-6.4,1.6-11.4,4.8-14.9
					s7.6-5.2,13.3-5.2c5.4,0,9.6,1.5,12.6,4.6s4.5,7.3,4.5,12.7v5.1h-24.6c0.1,3,1,5.3,2.6,6.9c1.6,1.7,3.9,2.5,6.9,2.5
					c2.3,0,4.5-0.2,6.5-0.7s4.2-1.2,6.4-2.3v8.1c-1.8,0.9-3.8,1.6-5.8,2C1326.9,1521.1,1324.4,1521.4,1321.4,1521.4z M1319.9,1489.2
					c-2.2,0-3.9,0.7-5.2,2.1c-1.3,1.4-2,3.4-2.2,6h14.6c0-2.6-0.7-4.6-2-6C1323.9,1489.9,1322.1,1489.2,1319.9,1489.2z"/>
				<path fill="#E8E8E8" d="M953,1593.1c1.8,0,4-0.4,6.6-1.2v7.8c-2.6,1.2-5.8,1.7-9.6,1.7c-4.2,0-7.2-1.1-9.1-3.2
					c-1.9-2.1-2.9-5.3-2.9-9.5v-18.4h-5v-4.4l5.7-3.5l3-8.1h6.7v8.1h10.7v7.8h-10.7v18.4c0,1.5,0.4,2.6,1.2,3.3
					C950.5,1592.7,951.6,1593.1,953,1593.1z"/>
				<path fill="#E8E8E8" d="M988.6,1561.8c1.4,0,2.6,0.1,3.5,0.3l-0.8,9.8c-0.8-0.2-1.9-0.3-3.1-0.3c-3.3,0-5.9,0.9-7.8,2.6
					c-1.9,1.7-2.8,4.1-2.8,7.2v19.4h-10.4v-38.2h7.9l1.5,6.4h0.5c1.2-2.1,2.8-3.9,4.8-5.2C984,1562.4,986.2,1561.8,988.6,1561.8z"/>
				<path fill="#E8E8E8" d="M998.6,1552.6c0-3.4,1.9-5.1,5.7-5.1s5.7,1.7,5.7,5.1c0,1.6-0.5,2.9-1.4,3.8c-0.9,0.9-2.4,1.4-4.3,1.4
					C1000.5,1557.7,998.6,1556,998.6,1552.6z M1009.5,1600.7h-10.4v-38.2h10.4V1600.7z"/>
				<path fill="#E8E8E8" d="M1041.4,1601.4c-4.5,0-8-1.6-10.6-4.9h-0.5c0.4,3.2,0.5,5,0.5,5.5v15.5h-10.4v-55h8.5l1.5,5h0.5
					c2.4-3.8,6-5.7,10.8-5.7c4.5,0,8,1.7,10.6,5.2s3.8,8.3,3.8,14.5c0,4.1-0.6,7.6-1.8,10.6c-1.2,3-2.9,5.3-5.1,6.9
					S1044.4,1601.4,1041.4,1601.4z M1038.3,1570.1c-2.6,0-4.5,0.8-5.6,2.4c-1.2,1.6-1.8,4.2-1.8,7.8v1.1c0,4.1,0.6,7,1.8,8.8
					s3.2,2.7,5.8,2.7c4.7,0,7-3.9,7-11.6c0-3.8-0.6-6.6-1.7-8.5C1042.6,1571,1040.8,1570.1,1038.3,1570.1z"/>
				<path fill="#E8E8E8" d="M1100,1600.7h-10.4v-22.3c0-5.5-2.1-8.3-6.2-8.3c-2.9,0-5,1-6.3,3s-1.9,5.2-1.9,9.6v18h-10.4v-53.2h10.4
					v10.8c0,0.8-0.1,2.8-0.2,5.9l-0.2,3.1h0.5c2.3-3.7,6-5.6,11.1-5.6c4.5,0,7.9,1.2,10.2,3.6c2.3,2.4,3.5,5.9,3.5,10.4V1600.7z"/>
				<path fill="#E8E8E8" d="M1145.5,1581.5c0,6.2-1.6,11.1-4.9,14.6c-3.3,3.5-7.8,5.3-13.7,5.3c-3.7,0-6.9-0.8-9.7-2.4
					c-2.8-1.6-5-3.9-6.5-6.9s-2.3-6.5-2.3-10.5c0-6.2,1.6-11.1,4.9-14.6c3.3-3.5,7.8-5.2,13.7-5.2c3.7,0,6.9,0.8,9.7,2.4
					c2.8,1.6,5,3.9,6.5,6.9C1144.7,1574,1145.5,1577.5,1145.5,1581.5z M1119,1581.5c0,3.8,0.6,6.6,1.9,8.6c1.2,1.9,3.3,2.9,6.1,2.9
					c2.8,0,4.8-1,6-2.9s1.8-4.8,1.8-8.6c0-3.8-0.6-6.6-1.8-8.5c-1.2-1.9-3.2-2.8-6-2.8c-2.8,0-4.8,0.9-6,2.8
					C1119.6,1574.9,1119,1577.7,1119,1581.5z"/>
				<path fill="#E8E8E8" d="M1180.7,1589.3c0,3.9-1.4,6.9-4.1,9s-6.8,3.1-12.2,3.1c-2.8,0-5.2-0.2-7.1-0.6c-2-0.4-3.8-0.9-5.5-1.7
					v-8.6c1.9,0.9,4.1,1.7,6.5,2.3c2.4,0.6,4.6,0.9,6.4,0.9c3.8,0,5.7-1.1,5.7-3.3c0-0.8-0.3-1.5-0.8-2c-0.5-0.5-1.4-1.1-2.6-1.7
					c-1.2-0.6-2.9-1.4-4.9-2.3c-2.9-1.2-5.1-2.4-6.5-3.4c-1.4-1-2.4-2.2-3-3.6c-0.6-1.4-0.9-3-0.9-5c0-3.4,1.3-6,3.9-7.9
					c2.6-1.9,6.4-2.8,11.2-2.8c4.6,0,9.1,1,13.4,3l-3.1,7.5c-1.9-0.8-3.7-1.5-5.4-2c-1.7-0.5-3.4-0.8-5.1-0.8
					c-3.1,0-4.6,0.8-4.6,2.5c0,0.9,0.5,1.7,1.5,2.4c1,0.7,3.2,1.7,6.5,3c3,1.2,5.2,2.3,6.6,3.4c1.4,1,2.4,2.3,3.1,3.6
					C1180.4,1585.8,1180.7,1587.4,1180.7,1589.3z"/>
				<path fill="#E8E8E8" d="M1209.8,1601.4c-4.5,0-8-1.6-10.6-4.9h-0.5c0.4,3.2,0.5,5,0.5,5.5v15.5h-10.4v-55h8.5l1.5,5h0.5
					c2.4-3.8,6-5.7,10.8-5.7c4.5,0,8,1.7,10.6,5.2s3.8,8.3,3.8,14.5c0,4.1-0.6,7.6-1.8,10.6c-1.2,3-2.9,5.3-5.1,6.9
					S1212.8,1601.4,1209.8,1601.4z M1206.8,1570.1c-2.6,0-4.5,0.8-5.6,2.4c-1.2,1.6-1.8,4.2-1.8,7.8v1.1c0,4.1,0.6,7,1.8,8.8
					s3.2,2.7,5.8,2.7c4.7,0,7-3.9,7-11.6c0-3.8-0.6-6.6-1.7-8.5C1211,1571,1209.2,1570.1,1206.8,1570.1z"/>
				<path fill="#E8E8E8" d="M1268.4,1600.7H1258v-22.3c0-5.5-2.1-8.3-6.2-8.3c-2.9,0-5,1-6.3,3s-1.9,5.2-1.9,9.6v18h-10.4v-53.2
					h10.4v10.8c0,0.8-0.1,2.8-0.2,5.9l-0.2,3.1h0.5c2.3-3.7,6-5.6,11.1-5.6c4.5,0,7.9,1.2,10.2,3.6c2.3,2.4,3.5,5.9,3.5,10.4V1600.7
					z"/>
				<path fill="#E8E8E8" d="M1303.4,1600.7l-2-5.2h-0.3c-1.8,2.2-3.6,3.7-5.4,4.6c-1.9,0.9-4.3,1.3-7.3,1.3c-3.7,0-6.6-1-8.7-3.1
					c-2.1-2.1-3.2-5.1-3.2-9c0-4.1,1.4-7,4.3-9c2.8-1.9,7.1-3,12.8-3.2l6.6-0.2v-1.7c0-3.9-2-5.8-5.9-5.8c-3.1,0-6.6,0.9-10.8,2.8
					l-3.5-7c4.4-2.3,9.3-3.5,14.6-3.5c5.1,0,9.1,1.1,11.8,3.3c2.7,2.2,4.1,5.6,4.1,10.2v25.5H1303.4z M1300.4,1583l-4,0.1
					c-3,0.1-5.3,0.6-6.8,1.6c-1.5,1-2.2,2.5-2.2,4.6c0,2.9,1.7,4.4,5.1,4.4c2.4,0,4.3-0.7,5.8-2.1c1.4-1.4,2.2-3.2,2.2-5.5V1583z"/>
				<path fill="#E8E8E8" d="M1337.5,1593.1c1.8,0,4-0.4,6.6-1.2v7.8c-2.6,1.2-5.8,1.7-9.6,1.7c-4.2,0-7.2-1.1-9.1-3.2
					c-1.9-2.1-2.9-5.3-2.9-9.5v-18.4h-5v-4.4l5.7-3.5l3-8.1h6.7v8.1h10.7v7.8H1333v18.4c0,1.5,0.4,2.6,1.2,3.3
					C1335.1,1592.7,1336.2,1593.1,1337.5,1593.1z"/>
				<path fill="#E8E8E8" d="M1369.1,1601.4c-6.2,0-11-1.7-14.4-5.1c-3.5-3.4-5.2-8.2-5.2-14.4c0-6.4,1.6-11.4,4.8-14.9
					s7.6-5.2,13.3-5.2c5.4,0,9.6,1.5,12.6,4.6s4.5,7.3,4.5,12.7v5.1h-24.6c0.1,3,1,5.3,2.6,6.9c1.6,1.7,3.9,2.5,6.9,2.5
					c2.3,0,4.5-0.2,6.5-0.7s4.2-1.2,6.4-2.3v8.1c-1.8,0.9-3.8,1.6-5.8,2C1374.6,1601.1,1372.1,1601.4,1369.1,1601.4z M1367.7,1569.2
					c-2.2,0-3.9,0.7-5.2,2.1c-1.3,1.4-2,3.4-2.2,6h14.6c0-2.6-0.7-4.6-2-6C1371.6,1569.9,1369.9,1569.2,1367.7,1569.2z"/>
			</g>
		</g>
	</g>
	<g>
		<path fill="#6AA1BE" d="M681.1,1082.7c-9.6-3.7-15.6,1.1-24.5,1.4c-8.2,0.3-7.6-1.8-10.4-8.4c-3.6-8.4-5.6-14.7-11.6-22.2
			c-5.3-6.6-8.7-10-7.3-19.1c1.4-8.9,7.1-15.4,7-25c-0.1-9.5-3.9-18.6-10.5-25.5c-14.9-15.5-39.9-6.3-53.1-22.2
			c-6.3-7.6-8.6-16.2-16.9-22.5c-7.7-5.9-17.1-9.3-26.8-9.7c-22.3-1-39.2,12.8-47.6,32.5c-3,7.1-5.4,14.9-11.9,19.8
			c-7.9,6-18.7,5.2-27,10.5c-19.3,12.3-20.9,35.1-9.9,53c10.5,17.1-3.2,27.3-7.7,44.5c-3,11.8-3.3,18.5-13.9,26
			c-10.8,7.7-20.1,13.8-22.8,27.9c-1.3,6.9-0.7,14.5,2,21c4.2,10.2,13.4,13.7,20.2,21.7c14,16.3,2.7,40.1,17.9,57.6
			c11.5,13.3,29.8,19.2,46.9,15.2c18.8-4.3,29-30.7,48.7-27.7c16.3,2.5,27.1,10.4,43.3-0.3c20-13.2,16.3-31.9,10.9-51.2
			c-2.7-9.6,2.5-17.5,6.3-26.2c6.3-14.8,10.9-14.5,25.5-17.7c6.1-1.3,18.7-12,24.4-9.9c4,1.5,3,4.5,4.8,7.5
			c3.7,6.1,6,11.3,12.4,15.2C691.4,1174.4,727,1100.2,681.1,1082.7z"/>
		<path fill="#42819B" d="M424.6,1250.6c-7.2-7.2-12.4-16.4-14.2-26.4c-1.6-9.4,1.2-20.4-3-29.1c-3.8-7.8-12.9-11.7-18.3-18.2
			c-6.3-7.4-9.4-16.9-9.3-26.6c0.1-10.5,4.2-20.6,11.2-28.3c5.6-6.2,13.9-8.4,19.5-14.1c5.9-6,5.3-14.5,7.5-22.2
			c2.5-8.9,10.5-16.8,11.6-25.9c1-8-4.5-10.8-7.9-17.6c-4.2-8.4-5.2-18.6-3.2-27.7c2.2-9.8,8-18.8,16-24.9
			c9.4-7.1,22.7-6.2,31.1-13.9c8.2-7.4,9.3-21.1,15.8-30c6.7-9.1,16.4-16,27.2-19.4c19.5-6.1,41.2-0.6,55.3,14.3
			c6.4,6.8,8.9,17.8,16.8,22.5c8.9,5.3,22,2.9,31.7,6.6c18.9,7.2,30.8,27.7,27.2,47.7c-1.4,7.8-8.7,16.1-6.6,24.1
			c2,7.4,11.6,13.7,15.1,20.8c1.9,3.7,2.7,14.9,6,16.5c0.8,0.4,6.3-2.5,7.3-2.8c5.1-1.2,10.4-1.5,15.6-0.5
			c46.7,8.4,38.1,78.7-6.5,83.3c-11.1,1.1-22.6-2.2-30.6-10.2c-2.2-2.1-8.2-16.5-9.5-16.9c-2.4-0.7-15.3,8.4-18.7,9.3
			c-9.5,2.5-16.5,0.1-21.8,9.8c-5.3,9.6-10.2,20.1-6.6,30.3c3.8,10.8,6.1,20.8,2.5,32.2c-6.1,19.3-26.1,31.8-46.1,29.4
			c-9.2-1.1-17.6-8.2-26.8-4.5c-10.4,4.2-16,17-26.3,22.3C466.2,1270.9,440.6,1266.6,424.6,1250.6z M412.1,1181.8
			c14.4,14.4,4.7,35.1,13.8,51.6c9.5,17,30.4,25.1,48.9,19.4c16.4-5,23.3-25.5,40.8-27.4c15.9-1.8,27.6,11.1,43.9,2.4
			c16.5-8.8,18.2-25.5,13-41.4c-4.9-15.2-0.3-33.8,10.3-46.9c5.5-6.8,11-6.9,18.6-8.4c9.2-1.8,14.8-6.5,23.1-9.4
			c17.8-6.4,18.4,21.1,34.9,25.2c45,11.3,51.9-69.4,1.2-58.1c-19.8,4.4-16.8-11.1-24.9-24.3c-4.6-7.5-12.8-12.6-14.6-21.8
			c-1.9-9.8,4.8-17.3,6.7-26.4c4.1-19.3-10.1-34.4-28-37.8c-9.2-1.7-19.6-1.1-27.7-6.8c-11-7.7-13-22.5-25.1-30.1
			c-14.1-8.8-32.7-8.3-46.4,1.2c-17.9,12.4-16,38.9-37,47.7c-11.1,4.6-21.6,4.4-29.2,15.6c-5.5,8-7.1,18.9-3.6,28.1
			c4,10.7,12.6,14.7,10.2,27.6c-1.7,9.3-8.4,16.4-11.4,25.1c-4,11.5-2.7,22.5-13,30.9c-5.6,4.5-12.2,6.5-17.1,11.9
			c-6.9,7.6-9.6,18.4-7.3,28.4C395,1169.6,404.4,1174,412.1,1181.8z"/>
		<g>
			<path fill="#CF96C3" d="M331,894.1c9.6-11.8,21.3-20.5,21.4-37.2c0.1-15.1-9.7-29.2-23.8-34.7c-16-6.2-33.3,1.3-49.8,0
				c-17.2-1.4-31.7-5.2-45.5,8.5c-27.4,27.2,5,55.9,20.4,78.7c9.1,13.5,23.9,20.9,40.4,18.1C315,923.9,319.2,908.5,331,894.1z"/>
			<path fill="#B163A8" d="M255.3,921.1c-6.8-6.6-10-16-15.6-23.4c-4.7-6.3-10.8-11.4-15.3-17.9c-10.3-14.8-10.3-33.6,0.4-48.2
				c10.3-14,26.4-18.9,43.1-16.9c18.1,2.2,36.8-3.2,54.4-0.1c17.8,3.2,32.1,17.2,35.1,35.1c3.3,20.1-8.1,31.8-20.1,45.9
				c-10.2,12-14.3,26-29.5,33.5C290.9,937.4,268.9,934.7,255.3,921.1z M337.3,834.7c-12-12-27.2-8.8-42.3-7.2
				c-14.5,1.5-30.7-4.8-44.5-0.7c-12.8,3.9-22.6,16.5-22.3,30c0.4,16.6,17,27.2,25.2,40.1c8.2,12.8,14.8,24,31.6,25.1
				c14.5,1,25.7-6.7,33.2-18.4C331.1,883.4,361.9,859.3,337.3,834.7z"/>
		</g>
		<g>
			<path fill="#CF96C3" d="M331,792c9.6-11.8,21.3-20.5,21.4-37.2c0.1-15.1-9.7-29.2-23.8-34.7c-16-6.2-33.3,1.3-49.8,0
				c-17.2-1.4-31.7-5.2-45.5,8.5c-27.4,27.2,5,55.9,20.4,78.7c9.1,13.5,23.9,20.9,40.4,18.1C315,821.9,319.2,806.5,331,792z"/>
			<path fill="#B163A8" d="M255.3,819c-6.8-6.6-10-16-15.6-23.4c-4.7-6.3-10.8-11.4-15.3-17.9c-10.3-14.8-10.3-33.6,0.4-48.2
				c10.3-14,26.4-18.9,43.1-16.9c18.1,2.2,36.8-3.2,54.4-0.1c17.8,3.2,32.1,17.2,35.1,35.1c3.3,20.1-8.1,31.8-20.1,45.9
				c-10.2,12-14.3,26-29.5,33.5C290.9,835.4,268.9,832.7,255.3,819z M337.3,732.7c-12-12-27.2-8.8-42.3-7.2
				c-14.5,1.5-30.7-4.8-44.5-0.7c-12.8,3.9-22.6,16.5-22.3,30c0.4,16.6,17,27.2,25.2,40.1c8.2,12.8,14.8,24,31.6,25.1
				c14.5,1,25.7-6.7,33.2-18.4C331.1,781.4,361.9,757.2,337.3,732.7z"/>
		</g>
		<g>
			<path fill="#CF96C3" d="M331,119.8c9.6-11.8,21.3-20.5,21.4-37.2c0.1-15.1-9.7-29.2-23.8-34.7c-16-6.2-33.3,1.3-49.8,0
				c-17.2-1.4-31.7-5.2-45.5,8.5c-27.4,27.2,5,55.9,20.4,78.7c9.1,13.5,23.9,20.9,40.4,18.1C315,149.6,319.2,134.3,331,119.8z"/>
			<path fill="#B163A8" d="M255.3,146.8c-6.8-6.6-10-16-15.6-23.4c-4.7-6.3-10.8-11.4-15.3-17.9c-10.3-14.8-10.3-33.6,0.4-48.2
				c10.3-14,26.4-18.9,43.1-16.9c18.1,2.2,36.8-3.2,54.4-0.1c17.8,3.2,32.1,17.2,35.1,35.1c3.3,20.1-8.1,31.8-20.1,45.9
				c-10.2,12-14.3,26-29.5,33.5C290.9,163.1,268.9,160.5,255.3,146.8z M337.3,60.4c-12-12-27.2-8.8-42.3-7.2
				c-14.5,1.5-30.7-4.8-44.5-0.7c-12.8,3.9-22.6,16.5-22.3,30c0.4,16.6,17,27.2,25.2,40.1c8.2,12.8,14.8,24,31.6,25.1
				c14.5,1,25.7-6.7,33.2-18.4C331.1,109.2,361.9,85,337.3,60.4z"/>
		</g>
		<g>
			<path fill="#D46A61" d="M383.8,1163c19.6-19.6,18.2-53.1-3.4-70.5c-13.4-10.8-12.8-14-7.9-30c4.7-15.3,0.4-31.3-12.4-41.4
				c-7.2-5.7-14-7.2-22.9-7.6c-5.3-0.2-12.7,2.4-13.2-4.7c-0.2-3.6,8.8-11,10.5-13.7c4-6.4,6.5-13.8,7.2-21.4
				c2.2-26-17.6-49.5-43.6-51.8c-12.4-1.1-25.1,2.9-34.7,10.9c-14.3,11.9-14.7,26.2-18.2,42.9c-2.9,13.6-11.5,19.6-20.6,29
				c-12.1,12.6-11.4,23.2-13.3,39.4c-2,17-15.2,22.2-25,34.1c-8.5,10.2-12.3,23.6-10.6,36.7c1.6,13.1,8.8,25.4,19.9,32.6
				c13.9,9,28.2,10.7,35.8,26.9c7.1,15.2,13.2,28.1,29.8,34.8c13.4,5.4,29,4.5,41.7-2.7c13.3-7.5,19.4-24.8,34.6-28.7
				C354.9,1173.5,369.5,1177.3,383.8,1163z"/>
			<path fill="#A24A48" d="M241.2,1203.1c-8.4-8.4-10.7-18.5-16.3-28.3c-6.1-10.9-15.5-13.1-26-18.6c-19.4-10-31.1-29.2-29.4-51.3
				c0.7-9.8,4.2-19.2,9.9-27.2c6.3-8.7,17.1-13.6,22.6-22.7c5.6-9.3,2.3-19.8,4.4-29.8c2.2-10.5,8.7-19.4,16.3-26.6
				c9-8.5,14.8-13.8,17.1-26.5c2.2-12.2,2.6-22.1,9.9-32.8c11.6-16.8,32.3-25.7,52.4-22.6c43.7,6.7,59.2,60.5,29.4,91.4
				c17.3-0.3,31.9,3.6,41.9,19.2c10.7,16.5,4.4,28.3,1.1,45.4c-2,10.4,4.4,10.9,11.4,16.9c6,5.2,10.6,12,13.6,19.3
				c5.5,13.6,5.1,29-0.9,42.3c-7.1,15.8-21.9,27.3-38.9,30.6c-6.6,1.3-13.6,0.1-20.1,1.6c-8.4,2.1-12.5,8.2-18,14.3
				C300.8,1221.6,265.1,1226.9,241.2,1203.1z M228.5,1159.4c10,10,10.9,25.3,21,35.5c8.7,8.8,21.4,13.3,33.8,12.1
				c13.4-1.3,22.6-8.6,31-18.3c12.5-14.3,21.5-15.7,39.3-17.7c27.6-3.2,46-31.4,35.3-57.7c-5.1-12.7-15.6-14.9-23-24.8
				c-9.6-13,2.9-24.4,3-37.9c0.1-14-10.5-27.9-24.4-30.7c-8.8-1.8-30.3,3.7-25.9-13.2c2.4-9.1,12.8-15.2,15.7-25
				c3.7-12.6,1.2-26.3-6.4-36.8c-15.6-21.4-47.8-22.7-65.3-3c-11,12.4-8.4,25.9-13.2,40.5c-4.9,15-18.1,20.9-26.3,33.3
				c-8.9,13.5-2.7,29.3-10.1,43.3c-6.9,13.1-21.8,18.6-28.1,32.3c-5.7,12.5-5.1,27.2,1.9,39C196.7,1146.8,215.9,1146.7,228.5,1159.4
				z"/>
		</g>
	</g>
	<g>
		<path fill="#6AA1BE" d="M1434.2,1082.7c-9.6-3.7-15.6,1.1-24.5,1.4c-8.2,0.3-7.6-1.8-10.4-8.4c-3.6-8.4-5.6-14.7-11.6-22.2
			c-5.3-6.6-8.7-10-7.3-19.1c1.4-8.9,7.1-15.4,7-25c-0.1-9.5-3.9-18.6-10.5-25.5c-14.9-15.5-39.9-6.3-53.1-22.2
			c-6.3-7.6-8.6-16.2-16.9-22.5c-7.7-5.9-17.1-9.3-26.8-9.7c-22.3-1-39.2,12.8-47.6,32.5c-3,7.1-5.4,14.9-11.9,19.8
			c-7.9,6-18.7,5.2-27,10.5c-19.3,12.3-20.9,35.1-9.9,53c10.5,17.1-3.2,27.3-7.7,44.5c-3,11.8-3.3,18.5-13.9,26
			c-10.8,7.7-20.1,13.8-22.8,27.9c-1.3,6.9-0.7,14.5,2,21c4.2,10.2,13.4,13.7,20.2,21.7c14,16.3,2.7,40.1,17.9,57.6
			c11.5,13.3,29.8,19.2,46.9,15.2c18.8-4.3,29-30.7,48.7-27.7c16.3,2.5,27.1,10.4,43.3-0.3c20-13.2,16.3-31.9,10.9-51.2
			c-2.7-9.6,2.5-17.5,6.3-26.2c6.3-14.8,10.9-14.5,25.5-17.7c6.1-1.3,18.7-12,24.4-9.9c4,1.5,3,4.5,4.8,7.5
			c3.7,6.1,6,11.3,12.4,15.2C1444.5,1174.4,1480.1,1100.2,1434.2,1082.7z"/>
		<path fill="#42819B" d="M1177.7,1250.6c-7.2-7.2-12.4-16.4-14.2-26.4c-1.6-9.4,1.2-20.4-3-29.1c-3.8-7.8-12.9-11.7-18.3-18.2
			c-6.3-7.4-9.4-16.9-9.3-26.6c0.1-10.5,4.2-20.6,11.2-28.3c5.6-6.2,13.9-8.4,19.5-14.1c5.9-6,5.3-14.5,7.5-22.2
			c2.5-8.9,10.5-16.8,11.6-25.9c1-8-4.5-10.8-7.9-17.6c-4.2-8.4-5.2-18.6-3.2-27.7c2.2-9.8,8-18.8,16-24.9
			c9.4-7.1,22.7-6.2,31.1-13.9c8.2-7.4,9.3-21.1,15.8-30c6.7-9.1,16.4-16,27.2-19.4c19.5-6.1,41.2-0.6,55.3,14.3
			c6.4,6.8,8.9,17.8,16.8,22.5c8.9,5.3,22,2.9,31.7,6.6c18.9,7.2,30.8,27.7,27.2,47.7c-1.4,7.8-8.7,16.1-6.6,24.1
			c2,7.4,11.6,13.7,15.1,20.8c1.9,3.7,2.7,14.9,6,16.5c0.8,0.4,6.3-2.5,7.3-2.8c5.1-1.2,10.4-1.5,15.6-0.5
			c46.7,8.4,38.1,78.7-6.5,83.3c-11.1,1.1-22.6-2.2-30.6-10.2c-2.2-2.1-8.2-16.5-9.5-16.9c-2.4-0.7-15.3,8.4-18.7,9.3
			c-9.5,2.5-16.5,0.1-21.8,9.8c-5.3,9.6-10.2,20.1-6.6,30.3c3.8,10.8,6.1,20.8,2.5,32.2c-6.1,19.3-26.1,31.8-46.1,29.4
			c-9.2-1.1-17.6-8.2-26.8-4.5c-10.4,4.2-16,17-26.3,22.3C1219.3,1270.9,1193.7,1266.6,1177.7,1250.6z M1165.2,1181.8
			c14.4,14.4,4.7,35.1,13.8,51.6c9.5,17,30.4,25.1,48.9,19.4c16.4-5,23.3-25.5,40.8-27.4c15.9-1.8,27.6,11.1,43.9,2.4
			c16.5-8.8,18.2-25.5,13-41.4c-4.9-15.2-0.3-33.8,10.3-46.9c5.5-6.8,11-6.9,18.6-8.4c9.2-1.8,14.8-6.5,23.1-9.4
			c17.8-6.4,18.4,21.1,34.9,25.2c45,11.3,51.9-69.4,1.2-58.1c-19.8,4.4-16.8-11.1-24.9-24.3c-4.6-7.5-12.8-12.6-14.6-21.8
			c-1.9-9.8,4.8-17.3,6.7-26.4c4.1-19.3-10.1-34.4-28-37.8c-9.2-1.7-19.6-1.1-27.7-6.8c-11-7.7-13-22.5-25.1-30.1
			c-14.1-8.8-32.7-8.3-46.4,1.2c-17.9,12.4-16,38.9-37,47.7c-11.1,4.6-21.6,4.4-29.2,15.6c-5.5,8-7.1,18.9-3.6,28.1
			c4,10.7,12.6,14.7,10.2,27.6c-1.7,9.3-8.4,16.4-11.4,25.1c-4,11.5-2.7,22.5-13,30.9c-5.6,4.5-12.2,6.5-17.1,11.9
			c-6.9,7.6-9.6,18.4-7.3,28.4C1148.1,1169.6,1157.5,1174,1165.2,1181.8z"/>
		<g>
			<path fill="#CF96C3" d="M1084,894.1c9.6-11.8,21.3-20.5,21.4-37.2c0.1-15.1-9.7-29.2-23.8-34.7c-16-6.2-33.3,1.3-49.8,0
				c-17.2-1.4-31.7-5.2-45.5,8.5c-27.4,27.2,5,55.9,20.4,78.7c9.1,13.5,23.9,20.9,40.4,18.1C1068.1,923.9,1072.2,908.5,1084,894.1z"
				/>
			<path fill="#B163A8" d="M1008.4,921.1c-6.8-6.6-10-16-15.6-23.4c-4.7-6.3-10.8-11.4-15.3-17.9c-10.3-14.8-10.3-33.6,0.4-48.2
				c10.3-14,26.4-18.9,43.1-16.9c18.1,2.2,36.8-3.2,54.4-0.1c17.8,3.2,32.1,17.2,35.1,35.1c3.3,20.1-8.1,31.8-20.1,45.9
				c-10.2,12-14.3,26-29.5,33.5C1044,937.4,1022,934.7,1008.4,921.1z M1090.4,834.7c-12-12-27.2-8.8-42.3-7.2
				c-14.5,1.5-30.7-4.8-44.5-0.7c-12.8,3.9-22.6,16.5-22.3,30c0.4,16.6,17,27.2,25.2,40.1c8.2,12.8,14.8,24,31.6,25.1
				c14.5,1,25.7-6.7,33.2-18.4C1084.2,883.4,1114.9,859.3,1090.4,834.7z"/>
		</g>
		<g>
			<path fill="#CF96C3" d="M1084,792c9.6-11.8,21.3-20.5,21.4-37.2c0.1-15.1-9.7-29.2-23.8-34.7c-16-6.2-33.3,1.3-49.8,0
				c-17.2-1.4-31.7-5.2-45.5,8.5c-27.4,27.2,5,55.9,20.4,78.7c9.1,13.5,23.9,20.9,40.4,18.1C1068.1,821.9,1072.2,806.5,1084,792z"/>
			<path fill="#B163A8" d="M1008.4,819c-6.8-6.6-10-16-15.6-23.4c-4.7-6.3-10.8-11.4-15.3-17.9c-10.3-14.8-10.3-33.6,0.4-48.2
				c10.3-14,26.4-18.9,43.1-16.9c18.1,2.2,36.8-3.2,54.4-0.1c17.8,3.2,32.1,17.2,35.1,35.1c3.3,20.1-8.1,31.8-20.1,45.9
				c-10.2,12-14.3,26-29.5,33.5C1044,835.4,1022,832.7,1008.4,819z M1090.4,732.7c-12-12-27.2-8.8-42.3-7.2
				c-14.5,1.5-30.7-4.8-44.5-0.7c-12.8,3.9-22.6,16.5-22.3,30c0.4,16.6,17,27.2,25.2,40.1c8.2,12.8,14.8,24,31.6,25.1
				c14.5,1,25.7-6.7,33.2-18.4C1084.2,781.4,1114.9,757.2,1090.4,732.7z"/>
		</g>
		<g>
			<path fill="#CF96C3" d="M1084,593.8c9.6-11.8,21.3-20.5,21.4-37.2c0.1-15.1-9.7-29.2-23.8-34.7c-16-6.2-33.3,1.3-49.8,0
				c-17.2-1.4-31.7-5.2-45.5,8.5c-27.4,27.2,5,55.9,20.4,78.7c9.1,13.5,23.9,20.9,40.4,18.1C1068.1,623.7,1072.2,608.3,1084,593.8z"
				/>
			<path fill="#B163A8" d="M1008.4,620.8c-6.8-6.6-10-16-15.6-23.4c-4.7-6.3-10.8-11.4-15.3-17.9c-10.3-14.8-10.3-33.6,0.4-48.2
				c10.3-14,26.4-18.9,43.1-16.9c18.1,2.2,36.8-3.2,54.4-0.1c17.8,3.2,32.1,17.2,35.1,35.1c3.3,20.1-8.1,31.8-20.1,45.9
				c-10.2,12-14.3,26-29.5,33.5C1044,637.2,1022,634.5,1008.4,620.8z M1090.4,534.5c-12-12-27.2-8.8-42.3-7.2
				c-14.5,1.5-30.7-4.8-44.5-0.7c-12.8,3.9-22.6,16.5-22.3,30c0.4,16.6,17,27.2,25.2,40.1c8.2,12.8,14.8,24,31.6,25.1
				c14.5,1,25.7-6.7,33.2-18.4C1084.2,583.2,1114.9,559,1090.4,534.5z"/>
		</g>
		<g>
			<path fill="#D46A61" d="M1136.9,1163c19.6-19.6,18.2-53.1-3.4-70.5c-13.4-10.8-12.8-14-7.9-30c4.7-15.3,0.4-31.3-12.4-41.4
				c-7.2-5.7-14-7.2-22.9-7.6c-5.3-0.2-12.7,2.4-13.2-4.7c-0.2-3.6,8.8-11,10.5-13.7c4-6.4,6.5-13.8,7.2-21.4
				c2.2-26-17.6-49.5-43.6-51.8c-12.4-1.1-25.1,2.9-34.7,10.9c-14.3,11.9-14.7,26.2-18.2,42.9c-2.9,13.6-11.5,19.6-20.6,29
				c-12.1,12.6-11.4,23.2-13.3,39.4c-2,17-15.2,22.2-25,34.1c-8.5,10.2-12.3,23.6-10.6,36.7c1.6,13.1,8.8,25.4,19.9,32.6
				c13.9,9,28.2,10.7,35.8,26.9c7.1,15.2,13.2,28.1,29.8,34.8c13.4,5.4,29,4.5,41.7-2.7c13.3-7.5,19.4-24.8,34.6-28.7
				C1108,1173.5,1122.6,1177.3,1136.9,1163z"/>
			<path fill="#A24A48" d="M994.3,1203.1c-8.4-8.4-10.7-18.5-16.3-28.3c-6.1-10.9-15.5-13.1-26-18.6c-19.4-10-31.1-29.2-29.4-51.3
				c0.7-9.8,4.2-19.2,9.9-27.2c6.3-8.7,17.1-13.6,22.6-22.7c5.6-9.3,2.3-19.8,4.4-29.8c2.2-10.5,8.7-19.4,16.3-26.6
				c9-8.5,14.8-13.8,17.1-26.5c2.2-12.2,2.6-22.1,9.9-32.8c11.6-16.8,32.3-25.7,52.4-22.6c43.7,6.7,59.2,60.5,29.4,91.4
				c17.3-0.3,31.9,3.6,41.9,19.2c10.7,16.5,4.4,28.3,1.1,45.4c-2,10.4,4.4,10.9,11.4,16.9c6,5.2,10.6,12,13.6,19.3
				c5.5,13.6,5.1,29-0.9,42.3c-7.1,15.8-21.9,27.3-38.9,30.6c-6.6,1.3-13.6,0.1-20.1,1.6c-8.4,2.1-12.5,8.2-18,14.3
				C1053.8,1221.6,1018.1,1226.9,994.3,1203.1z M981.6,1159.4c10,10,10.9,25.3,21,35.5c8.7,8.8,21.4,13.3,33.8,12.1
				c13.4-1.3,22.6-8.6,31-18.3c12.5-14.3,21.5-15.7,39.3-17.7c27.6-3.2,46-31.4,35.3-57.7c-5.1-12.7-15.6-14.9-23-24.8
				c-9.6-13,2.9-24.4,3-37.9c0.1-14-10.5-27.9-24.4-30.7c-8.8-1.8-30.3,3.7-25.9-13.2c2.4-9.1,12.8-15.2,15.7-25
				c3.7-12.6,1.2-26.3-6.4-36.8c-15.6-21.4-47.8-22.7-65.3-3c-11,12.4-8.4,25.9-13.2,40.5c-4.9,15-18.1,20.9-26.3,33.3
				c-8.9,13.5-2.7,29.3-10.1,43.3c-6.9,13.1-21.8,18.6-28.1,32.3c-5.7,12.5-5.1,27.2,1.9,39C949.7,1146.8,969,1146.7,981.6,1159.4z"
				/>
		</g>
	</g>
	<g>
		<path fill="#6AA1BE" d="M2205.3,1082.7c-9.6-3.7-15.6,1.1-24.5,1.4c-8.2,0.3-7.6-1.8-10.4-8.4c-3.6-8.4-5.6-14.7-11.6-22.2
			c-5.3-6.6-8.7-10-7.3-19.1c1.4-8.9,7.1-15.4,7-25c-0.1-9.5-3.9-18.6-10.5-25.5c-14.9-15.5-39.9-6.3-53.1-22.2
			c-6.3-7.6-8.6-16.2-16.9-22.5c-7.7-5.9-17.1-9.3-26.8-9.7c-22.3-1-39.2,12.8-47.6,32.5c-3,7.1-5.4,14.9-11.9,19.8
			c-7.9,6-18.7,5.2-27,10.5c-19.3,12.3-20.9,35.1-9.9,53c10.5,17.1-3.2,27.3-7.7,44.5c-3,11.8-3.3,18.5-13.9,26
			c-10.8,7.7-20.1,13.8-22.8,27.9c-1.3,6.9-0.7,14.5,2,21c4.2,10.2,13.4,13.7,20.2,21.7c14,16.3,2.7,40.1,17.9,57.6
			c11.5,13.3,29.8,19.2,46.9,15.2c18.8-4.3,29-30.7,48.7-27.7c16.3,2.5,27.1,10.4,43.3-0.3c20-13.2,16.3-31.9,10.9-51.2
			c-2.7-9.6,2.5-17.5,6.3-26.2c6.3-14.8,10.9-14.5,25.5-17.7c6.1-1.3,18.7-12,24.4-9.9c4,1.5,3,4.5,4.8,7.5
			c3.7,6.1,6,11.3,12.4,15.2C2215.6,1174.4,2251.2,1100.2,2205.3,1082.7z"/>
		<path fill="#42819B" d="M1948.8,1250.6c-7.2-7.2-12.4-16.4-14.2-26.4c-1.6-9.4,1.2-20.4-3-29.1c-3.8-7.8-12.9-11.7-18.3-18.2
			c-6.3-7.4-9.4-16.9-9.3-26.6c0.1-10.5,4.2-20.6,11.2-28.3c5.6-6.2,13.9-8.4,19.5-14.1c5.9-6,5.3-14.5,7.5-22.2
			c2.5-8.9,10.5-16.8,11.6-25.9c1-8-4.5-10.8-7.9-17.6c-4.2-8.4-5.2-18.6-3.2-27.7c2.2-9.8,8-18.8,16-24.9
			c9.4-7.1,22.7-6.2,31.1-13.9c8.2-7.4,9.3-21.1,15.8-30c6.7-9.1,16.4-16,27.2-19.4c19.5-6.1,41.2-0.6,55.3,14.3
			c6.4,6.8,8.9,17.8,16.8,22.5c8.9,5.3,22,2.9,31.7,6.6c18.9,7.2,30.8,27.7,27.2,47.7c-1.4,7.8-8.7,16.1-6.6,24.1
			c2,7.4,11.6,13.7,15.1,20.8c1.9,3.7,2.7,14.9,6,16.5c0.8,0.4,6.3-2.5,7.3-2.8c5.1-1.2,10.4-1.5,15.6-0.5
			c46.7,8.4,38.1,78.7-6.5,83.3c-11.1,1.1-22.6-2.2-30.6-10.2c-2.2-2.1-8.2-16.5-9.5-16.9c-2.4-0.7-15.3,8.4-18.7,9.3
			c-9.5,2.5-16.5,0.1-21.8,9.8c-5.3,9.6-10.2,20.1-6.6,30.3c3.8,10.8,6.1,20.8,2.5,32.2c-6.1,19.3-26.1,31.8-46.1,29.4
			c-9.2-1.1-17.6-8.2-26.8-4.5c-10.4,4.2-16,17-26.3,22.3C1990.4,1270.9,1964.8,1266.6,1948.8,1250.6z M1936.3,1181.8
			c14.4,14.4,4.7,35.1,13.8,51.6c9.5,17,30.4,25.1,48.9,19.4c16.4-5,23.3-25.5,40.8-27.4c15.9-1.8,27.6,11.1,43.9,2.4
			c16.5-8.8,18.2-25.5,13-41.4c-4.9-15.2-0.3-33.8,10.3-46.9c5.5-6.8,11-6.9,18.6-8.4c9.2-1.8,14.8-6.5,23.1-9.4
			c17.8-6.4,18.4,21.1,34.9,25.2c45,11.3,51.9-69.4,1.2-58.1c-19.8,4.4-16.8-11.1-24.9-24.3c-4.6-7.5-12.8-12.6-14.6-21.8
			c-1.9-9.8,4.8-17.3,6.7-26.4c4.1-19.3-10.1-34.4-28-37.8c-9.2-1.7-19.6-1.1-27.7-6.8c-11-7.7-13-22.5-25.1-30.1
			c-14.1-8.8-32.7-8.3-46.4,1.2c-17.9,12.4-16,38.9-37,47.7c-11.1,4.6-21.6,4.4-29.2,15.6c-5.5,8-7.1,18.9-3.6,28.1
			c4,10.7,12.6,14.7,10.2,27.6c-1.7,9.3-8.4,16.4-11.4,25.1c-4,11.5-2.7,22.5-13,30.9c-5.6,4.5-12.2,6.5-17.1,11.9
			c-6.9,7.6-9.6,18.4-7.3,28.4C1919.2,1169.6,1928.5,1174,1936.3,1181.8z"/>
		<g>
			<path fill="#CF96C3" d="M1855.1,894.1c9.6-11.8,21.3-20.5,21.4-37.2c0.1-15.1-9.7-29.2-23.8-34.7c-16-6.2-33.3,1.3-49.8,0
				c-17.2-1.4-31.7-5.2-45.5,8.5c-27.4,27.2,5,55.9,20.4,78.7c9.1,13.5,23.9,20.9,40.4,18.1C1839.1,923.9,1843.3,908.5,1855.1,894.1
				z"/>
			<path fill="#B163A8" d="M1779.4,921.1c-6.8-6.6-10-16-15.6-23.4c-4.7-6.3-10.8-11.4-15.3-17.9c-10.3-14.8-10.3-33.6,0.4-48.2
				c10.3-14,26.4-18.9,43.1-16.9c18.1,2.2,36.8-3.2,54.4-0.1c17.8,3.2,32.1,17.2,35.1,35.1c3.3,20.1-8.1,31.8-20.1,45.9
				c-10.2,12-14.3,26-29.5,33.5C1815,937.4,1793.1,934.7,1779.4,921.1z M1861.5,834.7c-12-12-27.2-8.8-42.3-7.2
				c-14.5,1.5-30.7-4.8-44.5-0.7c-12.8,3.9-22.6,16.5-22.3,30c0.4,16.6,17,27.2,25.2,40.1c8.2,12.8,14.8,24,31.6,25.1
				c14.5,1,25.7-6.7,33.2-18.4C1855.2,883.4,1886,859.3,1861.5,834.7z"/>
		</g>
		<g>
			<path fill="#CF96C3" d="M1855.1,792c9.6-11.8,21.3-20.5,21.4-37.2c0.1-15.1-9.7-29.2-23.8-34.7c-16-6.2-33.3,1.3-49.8,0
				c-17.2-1.4-31.7-5.2-45.5,8.5c-27.4,27.2,5,55.9,20.4,78.7c9.1,13.5,23.9,20.9,40.4,18.1C1839.1,821.9,1843.3,806.5,1855.1,792z"
				/>
			<path fill="#B163A8" d="M1779.4,819c-6.8-6.6-10-16-15.6-23.4c-4.7-6.3-10.8-11.4-15.3-17.9c-10.3-14.8-10.3-33.6,0.4-48.2
				c10.3-14,26.4-18.9,43.1-16.9c18.1,2.2,36.8-3.2,54.4-0.1c17.8,3.2,32.1,17.2,35.1,35.1c3.3,20.1-8.1,31.8-20.1,45.9
				c-10.2,12-14.3,26-29.5,33.5C1815,835.4,1793.1,832.7,1779.4,819z M1861.5,732.7c-12-12-27.2-8.8-42.3-7.2
				c-14.5,1.5-30.7-4.8-44.5-0.7c-12.8,3.9-22.6,16.5-22.3,30c0.4,16.6,17,27.2,25.2,40.1c8.2,12.8,14.8,24,31.6,25.1
				c14.5,1,25.7-6.7,33.2-18.4C1855.2,781.4,1886,757.2,1861.5,732.7z"/>
		</g>
		<g>
			<path fill="#CF96C3" d="M1855.1,128.8c9.6-11.8,21.3-20.5,21.4-37.2c0.1-15.1-9.7-29.2-23.8-34.7c-16-6.2-33.3,1.3-49.8,0
				c-17.2-1.4-31.7-5.2-45.5,8.5c-27.4,27.2,5,55.9,20.4,78.7c9.1,13.5,23.9,20.9,40.4,18.1C1839.1,158.6,1843.3,143.3,1855.1,128.8
				z"/>
			<path fill="#B163A8" d="M1779.4,155.8c-6.8-6.6-10-16-15.6-23.4c-4.7-6.3-10.8-11.4-15.3-17.9c-10.3-14.8-10.3-33.6,0.4-48.2
				c10.3-14,26.4-18.9,43.1-16.9c18.1,2.2,36.8-3.2,54.4-0.1c17.8,3.2,32.1,17.2,35.1,35.1c3.3,20.1-8.1,31.8-20.1,45.9
				c-10.2,12-14.3,26-29.5,33.5C1815,172.1,1793.1,169.5,1779.4,155.8z M1861.5,69.4c-12-12-27.2-8.8-42.3-7.2
				c-14.5,1.5-30.7-4.8-44.5-0.7c-12.8,3.9-22.6,16.5-22.3,30c0.4,16.6,17,27.2,25.2,40.1c8.2,12.8,14.8,24,31.6,25.1
				c14.5,1,25.7-6.7,33.2-18.4C1855.2,118.2,1886,94,1861.5,69.4z"/>
		</g>
		<g>
			<path fill="#D46A61" d="M1907.9,1163c19.6-19.6,18.2-53.1-3.4-70.5c-13.4-10.8-12.8-14-7.9-30c4.7-15.3,0.4-31.3-12.4-41.4
				c-7.2-5.7-14-7.2-22.9-7.6c-5.3-0.2-12.7,2.4-13.2-4.7c-0.2-3.6,8.8-11,10.5-13.7c4-6.4,6.5-13.8,7.2-21.4
				c2.2-26-17.6-49.5-43.6-51.8c-12.4-1.1-25.1,2.9-34.7,10.9c-14.3,11.9-14.7,26.2-18.2,42.9c-2.9,13.6-11.5,19.6-20.6,29
				c-12.1,12.6-11.4,23.2-13.3,39.4c-2,17-15.2,22.2-25,34.1c-8.5,10.2-12.3,23.6-10.6,36.7c1.6,13.1,8.8,25.4,19.9,32.6
				c13.9,9,28.2,10.7,35.8,26.9c7.1,15.2,13.2,28.1,29.8,34.8c13.4,5.4,29,4.5,41.7-2.7c13.3-7.5,19.4-24.8,34.6-28.7
				C1879,1173.5,1893.6,1177.3,1907.9,1163z"/>
			<path fill="#A24A48" d="M1765.4,1203.1c-8.4-8.4-10.7-18.5-16.3-28.3c-6.1-10.9-15.5-13.1-26-18.6c-19.4-10-31.1-29.2-29.4-51.3
				c0.7-9.8,4.2-19.2,9.9-27.2c6.3-8.7,17.1-13.6,22.6-22.7c5.6-9.3,2.3-19.8,4.4-29.8c2.2-10.5,8.7-19.4,16.3-26.6
				c9-8.5,14.8-13.8,17.1-26.5c2.2-12.2,2.6-22.1,9.9-32.8c11.6-16.8,32.3-25.7,52.4-22.6c43.7,6.7,59.2,60.5,29.4,91.4
				c17.3-0.3,31.9,3.6,41.9,19.2c10.7,16.5,4.4,28.3,1.1,45.4c-2,10.4,4.4,10.9,11.4,16.9c6,5.2,10.6,12,13.6,19.3
				c5.5,13.6,5.1,29-0.9,42.3c-7.1,15.8-21.9,27.3-38.9,30.6c-6.6,1.3-13.6,0.1-20.1,1.6c-8.4,2.1-12.5,8.2-18,14.3
				C1824.9,1221.6,1789.2,1226.9,1765.4,1203.1z M1752.7,1159.4c10,10,10.9,25.3,21,35.5c8.7,8.8,21.4,13.3,33.8,12.1
				c13.4-1.3,22.6-8.6,31-18.3c12.5-14.3,21.5-15.7,39.3-17.7c27.6-3.2,46-31.4,35.3-57.7c-5.1-12.7-15.6-14.9-23-24.8
				c-9.6-13,2.9-24.4,3-37.9c0.1-14-10.5-27.9-24.4-30.7c-8.8-1.8-30.3,3.7-25.9-13.2c2.4-9.1,12.8-15.2,15.7-25
				c3.7-12.6,1.2-26.3-6.4-36.8c-15.6-21.4-47.8-22.7-65.3-3c-11,12.4-8.4,25.9-13.2,40.5c-4.9,15-18.1,20.9-26.3,33.3
				c-8.9,13.5-2.7,29.3-10.1,43.3c-6.9,13.1-21.8,18.6-28.1,32.3c-5.7,12.5-5.1,27.2,1.9,39
				C1720.8,1146.8,1740,1146.7,1752.7,1159.4z"/>
		</g>
	</g>
</g>
</svg>
